SplineFontDB: 3.0
FontName: boon-700
FullName: Boon Bold
FamilyName: Boon
Weight: 700
Copyright: Copyright (C) 2013 Sungsit Sawaiwan <http://sungsit.com/> \n\nThis font is free software: you can redistribute it and/or modify it under the terms of the GNU General Public License as published by the Free Software Foundation, either version 3 of the License, or (at your option) any later version. \n\nThis font is distributed in the hope that it will be useful, but WITHOUT ANY WARRANTY; without even the implied warranty of MERCHANTABILITY or FITNESS FOR A PARTICULAR PURPOSE. See the GNU General Public License for more details. \n\nYou should have received a copy of the GNU General Public License along with this program. If not, see <http://www.gnu.org/licenses/>. \n\nAs a special exception, if you create a document which uses this font, and embed this font or unaltered portions of this font into the document, this font does not by itself cause the resulting document to be covered by the GNU General Public License. This exception does not however invalidate any other reasons why the document might be covered by the GNU General Public License. If you modify this font, you may extend this exception to your version of the font, but you are not obligated to do so. If you do not wish to do so, delete this exception statement from your version.
UComments: "Created with FontForge 2.0 <http://fontforge.org/>" 

StartChar: uni0E04
Encoding: 3588 3588 0
Width: 670
VWidth: 0
Flags: W
HStem: 0 21G<460 610> 220 45<291.646 367.842> 355 45<291.405 367.842> 510 110<243.51 416.49>
VStem: 50 150<303.756 467.708> 60 170<17.9453 137.15> 80 150<3.90926 255.112> 375 45<272.158 347.842> 460 150<0 466.745>
LayerCount: 2
Fore
SplineSet
330 355 m 0xf180
 305 355 285 335 285 310 c 0
 285 285 305 265 330 265 c 0
 355 265 375 285 375 310 c 0
 375 335 355 355 330 355 c 0xf180
330 400 m 0
 380 400 420 360 420 310 c 0
 420 260 380 220 330 220 c 0
 300 220 273 235 257 257 c 1
 237 217 230 159 230 100 c 2xf580
 230 -10 l 1xf380
 230 -10 61 -6 60 30 c 1xf580
 60 30 80 79 80 140 c 0xf380
 80 242 50 255 50 390 c 0
 50 516 147 620 330 620 c 0
 513 620 610 516 610 390 c 2
 610 0 l 1
 460 0 l 1
 460 390 l 2
 460 473 399 510 330 510 c 0
 261 510 200 473 200 390 c 0xf980
 200 356 202 328 205 302 c 1
 229 358 271 400 330 400 c 0
EndSplineSet
EndChar

StartChar: uni0E05
Encoding: 3589 3589 2
Width: 670
VWidth: 0
Flags: W
HStem: 0 21G<460 610> 220 45<291.646 367.842> 355 45<291.744 367.842> 600 20G<205.5 264.231 395.769 454.5>
VStem: 50 150<307.779 493.188> 60 170<17.9453 137.15> 80 150<3.90926 255.112> 375 45<272.158 347.842> 460 150<0 492.949>
LayerCount: 2
Fore
SplineSet
330 355 m 0xf180
 305 355 285 335 285 310 c 0
 285 285 305 265 330 265 c 0
 355 265 375 285 375 310 c 0
 375 335 355 355 330 355 c 0xf180
330 400 m 0
 380 400 420 360 420 310 c 0
 420 260 380 220 330 220 c 0
 300 220 273 235 257 257 c 1
 237 217 230 159 230 100 c 2xf580
 230 -10 l 1xf380
 230 -10 61 -6 60 30 c 1xf580
 60 30 80 79 80 140 c 0xf380
 80 242 50 275 50 410 c 0
 50 554 176 620 235 620 c 1
 330 555 l 1
 425 620 l 1
 484 620 610 554 610 410 c 2
 610 0 l 1
 460 0 l 1
 460 410 l 2
 460 487 415 510 415 510 c 1
 330 455 l 1
 245 510 l 1
 245 510 200 487 200 410 c 0xf980
 200 371 203 337 206 306 c 1
 231 360 272 400 330 400 c 0
EndSplineSet
EndChar

StartChar: uni0E14
Encoding: 3604 3604 3
Width: 670
VWidth: 0
Flags: W
HStem: 0 21G<460 610> 355 45<292.158 367.842> 510 110<243.51 416.49>
VStem: 50 150<197.324 467.708> 80 140<112.426 316.135> 240 45<271.641 347.842> 375 45<271.504 347.842> 460 150<0 466.745>
LayerCount: 2
Fore
SplineSet
330 355 m 0xe7
 305 355 285 335 285 310 c 0
 285 285 305 265 330 265 c 0
 355 265 375 285 375 310 c 0
 375 335 355 355 330 355 c 0xe7
330 400 m 0
 380 400 420 360 420 310 c 0
 420 169 240 74 240 -10 c 1
 240 -10 61 -6 60 30 c 1
 60 30 80 79 80 140 c 0xef
 80 242 50 255 50 390 c 0
 50 516 147 620 330 620 c 0
 513 620 610 516 610 390 c 2
 610 0 l 1
 460 0 l 1
 460 390 l 2
 460 473 399 510 330 510 c 0
 261 510 200 473 200 390 c 0xf7
 200 263 219 211 220 111 c 1xef
 253 146 294 178 320 221 c 1
 275 226 240 264 240 310 c 0
 240 360 280 400 330 400 c 0
EndSplineSet
EndChar

StartChar: uni0E15
Encoding: 3605 3605 4
Width: 670
VWidth: 0
Flags: W
HStem: 0 21G<460 610> 355 45<292.158 367.842> 600 20G<205.5 264.231 395.769 454.5>
VStem: 50 150<199.173 493.188> 80 140<112.426 333.795> 240 45<271.641 347.842> 375 45<271.504 347.842> 460 150<0 492.949>
LayerCount: 2
Fore
SplineSet
330 355 m 0xe7
 305 355 285 335 285 310 c 0
 285 285 305 265 330 265 c 0
 355 265 375 285 375 310 c 0
 375 335 355 355 330 355 c 0xe7
330 400 m 0
 380 400 420 360 420 310 c 0
 420 169 240 74 240 -10 c 1
 240 -10 61 -6 60 30 c 1
 60 30 80 79 80 140 c 0xef
 80 242 50 275 50 410 c 0
 50 554 176 620 235 620 c 1
 330 555 l 1
 425 620 l 1
 484 620 610 554 610 410 c 2
 610 0 l 1
 460 0 l 1
 460 410 l 2
 460 487 415 510 415 510 c 1
 330 455 l 1
 245 510 l 1
 245 510 200 487 200 410 c 0xf7
 200 283 219 212 220 111 c 1xef
 253 146 294 178 320 221 c 1
 275 226 240 264 240 310 c 0
 240 360 280 400 330 400 c 0
EndSplineSet
EndChar

StartChar: uni0E01
Encoding: 3585 3585 5
Width: 670
VWidth: 0
Flags: W
HStem: 0 21G<100 250 460 610> 505 115<232.984 422.87>
VStem: 100 150<0 349.375> 460 150<0 470.805>
LayerCount: 2
Fore
SplineSet
250 0 m 1
 100 0 l 1
 100 270 l 2
 100 342 139 372 162 383 c 1
 50 420 l 1
 70 493 161 620 340 620 c 0
 491 620 610 536 610 400 c 2
 610 0 l 1
 460 0 l 1
 460 400 l 2
 460 473 406 505 340 505 c 0
 262 505 210 474 185 437 c 1
 320 400 l 1
 320 380 l 1
 320 380 250 363 250 270 c 2
 250 0 l 1
EndSplineSet
EndChar

StartChar: uni0E16
Encoding: 3606 3606 6
Width: 670
VWidth: 0
Flags: W
HStem: -10 80<184.668 265.332> 0 21G<460 610> 505 115<232.984 422.87>
VStem: 100 150<229.633 349.375> 100 80<74.9226 155.588> 270 80<74.6675 155.453> 460 150<0 470.805>
LayerCount: 2
Fore
SplineSet
225 160 m 0xae
 200 160 180 140 180 115 c 0
 180 90 200 70 225 70 c 0
 250 70 270 90 270 115 c 0
 270 140 250 160 225 160 c 0xae
100 115 m 2
 100 270 l 2
 100 342 139 372 162 383 c 1
 50 420 l 1
 70 493 161 620 340 620 c 0
 491 620 610 536 610 400 c 2
 610 0 l 1
 460 0 l 1
 460 400 l 2
 460 473 406 505 340 505 c 0
 262 505 210 474 185 437 c 1
 320 400 l 1
 320 380 l 1
 320 380 250 363 250 270 c 2
 250 238 l 1x76
 307 226 350 175 350 115 c 0
 350 46 294 -10 225 -10 c 0
 156 -10 100 46 100 115 c 2
EndSplineSet
EndChar

StartChar: uni0E28
Encoding: 3624 3624 7
Width: 680
VWidth: 0
Flags: W
HStem: 0 21G<460 610> 220 45<291.646 367.842> 355 45<291.405 367.842> 510 110<243.51 416.643>
VStem: 50 150<303.756 467.708> 60 170<17.9453 137.15> 80 150<3.90926 255.112> 375 45<272.158 347.842> 460 150<0 466.745> 550 120<594.516 720>
LayerCount: 2
Fore
SplineSet
330 400 m 0xf980
 380 400 420 360 420 310 c 0
 420 260 380 220 330 220 c 0
 300 220 273 235 257 257 c 1
 237 217 230 159 230 100 c 2xf5
 230 -10 l 1xf3
 230 -10 61 -6 60 30 c 1xf5
 60 30 80 79 80 140 c 0xf3
 80 242 50 255 50 390 c 0
 50 516 147 620 330 620 c 0
 405 620 465 603 511 573 c 1
 538 609 550 649 550 720 c 1
 670 720 l 1xf940
 670 620 632 540 582 499 c 1
 600 467 610 430 610 390 c 2
 610 0 l 1
 460 0 l 1
 460 390 l 2
 460 473 399 510 330 510 c 0
 261 510 200 473 200 390 c 0
 200 356 202 328 205 302 c 1
 229 358 271 400 330 400 c 0xf980
330 355 m 0
 305 355 285 335 285 310 c 0
 285 285 305 265 330 265 c 0
 355 265 375 285 375 310 c 0
 375 335 355 355 330 355 c 0
EndSplineSet
Substitution2: "Ascent Substitute" uni0E28.alt
EndChar

StartChar: uni0E20
Encoding: 3616 3616 8
Width: 690
VWidth: 0
Flags: W
HStem: -10 80<124.668 205.332> 0 21G<480 630> 505 115<253.138 442.87>
VStem: 40 80<74.6675 155.453> 140 150<229.633 355.098> 210 80<74.9226 155.588> 480 150<0 470.805>
LayerCount: 2
Fore
SplineSet
165 160 m 0xb6
 140 160 120 140 120 115 c 0
 120 90 140 70 165 70 c 0
 190 70 210 90 210 115 c 0
 210 140 190 160 165 160 c 0xb6
205 438 m 1
 350 400 l 1
 350 380 l 1
 350 380 290 363 290 270 c 2x7a
 290 115 l 2
 290 46 234 -10 165 -10 c 0xb6
 96 -10 40 46 40 115 c 0
 40 175 83 226 140 238 c 1
 140 270 l 2
 140 339 172 370 192 382 c 1
 70 420 l 1
 90 493 181 620 360 620 c 0
 511 620 630 536 630 400 c 2
 630 0 l 1
 480 0 l 1x7a
 480 400 l 2
 480 473 426 505 360 505 c 0
 283 505 230 475 205 438 c 1
EndSplineSet
EndChar

StartChar: uni0E48
Encoding: 3656 3656 9
Width: 0
VWidth: 0
Flags: W
HStem: 990 250<-113.442 -90>
VStem: -210 120<1033 1240>
LayerCount: 2
Fore
SplineSet
-210 1240 m 1
 -90 1240 l 1
 -90 990 l 1
 -210 1033 l 1
 -210 1240 l 1
EndSplineSet
Position2: "Nikhahit & Tone High-Left" dx=-240 dy=0 dh=0 dv=0
Position2: "Mai Han-Akat & Tone High-Left" dx=-300 dy=0 dh=0 dv=0
Position2: "Tone High-Left" dx=-180 dy=0 dh=0 dv=0
MultipleSubs2: "Tone High-Low" uni0E48.low
EndChar

StartChar: uni0E34
Encoding: 3636 3636 10
Width: 0
VWidth: 0
Flags: W
HStem: 880 100<-424.702 -271.553>
AnchorPoint: "thai_above" 187.82 630 mark 0
LayerCount: 2
Fore
SplineSet
-590 790 m 1
 -590 837 -527 980 -370 980 c 0
 -181 980 -80 783 -80 700 c 1
 -270 778 -469 790 -590 790 c 1
-442 829 m 1
 -370 824 -287 811 -205 788 c 1
 -236 833 -283 880 -360 880 c 0
 -398 880 -429 860 -442 829 c 1
EndSplineSet
Substitution2: "Thai Tone & Vowel Above-Narrow" uni0E34.narrow
Position2: "Vowel Above-Left" dx=-140 dy=0 dh=0 dv=0
EndChar

StartChar: uni0E38
Encoding: 3640 3640 11
Width: 0
VWidth: 0
Flags: W
HStem: -350 145<-199.509 -129.412> -115 55<-209.708 -130.292>
VStem: -270 55<-200.072 -120.292> -200 130<-350 -243.591> -125 55<-200.588 -121.172>
LayerCount: 2
Fore
SplineSet
-170 -115 m 0xe8
 -195 -115 -215 -135 -215 -160 c 0
 -215 -185 -195 -205 -170 -205 c 0
 -145 -205 -125 -185 -125 -160 c 0
 -125 -135 -145 -115 -170 -115 c 0xe8
-200 -255 m 1xf0
 -241 -243 -270 -205 -270 -160 c 0
 -270 -105 -225 -60 -170 -60 c 0
 -115 -60 -70 -105 -70 -160 c 2xe8
 -70 -350 l 1
 -200 -350 l 1
 -200 -255 l 1xf0
EndSplineSet
Position2: "Vowel Below-Low" dx=0 dy=-200 dh=0 dv=0
EndChar

StartChar: uni0E35
Encoding: 3637 3637 12
Width: 0
VWidth: 0
Flags: W
HStem: 860 100<-414.702 -260.204>
VStem: -190 120<850.406 950>
AnchorPoint: "thai_above" 187.82 630 mark 0
LayerCount: 2
Fore
SplineSet
-190 990 m 1
 -70 950 l 1
 -70 680 l 1
 -260 758 -459 770 -580 770 c 1
 -580 817 -517 960 -360 960 c 0
 -268 960 -209 907 -172 849 c 1
 -183 879 -190 909 -190 930 c 2
 -190 990 l 1
-432 809 m 1
 -360 804 -277 791 -195 768 c 1
 -226 813 -273 860 -350 860 c 0
 -388 860 -419 840 -432 809 c 1
EndSplineSet
Substitution2: "Thai Tone & Vowel Above-Narrow" uni0E35.narrow
Position2: "Vowel Above-Left" dx=-140 dy=0 dh=0 dv=0
EndChar

StartChar: uni0E48.low
Encoding: 63237 63237 13
Width: 0
VWidth: 0
Flags: W
HStem: 700 260<-225 -85>
VStem: -225 140<700 960>
AnchorPoint: "thai_above" 187.82 630 mark 0
LayerCount: 2
Fore
SplineSet
-225 960 m 1
 -85 960 l 1
 -85 700 l 1
 -225 700 l 1
 -225 960 l 1
EndSplineSet
Position2: "Tone Low-Left" dx=-220 dy=0 dh=0 dv=0
Substitution2: "Tone Low-High" uni0E48
EndChar

StartChar: uni0E49.low
Encoding: 63238 63238 14
Width: 0
VWidth: 0
Flags: W
HStem: 700 145<-398.878 -331.122> 700 90<-471.793 -400.14 -308 -208.799> 915 55<-398.5 -331.5>
VStem: -455 55<846.648 913.5> -330 55<846.698 913.5> -170 140<825.81 920>
AnchorPoint: "thai_above" 187.82 630 mark 0
LayerCount: 2
Fore
SplineSet
-365 915 m 0xbc
 -384 915 -400 899 -400 880 c 0
 -400 861 -384 845 -365 845 c 0
 -346 845 -330 861 -330 880 c 0
 -330 899 -346 915 -365 915 c 0xbc
-365 970 m 0
 -315 970 -275 930 -275 880 c 0
 -275 841 -293 809 -308 790 c 1
 -300 790 l 2
 -217 790 -170 816 -170 920 c 1
 -30 920 l 1
 -30 790 -102 700 -300 700 c 2
 -445 700 l 2
 -501 700 -510 790 -510 790 c 1
 -407 790 l 1x7c
 -405 792 -403 795 -400 797 c 1
 -433 811 -455 843 -455 880 c 0
 -455 930 -415 970 -365 970 c 0
EndSplineSet
Substitution2: "Thai Tone & Vowel Above-Narrow" uni0E49.narrow
Substitution2: "Thai Special Tone for Asc" uni0E49
Position2: "Tone Low-Left" dx=-220 dy=0 dh=0 dv=0
Substitution2: "Tone Low-High" uni0E49
EndChar

StartChar: uni0E4A.low
Encoding: 63239 63239 15
Width: 0
VWidth: 0
Flags: W
HStem: 695 55<-439.523 -380.493> 810 55<-423.783 -380.708> 890 70<-422.442 -351.166 -265 -244.41>
VStem: -510 70<751.432 852.835> -380 55<750.493 809.507> -240 80<794.308 888.966> -140 130<806.81 930>
AnchorPoint: "thai_above" 187.82 630 mark 0
LayerCount: 2
Fore
SplineSet
-410 810 m 0
 -427 810 -440 797 -440 780 c 0
 -440 763 -427 750 -410 750 c 0
 -393 750 -380 763 -380 780 c 0
 -380 797 -393 810 -410 810 c 0
-265 890 m 1
 -290 850 l 1
 -345 850 l 1
 -349 867 -368 890 -390 890 c 0
 -408 890 -419 879 -424 863 c 1
 -418 864 -411 865 -404 865 c 0
 -357 865 -325 827 -325 780 c 0
 -325 733 -363 695 -410 695 c 0
 -464 695 -510 748 -510 825 c 0
 -510 893 -459 960 -395 960 c 0
 -348 960 -324 934 -311 912 c 1
 -285 960 l 1
 -265 960 l 2
 -209 960 -160 899 -160 830 c 0
 -160 818 -162 806 -164 794 c 1
 -150 813 -140 852 -140 930 c 1
 -10 930 l 1
 -10 761 -111 700 -265 700 c 1
 -265 765 l 1
 -250 765 -240 795 -240 830 c 0
 -240 865 -251 890 -265 890 c 1
EndSplineSet
Substitution2: "Thai Tone & Vowel Above-Narrow" uni0E4A.narrow
Substitution2: "Thai Special Tone for Asc" uni0E4A
Position2: "Tone Low-Left" dx=-200 dy=0 dh=0 dv=0
Substitution2: "Tone Low-High" uni0E4A
EndChar

StartChar: uni0E4B.low
Encoding: 63240 63240 16
Width: 0
VWidth: 0
Flags: W
HStem: 790 80<-360 -260 -140 -40>
VStem: -260 120<700 790 870 960>
AnchorPoint: "thai_above" 187.82 630 mark 0
LayerCount: 2
Fore
SplineSet
-260 960 m 1
 -140 960 l 1
 -140 870 l 1
 -40 870 l 1
 -40 790 l 1
 -140 790 l 1
 -140 700 l 1
 -260 700 l 1
 -260 790 l 1
 -360 790 l 1
 -360 870 l 1
 -260 870 l 1
 -260 960 l 1
EndSplineSet
Position2: "Tone Low-Left" dx=-230 dy=0 dh=0 dv=0
Substitution2: "Tone Low-High" uni0E4B
EndChar

StartChar: uni0E4C.low
Encoding: 63241 63241 17
Width: 0
VWidth: 0
Flags: W
HStem: 690 50<-263.125 -196.875>
VStem: -320 55<741.207 807.285> -195 125<925.114 976> -195 55<741.207 808.896>
AnchorPoint: "thai_above" 187.82 630 mark 0
LayerCount: 2
Fore
SplineSet
-195 976 m 1xe0
 -70 976 l 1xe0
 -70 911 -127 879 -166 844 c 1
 -150 827 -140 805 -140 780 c 0xd0
 -140 731 -180 690 -230 690 c 0
 -280 690 -320 731 -320 780 c 0
 -320 877 -195 908 -195 976 c 1xe0
-230 810 m 0
 -249 810 -265 795 -265 776 c 0
 -265 756 -249 740 -230 740 c 0
 -211 740 -195 756 -195 776 c 0xd0
 -195 795 -211 810 -230 810 c 0
EndSplineSet
Position2: "Tone Low-Left" dx=-140 dy=0 dh=0 dv=0
Substitution2: "Tone Low-High" uni0E4C
EndChar

StartChar: uni0E10.descless
Encoding: 63232 63232 18
Width: 600
VWidth: 0
Flags: W
HStem: 90 65<134.488 215.076> 245 65<134.488 214.327> 365 60<201 316.27> 505 95<503.409 560> 520 100<243.296 429.037>
VStem: 65 65<159.488 240.512> 360 150<96 330.346>
LayerCount: 2
Fore
SplineSet
175 245 m 0xe6
 150 245 130 225 130 200 c 0
 130 175 150 155 175 155 c 0
 200 155 220 175 220 200 c 0
 220 225 200 245 175 245 c 0xe6
60 365 m 1
 60 526 179 620 320 620 c 0xee
 415 620 468 568 485 555 c 1
 500 574 529 600 560 600 c 1
 560 505 l 1xf6
 531 505 498 485 485 460 c 1
 451 493 406 520 340 520 c 0xee
 248 520 208 473 201 425 c 1
 386 425 510 418 510 300 c 2
 510 60 l 2
 510 15 424 -10 330 -10 c 1
 322 63 304 121 278 160 c 1
 262 119 222 90 175 90 c 0
 114 90 65 139 65 200 c 0
 65 261 114 310 175 310 c 0
 270 310 331 204 360 96 c 1
 360 300 l 2
 360 362 167 365 60 365 c 1
EndSplineSet
EndChar

StartChar: uni0E0D.descless
Encoding: 63247 63247 19
Width: 930
VWidth: 0
Flags: W
HStem: -20 110<613.686 716.314> -10 80<184.668 265.332> 505 115<232.984 422.87> 580 20G<720 870>
VStem: 100 150<229.633 349.375> 100 80<74.9226 155.588> 270 80<74.6675 155.453> 460 150<96.3864 470.805> 720 150<96.3864 600>
LayerCount: 2
Fore
SplineSet
100 115 m 2x6780
 100 270 l 2
 100 342 139 372 162 383 c 1
 50 420 l 1
 70 493 161 620 340 620 c 0x6b80
 491 620 610 536 610 400 c 2
 610 130 l 2
 610 107 627 90 665 90 c 0
 703 90 720 107 720 130 c 2
 720 600 l 1
 870 600 l 1x9b80
 870 130 l 2
 870 92 860 -20 665 -20 c 0
 470 -20 460 92 460 130 c 2
 460 400 l 2
 460 473 406 505 340 505 c 0
 262 505 210 474 185 437 c 1
 320 400 l 1
 320 380 l 1
 320 380 250 363 250 270 c 2
 250 238 l 1xab80
 307 226 350 175 350 115 c 0
 350 46 294 -10 225 -10 c 0
 156 -10 100 46 100 115 c 2x6780
225 160 m 0
 200 160 180 140 180 115 c 0x4780
 180 90 200 70 225 70 c 0
 250 70 270 90 270 115 c 0
 270 140 250 160 225 160 c 0
EndSplineSet
EndChar

StartChar: uni0E36
Encoding: 3638 3638 20
Width: 0
VWidth: 0
Flags: W
HStem: 860 100<-424.702 -270.012> 925 65<-203.475 -137.069>
VStem: -135 65<856.486 922.931>
AnchorPoint: "thai_above" 187.82 630 mark 0
LayerCount: 2
Fore
SplineSet
-170 990 m 0x60
 -115 990 -70 945 -70 890 c 0
 -70 853 -90 820 -121 803 c 1
 -94 757 -80 711 -80 680 c 1
 -270 758 -469 770 -590 770 c 1
 -590 817 -527 960 -370 960 c 0xa0
 -329 960 -292 951 -259 935 c 1
 -243 968 -209 990 -170 990 c 0x60
-170 925 m 0x60
 -189 925 -205 909 -205 890 c 0
 -205 871 -189 855 -170 855 c 0
 -151 855 -135 871 -135 890 c 0
 -135 909 -151 925 -170 925 c 0x60
-360 860 m 0xa0
 -398 860 -429 840 -442 809 c 1
 -370 804 -287 791 -205 768 c 1
 -236 813 -283 860 -360 860 c 0xa0
EndSplineSet
Substitution2: "Thai Tone & Vowel Above-Narrow" uni0E36.narrow
Position2: "Vowel Above-Left" dx=-140 dy=0 dh=0 dv=0
EndChar

StartChar: uni0E37
Encoding: 3639 3639 21
Width: 0
VWidth: 0
Flags: W
HStem: 840 100<-424.702 -351.575>
VStem: -190 110<828.89 930>
AnchorPoint: "thai_above" 187.82 630 mark 0
LayerCount: 2
Fore
SplineSet
-190 970 m 1
 -80 930 l 1
 -80 660 l 1
 -270 738 -469 750 -590 750 c 1
 -590 797 -527 940 -370 940 c 0
 -363 940 -356 940 -350 939 c 1
 -350 1010 l 1
 -240 970 l 1
 -240 895 l 1
 -216 876 -197 852 -181 828 c 1
 -187 847 -190 865 -190 880 c 2
 -190 970 l 1
-442 789 m 1
 -370 784 -287 771 -205 748 c 1
 -236 793 -283 840 -360 840 c 0
 -398 840 -429 820 -442 789 c 1
EndSplineSet
Substitution2: "Thai Tone & Vowel Above-Narrow" uni0E37.narrow
Position2: "Vowel Above-Left" dx=-140 dy=0 dh=0 dv=0
EndChar

StartChar: uni0E2D
Encoding: 3629 3629 22
Width: 650
VWidth: 0
Flags: W
HStem: -20 110<228.243 405.009> 305 75<150.515 229.485> 500 120<225.541 404.459>
VStem: 70 75<219.412 298.381> 235 75<220.244 299.484> 430 150<117.412 476.359>
LayerCount: 2
Fore
SplineSet
190 305 m 0
 165 305 145 285 145 260 c 0
 145 235 165 215 190 215 c 0
 215 215 235 235 235 260 c 0
 235 285 215 305 190 305 c 0
190 380 m 0
 256 380 310 326 310 260 c 0
 310 202 268 153 213 142 c 1
 225 96 271 90 325 90 c 0
 388 90 430 119 430 170 c 2
 430 420 l 2
 430 471 390 500 315 500 c 0
 240 500 200 471 200 420 c 1
 50 420 l 1
 50 535 148 620 315 620 c 0
 482 620 580 535 580 420 c 2
 580 170 l 2
 580 34 470 -20 325 -20 c 0
 180 -20 70 34 70 170 c 2
 70 260 l 2
 70 326 124 380 190 380 c 0
EndSplineSet
EndChar

StartChar: uni0E4D
Encoding: 3661 3661 23
Width: 0
VWidth: 0
Flags: W
HStem: 700 70<-228.931 -151.069> 910 70<-228.931 -151.069>
VStem: -340 100<778.144 901.856> -140 100<778.144 901.856>
AnchorPoint: "thai_above" 187.82 630 mark 0
LayerCount: 2
Fore
SplineSet
-190 980 m 0
 -107 980 -40 917 -40 840 c 0
 -40 763 -107 700 -190 700 c 0
 -273 700 -340 763 -340 840 c 0
 -340 917 -273 980 -190 980 c 0
-190 910 m 0
 -223 910 -240 879 -240 840 c 0
 -240 801 -223 770 -190 770 c 0
 -157 770 -140 801 -140 840 c 0
 -140 879 -157 910 -190 910 c 0
EndSplineSet
Position2: "Vowel Above-Left" dx=-220 dy=0 dh=0 dv=0
EndChar

StartChar: uni0E33
Encoding: 3635 3635 24
Width: 550
VWidth: 0
Flags: W
HStem: 0 21G<340 490> 500 120<201.634 318.366> 700 70<-228.931 -151.069> 910 70<-228.931 -151.069>
VStem: -340 100<778.144 901.856> -140 100<778.144 901.856> 30 150<400 477.044> 340 150<0 477.044>
LayerCount: 2
Fore
SplineSet
-190 980 m 0
 -107 980 -40 917 -40 840 c 0
 -40 763 -107 700 -190 700 c 0
 -273 700 -340 763 -340 840 c 0
 -340 917 -273 980 -190 980 c 0
-190 910 m 0
 -223 910 -240 879 -240 840 c 0
 -240 801 -223 770 -190 770 c 0
 -157 770 -140 801 -140 840 c 0
 -140 879 -157 910 -190 910 c 0
490 400 m 2
 490 0 l 1
 340 0 l 1
 340 400 l 2
 340 466 312 500 260 500 c 0
 208 500 180 466 180 400 c 1
 30 400 l 1
 30 525 116 620 260 620 c 0
 404 620 490 525 490 400 c 2
EndSplineSet
MultipleSubs2: "Sara Am Decomposite" uni0E4D uni0E32
EndChar

StartChar: uni0E32
Encoding: 3634 3634 25
Width: 550
VWidth: 0
Flags: W
HStem: 0 21G<340 490> 500 120<201.634 318.366>
VStem: 30 150<400 477.044> 340 150<0 477.044>
LayerCount: 2
Fore
SplineSet
490 400 m 2
 490 0 l 1
 340 0 l 1
 340 400 l 2
 340 466 312 500 260 500 c 0
 208 500 180 466 180 400 c 1
 30 400 l 1
 30 525 116 620 260 620 c 0
 404 620 490 525 490 400 c 2
EndSplineSet
Substitution2: "Sara AA Substitute" uni0E45
EndChar

StartChar: uni0E25
Encoding: 3621 3621 26
Width: 650
VWidth: 0
Flags: W
HStem: -20 75<169.774 249.485> 145 75<169.317 249.485> 275 95<196.522 366.242> 500 120<234.031 405.969>
VStem: 50 115<61.8129 206.508> 255 75<60.5155 139.485> 420 160<17.9453 229.937> 430 150<288 471.499>
LayerCount: 2
Fore
SplineSet
210 145 m 0xfc
 185 145 165 125 165 100 c 0
 165 75 185 55 210 55 c 0
 235 55 255 75 255 100 c 0
 255 125 235 145 210 145 c 0xfc
210 220 m 0
 276 220 330 166 330 100 c 0
 330 34 276 -20 210 -20 c 0
 122 -20 50 54 50 170 c 0
 50 269 127 370 260 370 c 0
 343 370 397 334 430 288 c 1
 430 420 l 2
 430 471 384 500 320 500 c 0
 256 500 210 471 210 420 c 1
 60 420 l 1
 60 535 153 620 320 620 c 0
 487 620 580 535 580 420 c 2xfd
 580 30 l 2
 580 -6 420 -10 420 -10 c 1
 420 160 l 2xfe
 420 221 369 275 280 275 c 0
 230 275 186 254 168 212 c 1
 181 217 195 220 210 220 c 0
EndSplineSet
EndChar

StartChar: uni0E40
Encoding: 3648 3648 27
Width: 340
VWidth: 0
Flags: W
HStem: -10 80<149.668 230.332> 580 20G<65 215>
VStem: 65 150<229.633 600> 65 80<74.9226 155.588> 235 80<74.6675 155.453>
LayerCount: 2
Fore
SplineSet
190 160 m 0xd8
 165 160 145 140 145 115 c 0
 145 90 165 70 190 70 c 0
 215 70 235 90 235 115 c 0
 235 140 215 160 190 160 c 0xd8
65 115 m 2
 65 600 l 1
 215 600 l 1
 215 238 l 1xe8
 272 226 315 175 315 115 c 0
 315 46 259 -10 190 -10 c 0
 121 -10 65 46 65 115 c 2
EndSplineSet
EndChar

StartChar: uni0E41
Encoding: 3649 3649 28
Width: 630
VWidth: 0
Flags: W
HStem: -10 80<149.668 230.332 439.668 520.333> 580 20G<65 215 355 505>
VStem: 65 150<229.633 600> 65 80<74.9226 155.588> 235 80<74.6675 155.453> 355 150<229.633 600> 355 80<74.9226 155.588> 525 80<74.6675 155.453>
LayerCount: 2
Fore
SplineSet
190 160 m 0xd9
 165 160 145 140 145 115 c 0
 145 90 165 70 190 70 c 0
 215 70 235 90 235 115 c 0
 235 140 215 160 190 160 c 0xd9
65 115 m 2
 65 600 l 1
 215 600 l 1
 215 238 l 1xe9
 272 226 315 175 315 115 c 0
 315 46 259 -10 190 -10 c 0
 121 -10 65 46 65 115 c 2
480 160 m 0
 455 160 435 140 435 115 c 0xcb
 435 90 455 70 480 70 c 0
 505 70 525 90 525 115 c 0
 525 140 505 160 480 160 c 0
355 115 m 2
 355 600 l 1
 505 600 l 1
 505 238 l 1xcd
 562 226 605 175 605 115 c 0
 605 46 549 -10 480 -10 c 0
 411 -10 355 46 355 115 c 2
EndSplineSet
EndChar

StartChar: uni0E2A
Encoding: 3626 3626 29
Width: 660
VWidth: 0
Flags: W
HStem: -20 75<169.774 249.485> 145 75<169.317 249.485> 275 95<196.522 366.242> 500 120<234.031 405.395>
VStem: 50 115<61.8129 206.508> 255 75<60.5155 139.485> 420 160<17.9453 229.937> 430 150<288 475.126> 520 120<594.027 720>
LayerCount: 2
Fore
SplineSet
210 220 m 0xfe
 276 220 330 166 330 100 c 0
 330 34 276 -20 210 -20 c 0
 122 -20 50 54 50 170 c 0
 50 269 127 370 260 370 c 0
 343 370 397 334 430 288 c 1
 430 420 l 2xfd
 430 471 384 500 320 500 c 0
 256 500 210 471 210 420 c 1
 60 420 l 1
 60 535 153 620 320 620 c 0
 388 620 444 606 486 581 c 1
 510 615 520 654 520 720 c 1
 640 720 l 1xfc80
 640 626 606 548 560 506 c 1
 573 480 580 451 580 420 c 2xfd
 580 30 l 2
 580 -6 420 -10 420 -10 c 1
 420 160 l 2
 420 221 369 275 280 275 c 0
 230 275 186 254 168 212 c 1
 181 217 195 220 210 220 c 0xfe
210 145 m 0
 185 145 165 125 165 100 c 0
 165 75 185 55 210 55 c 0
 235 55 255 75 255 100 c 0
 255 125 235 145 210 145 c 0
EndSplineSet
Substitution2: "Ascent Substitute" uni0E2A.alt
EndChar

StartChar: uni0E2E
Encoding: 3630 3630 30
Width: 660
VWidth: 0
Flags: W
HStem: -20 110<228.243 405.009> 305 75<150.515 229.485> 500 120<225.541 407.316>
VStem: 70 75<219.412 298.381> 235 75<220.244 299.484> 430 150<117.412 476.496> 520 120<593.125 720>
LayerCount: 2
Fore
SplineSet
190 380 m 0xfc
 256 380 310 326 310 260 c 0
 310 202 268 153 213 142 c 1
 225 96 271 90 325 90 c 0
 388 90 430 119 430 170 c 2
 430 420 l 2xfc
 430 471 390 500 315 500 c 0
 240 500 200 471 200 420 c 1
 50 420 l 1
 50 535 148 620 315 620 c 0
 384 620 442 605 486 580 c 1
 509 614 520 653 520 720 c 1
 640 720 l 1xfa
 640 625 605 548 559 506 c 1
 573 480 580 451 580 420 c 2
 580 170 l 2
 580 34 470 -20 325 -20 c 0
 180 -20 70 34 70 170 c 2
 70 260 l 2
 70 326 124 380 190 380 c 0xfc
190 305 m 0
 165 305 145 285 145 260 c 0
 145 235 165 215 190 215 c 0
 215 215 235 235 235 260 c 0
 235 285 215 305 190 305 c 0
EndSplineSet
Substitution2: "Ascent Substitute" uni0E2E.alt
EndChar

StartChar: uni0E1D
Encoding: 3613 3613 31
Width: 740
VWidth: 0
Flags: W
HStem: 370 70<201.049 253.888> 540 70<166.211 253.965>
VStem: 50 150<72.9746 370> 50 110<445.957 532.12> 260 70<446.035 533.965> 520 150<72.9746 840>
LayerCount: 2
Fore
SplineSet
210 540 m 0xdc
 182 540 160 518 160 490 c 0
 160 462 182 440 210 440 c 0
 238 440 260 462 260 490 c 0
 260 518 238 540 210 540 c 0xdc
520 840 m 1
 670 840 l 1
 670 600 l 1
 670 110 l 2
 670 -1 567 -10 460 -10 c 1
 360 224 l 1
 260 -10 l 1
 153 -10 50 -1 50 110 c 2xec
 50 440 l 2xdc
 50 535 111 610 210 610 c 0
 276 610 330 556 330 490 c 0
 330 424 276 370 210 370 c 0
 207 370 203 370 200 370 c 1
 200 72 l 1xec
 315 330 l 1
 405 330 l 1
 520 72 l 1
 520 600 l 1
 520 840 l 1
EndSplineSet
EndChar

StartChar: uni0E1A
Encoding: 3610 3610 32
Width: 720
VWidth: 0
Flags: W
HStem: -20 120<316.466 493.534> 530 80<127.092 212.908> 580 20G<510 660>
VStem: 40 80<436.252 522.908> 150 150<117.857 358.372> 220 80<435.957 521.773> 510 150<117.857 600>
LayerCount: 2
Fore
SplineSet
510 600 m 1xba
 660 600 l 1
 660 170 l 2
 660 34 563 -20 405 -20 c 0
 247 -20 150 34 150 170 c 2
 150 352 l 1xba
 88 361 40 415 40 480 c 0
 40 552 98 610 170 610 c 0
 242 610 300 552 300 480 c 2xd6
 300 170 l 2
 300 113 352 100 405 100 c 0
 458 100 510 113 510 170 c 2
 510 600 l 1xba
170 530 m 0xd6
 142 530 120 508 120 480 c 0
 120 452 142 430 170 430 c 0
 198 430 220 452 220 480 c 0
 220 508 198 530 170 530 c 0xd6
EndSplineSet
EndChar

StartChar: uni0E1B
Encoding: 3611 3611 33
Width: 730
VWidth: 0
Flags: W
HStem: -20 120<316.466 493.534> 530 80<127.092 212.908>
VStem: 40 80<436.252 522.908> 150 150<117.857 358.372> 220 80<435.957 521.773> 510 150<117.857 840>
LayerCount: 2
Fore
SplineSet
170 530 m 0xec
 142 530 120 508 120 480 c 0
 120 452 142 430 170 430 c 0
 198 430 220 452 220 480 c 0
 220 508 198 530 170 530 c 0xec
510 840 m 1
 660 840 l 1
 660 600 l 1
 660 170 l 2
 660 34 563 -20 405 -20 c 0
 247 -20 150 34 150 170 c 2
 150 352 l 1xf4
 88 361 40 415 40 480 c 0
 40 552 98 610 170 610 c 0
 242 610 300 552 300 480 c 2xec
 300 170 l 2xf4
 300 113 352 100 405 100 c 0
 458 100 510 113 510 170 c 2
 510 600 l 1
 510 840 l 1
EndSplineSet
EndChar

StartChar: uni0E49
Encoding: 3657 3657 34
Width: 0
VWidth: 0
Flags: W
HStem: 1020 125<-283.847 -226.234> 1020 75<-354.995 -284> 1205 55<-285.237 -226.431>
VStem: -340 54<1145.36 1204.51> -226 56<1145.65 1204.51> -100 130<1132.85 1230>
LayerCount: 2
Fore
SplineSet
-256 1205 m 0xbc
 -272 1205 -286 1192 -286 1175 c 0
 -286 1158 -272 1145 -256 1145 c 0
 -239 1145 -226 1158 -226 1175 c 0
 -226 1192 -239 1205 -256 1205 c 0xbc
-256 1260 m 0
 -209 1260 -170 1222 -170 1175 c 0
 -170 1135 -192 1109 -208 1096 c 1
 -133 1103 -100 1138 -100 1230 c 1
 30 1230 l 1
 30 1100 -38 1020 -240 1020 c 2xbc
 -330 1020 l 2
 -378 1020 -390 1095 -390 1095 c 1
 -284 1095 l 1x7c
 -317 1107 -340 1138 -340 1175 c 0
 -340 1222 -302 1260 -256 1260 c 0
EndSplineSet
Substitution2: "Thai Tone & Vowel Above-Narrow" uni0E49.narrow
Position2: "Nikhahit & Tone High-Left" dx=-210 dy=0 dh=0 dv=0
Position2: "Mai Han-Akat & Tone High-Left" dx=-260 dy=0 dh=0 dv=0
Position2: "Tone High-Left" dx=-180 dy=0 dh=0 dv=0
MultipleSubs2: "Tone High-Low" uni0E49.low
EndChar

StartChar: uni0E1C
Encoding: 3612 3612 35
Width: 730
VWidth: 0
Flags: W
HStem: 370 70<201.049 253.888> 540 70<166.211 253.965> 580 20G<520 670>
VStem: 50 150<72.9746 370> 50 110<445.957 532.12> 260 70<446.035 533.965> 520 150<72.9746 600>
LayerCount: 2
Fore
SplineSet
210 540 m 0xce
 182 540 160 518 160 490 c 0
 160 462 182 440 210 440 c 0
 238 440 260 462 260 490 c 0
 260 518 238 540 210 540 c 0xce
210 610 m 0
 276 610 330 556 330 490 c 0
 330 424 276 370 210 370 c 0
 207 370 203 370 200 370 c 1
 200 72 l 1
 315 330 l 1
 405 330 l 1
 520 72 l 1
 520 600 l 1
 670 600 l 1
 670 110 l 2
 670 -1 567 -10 460 -10 c 1
 360 224 l 1
 260 -10 l 1
 153 -10 50 -1 50 110 c 2xb6
 50 440 l 2
 50 535 111 610 210 610 c 0
EndSplineSet
EndChar

StartChar: uni0E1E
Encoding: 3614 3614 36
Width: 770
VWidth: 0
Flags: W
HStem: 530 80<127.092 212.908> 580 20G<560 710>
VStem: 40 80<436.252 522.908> 150 150<119 358.372> 220 80<435.957 521.773> 560 150<119 600>
LayerCount: 2
Fore
SplineSet
560 600 m 1x74
 710 600 l 1
 710 80 l 2
 710 9 619 -10 510 -10 c 1
 430 338 l 1
 350 -10 l 1
 241 -10 150 9 150 80 c 2
 150 352 l 1x74
 88 361 40 415 40 480 c 0
 40 552 98 610 170 610 c 0
 242 610 300 552 300 480 c 2xac
 300 119 l 1
 395 490 l 1
 465 490 l 1
 560 119 l 1
 560 600 l 1x74
170 530 m 0xac
 142 530 120 508 120 480 c 0
 120 452 142 430 170 430 c 0
 198 430 220 452 220 480 c 0
 220 508 198 530 170 530 c 0xac
EndSplineSet
EndChar

StartChar: uni0E1F
Encoding: 3615 3615 37
Width: 780
VWidth: 0
Flags: W
HStem: 530 80<127.092 212.908>
VStem: 40 80<436.252 522.908> 150 150<119 358.372> 220 80<435.957 521.773> 560 150<119 840>
LayerCount: 2
Fore
SplineSet
170 530 m 0xd8
 142 530 120 508 120 480 c 0
 120 452 142 430 170 430 c 0
 198 430 220 452 220 480 c 0
 220 508 198 530 170 530 c 0xd8
560 840 m 1
 710 840 l 1
 710 600 l 1
 710 80 l 2
 710 9 619 -10 510 -10 c 1
 430 338 l 1
 350 -10 l 1
 241 -10 150 9 150 80 c 2
 150 352 l 1xe8
 88 361 40 415 40 480 c 0
 40 552 98 610 170 610 c 0
 242 610 300 552 300 480 c 2xd8
 300 119 l 1xe8
 395 490 l 1
 465 490 l 1
 560 119 l 1
 560 600 l 1
 560 840 l 1
EndSplineSet
EndChar

StartChar: uni0E30
Encoding: 3632 3632 38
Width: 540
VWidth: 0
Flags: W
HStem: 30 90<216.644 322.37> 225 65<105.217 172.464> 340 90<216.644 322.37> 535 65<105.217 172.464>
VStem: 40 64<156.72 222.816 466.72 532.816> 174 66<156.302 223.036 466.302 533.036> 370 120<170.085 260 480.085 570>
LayerCount: 2
Fore
SplineSet
140 225 m 0
 120 225 104 209 104 190 c 0
 104 171 120 155 140 155 c 0
 159 155 174 171 174 190 c 0
 174 209 159 225 140 225 c 0
140 290 m 0
 195 290 240 245 240 190 c 0
 240 164 230 141 214 123 c 1
 225 121 239 120 254 120 c 0
 322 120 370 179 370 260 c 1
 490 260 l 1
 490 144 411 30 254 30 c 0
 146 30 40 84 40 190 c 0
 40 245 84 290 140 290 c 0
140 535 m 0
 120 535 104 519 104 500 c 0
 104 481 120 465 140 465 c 0
 159 465 174 481 174 500 c 0
 174 519 159 535 140 535 c 0
140 600 m 0
 195 600 240 555 240 500 c 0
 240 474 230 451 214 433 c 1
 225 431 239 430 254 430 c 0
 322 430 370 489 370 570 c 1
 490 570 l 1
 490 454 411 340 254 340 c 0
 146 340 40 394 40 500 c 0
 40 555 84 600 140 600 c 0
EndSplineSet
EndChar

StartChar: uni0E43
Encoding: 3651 3651 39
Width: 400
VWidth: 0
Flags: W
HStem: -10 80<204.668 285.332> 750 60<62.9321 137.068> 940 80<154.511 258.283>
VStem: 0 60<812.932 886.539> 120 150<229.633 669.594> 120 80<74.9226 155.588> 140 60<812.932 887.033> 280 100<790.452 916.815> 290 80<74.6675 155.453>
LayerCount: 2
Fore
SplineSet
245 160 m 0xf480
 220 160 200 140 200 115 c 0
 200 90 220 70 245 70 c 0
 270 70 290 90 290 115 c 0
 290 140 270 160 245 160 c 0xf480
100 890 m 0
 78 890 60 872 60 850 c 0
 60 828 78 810 100 810 c 0
 122 810 140 828 140 850 c 0xf2
 140 872 122 890 100 890 c 0
120 600 m 2xf8
 120 705 280 755 280 860 c 0
 280 898 252 940 190 940 c 0
 176 940 164 938 153 935 c 1
 181 917 200 886 200 850 c 0xf3
 200 795 155 750 100 750 c 0
 45 750 0 795 0 850 c 0
 0 923 61 1020 190 1020 c 0
 314 1020 380 940 380 860 c 0
 380 748 270 706 270 600 c 2
 270 238 l 1xf9
 327 226 370 175 370 115 c 0
 370 46 314 -10 245 -10 c 0
 176 -10 120 46 120 115 c 2xf480
 120 600 l 2xf8
EndSplineSet
EndChar

StartChar: uni0E44
Encoding: 3652 3652 40
Width: 400
VWidth: 0
Flags: W
HStem: -10 80<204.668 285.332> 930 90<10 100.421>
VStem: 120 150<229.633 700.797> 120 80<74.9226 155.588> 290 80<74.6675 155.453>
LayerCount: 2
Fore
SplineSet
245 160 m 0xd8
 220 160 200 140 200 115 c 0
 200 90 220 70 245 70 c 0
 270 70 290 90 290 115 c 0
 290 140 270 160 245 160 c 0xd8
180 945 m 1
 360 1020 l 1
 376 1020 410 988 410 940 c 0
 410 830 270 768 270 600 c 2
 270 238 l 1xe8
 327 226 370 175 370 115 c 0
 370 46 314 -10 245 -10 c 0
 176 -10 120 46 120 115 c 2xd8
 120 600 l 2xe8
 120 747 266 841 320 913 c 1
 180 855 l 1
 180 855 86 930 10 930 c 1
 10 1020 l 1
 109 1020 180 945 180 945 c 1
EndSplineSet
EndChar

StartChar: uni0E29
Encoding: 3625 3625 41
Width: 770
VWidth: 0
Flags: W
HStem: -20 120<316.466 493.534> 184 70<449.114 510> 395 40<373.912 436.088> 530 80<127.092 212.908> 580 20G<510 660>
VStem: 40 80<436.252 522.908> 150 150<117.857 358.372> 220 80<435.957 521.773> 330 40<329.772 391.088> 440 40<328.72 391.088> 510 150<117.857 189.004 291 600> 695 85<304.239 380>
AnchorPoint: "thai_above" 927.82 630 basechar 0
LayerCount: 2
Fore
SplineSet
170 530 m 0xf5f0
 142 530 120 508 120 480 c 0
 120 452 142 430 170 430 c 0
 198 430 220 452 220 480 c 0
 220 508 198 530 170 530 c 0xf5f0
510 600 m 1xeef0
 660 600 l 1
 660 291 l 1
 679 311 693 340 695 380 c 1
 780 380 l 1
 779 307 733 238 660 203 c 1
 660 170 l 2
 660 34 563 -20 405 -20 c 0
 247 -20 150 34 150 170 c 2
 150 352 l 1xeef0
 88 361 40 415 40 480 c 0
 40 552 98 610 170 610 c 0
 242 610 300 552 300 480 c 2xf5f0
 300 170 l 2
 300 113 352 100 405 100 c 0
 458 100 510 113 510 170 c 2
 510 184 l 1
 423 198 330 252 330 360 c 0
 330 401 364 435 405 435 c 0
 446 435 480 401 480 360 c 0
 480 329 461 303 435 291 c 1
 456 269 482 258 510 254 c 1
 510 600 l 1xeef0
405 395 m 0
 386 395 370 379 370 360 c 0
 370 341 386 325 405 325 c 0
 424 325 440 341 440 360 c 0
 440 379 424 395 405 395 c 0
EndSplineSet
EndChar

StartChar: uni0E42
Encoding: 3650 3650 42
Width: 400
VWidth: 0
Flags: W
HStem: -10 80<204.668 285.332> 930 90<121.627 271.846 338.539 380>
VStem: 120 150<229.633 764.795> 120 80<74.9226 155.588> 290 80<74.6675 155.453>
LayerCount: 2
Fore
SplineSet
245 160 m 0xd8
 220 160 200 140 200 115 c 0
 200 90 220 70 245 70 c 0
 270 70 290 90 290 115 c 0
 290 140 270 160 245 160 c 0xd8
-20 840 m 1
 -20 935 64 1020 180 1020 c 0
 250 1020 296 978 310 965 c 1
 327 984 351 1010 380 1020 c 1
 380 930 l 1
 344 920 326 895 310 875 c 1
 268 915 239 930 190 930 c 0
 151 930 117 910 105 884 c 1
 202 865 270 794 270 600 c 2
 270 238 l 1xe8
 327 226 370 175 370 115 c 0
 370 46 314 -10 245 -10 c 0
 176 -10 120 46 120 115 c 2xd8
 120 600 l 2xe8
 120 778 100 840 -20 840 c 1
EndSplineSet
EndChar

StartChar: uni0E21
Encoding: 3617 3617 43
Width: 660
VWidth: 0
Flags: W
HStem: -20 85<144.49 235.51> 530 80<137.092 222.908> 580 20G<450 600>
VStem: 50 85<74.4899 165.57 433.859 525.452> 160 150<248.688 358.372> 230 80<435.957 521.773> 245 85<75.2217 121.403> 450 150<118 600>
LayerCount: 2
Fore
SplineSet
180 530 m 0xd5
 152 530 130 508 130 480 c 0
 130 452 152 430 180 430 c 0
 208 430 230 452 230 480 c 0
 230 508 208 530 180 530 c 0xd5
450 600 m 1xb5
 600 600 l 1
 600 60 l 2
 600 15 527 -10 430 -10 c 1
 430 -10 405 72 330 122 c 1
 330 122 330 121 330 120 c 0xb3
 330 43 267 -20 190 -20 c 0
 113 -20 50 43 50 120 c 0
 50 187 97 243 160 257 c 1
 160 352 l 1
 98 361 50 415 50 480 c 0
 50 552 108 610 180 610 c 0xd9
 252 610 310 552 310 480 c 2
 310 236 l 1
 370 209 418 163 450 118 c 1
 450 600 l 1xb5
190 175 m 0
 160 175 135 150 135 120 c 0
 135 90 160 65 190 65 c 0
 220 65 245 90 245 120 c 0
 245 150 220 175 190 175 c 0
EndSplineSet
EndChar

StartChar: uni0E06
Encoding: 3590 3590 44
Width: 690
VWidth: 0
Flags: W
HStem: -20 85<174.49 265.51> 300 55<105.203 184.708> 445 55<105.483 184.708> 550 60<119.942 204.146> 580 20G<480 630>
VStem: 30 70<360.419 485.589> 80 85<74.4899 165.67> 190 55<360.292 439.708> 275 85<75.2217 121.403> 335 95<386.924 542.705> 480 150<118 600>
LayerCount: 2
Fore
SplineSet
165 610 m 0xf320
 206 610 232 588 249 561 c 1
 271 610 l 1
 314 610 l 1
 371 593 430 541 430 450 c 0xf360
 430 344 360 316 343 235 c 1
 402 207 448 162 480 118 c 1
 480 600 l 1
 630 600 l 1
 630 60 l 2
 630 15 557 -10 460 -10 c 1
 460 -10 435 72 360 122 c 1
 360 122 360 121 360 120 c 0xe9a0
 360 43 297 -20 220 -20 c 0
 143 -20 80 43 80 120 c 0
 80 192 135 252 205 259 c 1
 243 331 335 382 335 450 c 0
 335 489 330 523 303 550 c 1
 270 485 l 1
 215 485 l 1
 215 512 198 550 165 550 c 0xf360
 133 550 114 525 105 492 c 1
 117 497 131 500 145 500 c 0
 200 500 245 455 245 400 c 0
 245 345 200 300 145 300 c 0
 76 300 30 362 30 440 c 0xf520
 30 508 71 610 165 610 c 0xf320
145 445 m 0
 120 445 100 425 100 400 c 0xe520
 100 375 120 355 145 355 c 0
 170 355 190 375 190 400 c 0
 190 425 170 445 145 445 c 0
220 175 m 0
 190 175 165 150 165 120 c 0
 165 90 190 65 220 65 c 0
 250 65 275 90 275 120 c 0xe3a0
 275 150 250 175 220 175 c 0
EndSplineSet
EndChar

StartChar: uni0E31
Encoding: 3633 3633 45
Width: 0
VWidth: 0
Flags: W
HStem: 710 90<-233.356 -127.63> 905 65<-344.783 -277.536>
VStem: -410 64<836.72 902.816> -276 66<836.302 903.036> -80 120<850.085 940>
LayerCount: 2
Fore
SplineSet
-310 905 m 0
 -330 905 -346 889 -346 870 c 0
 -346 851 -330 835 -310 835 c 0
 -291 835 -276 851 -276 870 c 0
 -276 889 -291 905 -310 905 c 0
-310 970 m 0
 -255 970 -210 925 -210 870 c 0
 -210 844 -220 821 -236 803 c 1
 -225 801 -211 800 -196 800 c 0
 -128 800 -80 859 -80 940 c 1
 40 940 l 1
 40 824 -39 710 -196 710 c 0
 -304 710 -410 764 -410 870 c 0
 -410 925 -366 970 -310 970 c 0
EndSplineSet
Substitution2: "Thai Tone & Vowel Above-Narrow" uni0E31.narrow
Position2: "Vowel Above-Left" dx=-240 dy=0 dh=0 dv=0
EndChar

StartChar: uni0E4C
Encoding: 3660 3660 46
Width: 0
VWidth: 0
Flags: W
HStem: 980 50<-247.829 -181.489>
VStem: -300 50<1031.88 1097.91> -180 50<1031.62 1098.61>
LayerCount: 2
Fore
SplineSet
-160 1250 m 1
 -40 1250 l 1
 -40 1186 -102 1147 -145 1114 c 1
 -135 1100 -130 1083 -130 1065 c 0
 -130 1018 -168 980 -214 980 c 0
 -261 980 -300 1018 -300 1065 c 0
 -300 1160 -160 1188 -160 1250 c 1
-214 1100 m 0
 -234 1100 -250 1084 -250 1065 c 0
 -250 1046 -234 1030 -214 1030 c 0
 -195 1030 -180 1046 -180 1065 c 0
 -180 1084 -195 1100 -214 1100 c 0
EndSplineSet
Position2: "Tone High-Left" dx=-140 dy=0 dh=0 dv=0
MultipleSubs2: "Tone High-Low" uni0E4C.low
EndChar

StartChar: uni0E39
Encoding: 3641 3641 47
Width: 0
VWidth: 0
Flags: W
HStem: -360 80<-268.724 -191.276> -115 55<-409.708 -330.292>
VStem: -470 55<-200.416 -120.292> -325 55<-200.588 -121.172> -190 120<-278.939 -80>
LayerCount: 2
Fore
SplineSet
-370 -115 m 0
 -395 -115 -415 -135 -415 -160 c 0
 -415 -185 -395 -205 -370 -205 c 0
 -345 -205 -325 -185 -325 -160 c 0
 -325 -135 -345 -115 -370 -115 c 0
-390 -258 m 1
 -436 -249 -470 -208 -470 -160 c 0
 -470 -105 -425 -60 -370 -60 c 0
 -315 -60 -270 -105 -270 -160 c 2
 -270 -260 l 2
 -270 -276 -257 -280 -230 -280 c 0
 -203 -280 -190 -276 -190 -260 c 2
 -190 -80 l 1
 -70 -80 l 1
 -70 -260 l 2
 -70 -311 -85 -360 -230 -360 c 0
 -375 -360 -390 -311 -390 -260 c 2
 -390 -258 l 1
EndSplineSet
Position2: "Vowel Below-Low" dx=0 dy=-200 dh=0 dv=0
EndChar

StartChar: uni0E03
Encoding: 3587 3587 48
Width: 690
VWidth: 0
Flags: W
HStem: -20 120<351.902 468.098> 300 55<105.203 184.708> 445 55<105.483 184.708> 550 60<119.942 204.146> 580 20G<480 630>
VStem: 30 70<360.419 485.589> 190 150<114.424 275.682> 190 55<360.292 439.708> 335 95<387.108 542.705> 480 150<114.424 600>
LayerCount: 2
Fore
SplineSet
145 445 m 0xe540
 120 445 100 425 100 400 c 0
 100 375 120 355 145 355 c 0
 170 355 190 375 190 400 c 0
 190 425 170 445 145 445 c 0xe540
270 485 m 1
 215 485 l 1
 215 512 198 550 165 550 c 0
 133 550 114 525 105 492 c 1
 117 497 131 500 145 500 c 0
 200 500 245 455 245 400 c 0
 245 345 200 300 145 300 c 0
 76 300 30 362 30 440 c 0
 30 508 71 610 165 610 c 0
 206 610 232 588 249 561 c 1
 271 610 l 1
 314 610 l 1
 371 593 430 541 430 450 c 0xf5c0
 430 330 340 310 340 200 c 2
 340 160 l 2
 340 120 371 100 410 100 c 0
 449 100 480 120 480 160 c 2
 480 600 l 1
 630 600 l 1
 630 160 l 2
 630 92 598 -20 410 -20 c 0
 222 -20 190 92 190 160 c 2
 190 200 l 2xee40
 190 307 335 365 335 450 c 0
 335 489 330 523 303 550 c 1xf4c0
 270 485 l 1
EndSplineSet
EndChar

StartChar: uni0E22
Encoding: 3618 3618 49
Width: 660
VWidth: 0
Flags: W
HStem: -20 120<213.865 435.37> 250 80<217.263 320> 370 70<171.428 253.965> 540 70<166.05 253.965> 580 20G<450 600>
VStem: 40 150<124.884 222.396> 40 120<404.666 533.397> 260 70<446.035 533.965> 450 150<119.503 600>
LayerCount: 2
Fore
SplineSet
450 600 m 1xed80
 600 600 l 1
 600 80 l 2
 600 57 484 -20 320 -20 c 0
 156 -20 40 44 40 170 c 0xed80
 40 232 76 273 131 297 c 1
 73 333 40 387 40 450 c 0
 40 553 112 610 210 610 c 0xf380
 276 610 330 556 330 490 c 0
 330 424 276 370 210 370 c 0
 196 370 183 372 171 377 c 1
 197 342 249 330 320 330 c 1
 320 250 l 1
 240 250 190 222 190 170 c 0
 190 119 256 100 320 100 c 0
 387 100 434 120 450 135 c 1
 450 600 l 1xed80
210 540 m 0xf380
 182 540 160 518 160 490 c 0
 160 462 182 440 210 440 c 0
 238 440 260 462 260 490 c 0
 260 518 238 540 210 540 c 0xf380
EndSplineSet
EndChar

StartChar: uni0E46
Encoding: 3654 3654 50
Width: 660
VWidth: 0
Flags: W
HStem: -290 120<280 382.887> 250 65<142.771 216.835> 395 65<142.643 216.835> 540 80<154.33 241.587>
VStem: 50 90<319.868 529.314> 220 65<318.165 391.835> 420 150<-137.828 534.284>
LayerCount: 2
Fore
SplineSet
570 -80 m 2
 570 -212 485 -290 280 -290 c 1
 280 -170 l 1
 369 -170 420 -141 420 -80 c 2
 420 450 l 2
 420 488 407 520 395 535 c 1
 340 455 l 1
 255 455 l 1
 255 499 239 540 195 540 c 0
 154 540 142 496 140 452 c 1
 152 457 166 460 180 460 c 0
 238 460 285 413 285 355 c 0
 285 297 238 250 180 250 c 0
 95 250 50 339 50 440 c 0
 50 522 89 620 190 620 c 0
 245 620 286 582 311 540 c 1
 364 620 l 1
 434 620 l 1
 509 600 570 532 570 450 c 2
 570 -80 l 2
180 395 m 0
 158 395 140 377 140 355 c 0
 140 333 158 315 180 315 c 0
 202 315 220 333 220 355 c 0
 220 377 202 395 180 395 c 0
EndSplineSet
EndChar

StartChar: uni0E47
Encoding: 3655 3655 51
Width: 0
VWidth: 0
Flags: W
HStem: 690 65<-257.796 -212> 850 50<-194.402 -135.598> 920 85<-410.866 -202.133>
VStem: -530 105<790.46 909.272> -245 50<790.442 849.402> -190 120<1017.77 1080> -135 50<790.828 849.402>
LayerCount: 2
Fore
SplineSet
-165 850 m 0xfa
 -182 850 -195 837 -195 820 c 0
 -195 803 -182 790 -165 790 c 0
 -148 790 -135 803 -135 820 c 0
 -135 837 -148 850 -165 850 c 0xfa
-165 900 m 0
 -121 900 -85 864 -85 820 c 0xfa
 -85 750 -138 690 -210 690 c 0
 -263 690 -303 717 -325 755 c 1
 -365 695 l 1
 -470 695 -530 761 -530 850 c 0
 -530 939 -470 1005 -365 1005 c 2
 -250 1005 l 2
 -207 1005 -190 1041 -190 1080 c 1
 -70 1080 l 1xfc
 -70 1008 -120 920 -210 920 c 2
 -365 920 l 2
 -395 920 -425 903 -425 850 c 0
 -425 806 -405 787 -381 782 c 1
 -345 830 l 1
 -275 830 l 1
 -275 803 -258 756 -212 755 c 1
 -232 770 -245 793 -245 820 c 0
 -245 864 -209 900 -165 900 c 0
EndSplineSet
Substitution2: "Thai Tone & Vowel Above-Narrow" uni0E47.narrow
Position2: "Vowel Above-Left" dx=-180 dy=0 dh=0 dv=0
EndChar

StartChar: uni0E0B
Encoding: 3595 3595 52
Width: 710
VWidth: 0
Flags: W
HStem: -20 120<351.902 468.098> 300 55<105.203 184.708> 445 55<105.483 184.708> 550 60<119.942 204.146>
VStem: 30 70<360.419 485.589> 190 150<114.424 276.318> 190 55<360.292 439.708> 480 150<114.424 398.798> 550 140<598.979 720>
LayerCount: 2
Fore
SplineSet
270 485 m 1xfd
 215 485 l 1
 215 512 198 550 165 550 c 0
 133 550 114 525 105 492 c 1
 117 497 131 500 145 500 c 0
 200 500 245 455 245 400 c 0
 245 345 200 300 145 300 c 0
 76 300 30 362 30 440 c 0
 30 508 71 610 165 610 c 0
 206 610 232 588 249 561 c 1
 271 610 l 1
 314 610 l 1
 358 597 403 563 422 506 c 1
 487 524 550 586 550 720 c 1
 690 720 l 1xfa80
 690 570 600 489 495 457 c 1
 554 434 630 396 630 360 c 2
 630 160 l 2
 630 92 598 -20 410 -20 c 0
 222 -20 190 92 190 160 c 2
 190 200 l 2
 190 307 335 365 335 450 c 0
 335 489 330 523 303 550 c 1
 270 485 l 1xfd
145 445 m 0
 120 445 100 425 100 400 c 0
 100 375 120 355 145 355 c 0
 170 355 190 375 190 400 c 0
 190 425 170 445 145 445 c 0
428 420 m 1
 415 326 340 300 340 200 c 2
 340 160 l 2
 340 120 371 100 410 100 c 0
 449 100 480 120 480 160 c 2
 480 360 l 2xfd
 480 378 454 402 428 420 c 1
EndSplineSet
Substitution2: "Ascent Substitute" uni0E0B.alt
EndChar

StartChar: uni0E02
Encoding: 3586 3586 53
Width: 660
VWidth: 0
Flags: W
HStem: -20 120<321.902 438.098> 335 55<94.4233 174.708> 535 75<171.152 270.947> 580 20G<450 600>
VStem: 30 60<394.469 474.935> 160 150<114.424 277.824> 180 55<395.292 475.189> 290 100<372.652 517.45> 450 150<114.424 600>
LayerCount: 2
Fore
SplineSet
135 480 m 0xca80
 110 480 90 460 90 435 c 0
 90 410 110 390 135 390 c 0
 160 390 180 410 180 435 c 0
 180 460 160 480 135 480 c 0xca80
210 610 m 0xeb80
 327 610 390 526 390 450 c 0xeb80
 390 328 310 319 310 200 c 2
 310 160 l 2
 310 120 341 100 380 100 c 0
 419 100 450 120 450 160 c 2
 450 600 l 1
 600 600 l 1
 600 160 l 2
 600 92 568 -20 380 -20 c 0
 192 -20 160 92 160 160 c 2
 160 200 l 2xdc80
 160 311 290 340 290 450 c 0
 290 499 265 535 210 535 c 0
 196 535 182 533 169 529 c 1
 207 515 235 478 235 435 c 0
 235 380 190 335 135 335 c 0
 72 335 30 385 30 450 c 0
 30 538 107 610 210 610 c 0xeb80
EndSplineSet
EndChar

StartChar: uni0E0A
Encoding: 3594 3594 54
Width: 680
VWidth: 0
Flags: W
HStem: -20 120<321.902 438.098> 335 55<94.4233 174.708> 535 75<171.152 271.636>
VStem: 30 60<394.469 474.935> 160 150<114.424 277.824> 180 55<395.292 475.189> 450 150<114.424 398.798> 520 140<598.979 720>
LayerCount: 2
Fore
SplineSet
135 480 m 0xf4
 110 480 90 460 90 435 c 0
 90 410 110 390 135 390 c 0
 160 390 180 410 180 435 c 0
 180 460 160 480 135 480 c 0xf4
465 457 m 1
 524 434 600 396 600 360 c 2
 600 160 l 2
 600 92 568 -20 380 -20 c 0
 192 -20 160 92 160 160 c 2
 160 200 l 2xfa
 160 311 290 340 290 450 c 0
 290 499 265 535 210 535 c 0
 196 535 182 533 169 529 c 1
 207 515 235 478 235 435 c 0
 235 380 190 335 135 335 c 0
 72 335 30 385 30 450 c 0
 30 538 107 610 210 610 c 0
 300 610 358 560 380 503 c 1
 449 516 520 578 520 720 c 1
 660 720 l 1xf5
 660 570 570 489 465 457 c 1
450 360 m 2
 450 381 417 407 389 426 c 1
 379 326 310 311 310 200 c 2
 310 160 l 2
 310 120 341 100 380 100 c 0
 419 100 450 120 450 160 c 2
 450 360 l 2
EndSplineSet
Substitution2: "Ascent Substitute" uni0E0A.alt
EndChar

StartChar: uni0E19
Encoding: 3609 3609 55
Width: 690
VWidth: 0
Flags: W
HStem: -20 85<464.698 555.51> 530 80<127.092 212.908> 580 20G<450 600>
VStem: 40 80<436.252 522.908> 150 150<128 358.372> 220 80<435.957 521.773> 450 150<250 600> 565 85<74.4899 166.257>
LayerCount: 2
Fore
SplineSet
510 175 m 0x91
 480 175 455 150 455 120 c 0
 455 90 480 65 510 65 c 0
 540 65 565 90 565 120 c 0
 565 150 540 175 510 175 c 0x91
170 530 m 0xd4
 142 530 120 508 120 480 c 0
 120 452 142 430 170 430 c 0
 198 430 220 452 220 480 c 0
 220 508 198 530 170 530 c 0xd4
371 100 m 1
 330 48 310 -10 310 -10 c 1
 214 -10 150 15 150 60 c 2
 150 352 l 1xb9
 88 361 40 415 40 480 c 0
 40 552 98 610 170 610 c 0
 242 610 300 552 300 480 c 2xd4
 300 128 l 1
 335 182 386 235 450 258 c 1
 450 600 l 1
 600 600 l 1
 600 250 l 1xba
 581 241 l 1
 622 217 650 172 650 120 c 0xb1
 650 43 587 -20 510 -20 c 0
 439 -20 381 32 371 100 c 1
EndSplineSet
EndChar

StartChar: uni0E23
Encoding: 3619 3619 56
Width: 570
VWidth: 0
Flags: W
HStem: -10 80<307.092 392.908> 365 60<171 286.27> 505 95<473.409 530> 520 100<213.296 399.037>
VStem: 220 80<77.0919 163.748> 330 150<241.628 330.346> 400 80<78.2267 164.043>
LayerCount: 2
Fore
SplineSet
350 170 m 0xca
 322 170 300 148 300 120 c 0
 300 92 322 70 350 70 c 0
 378 70 400 92 400 120 c 0
 400 148 378 170 350 170 c 0xca
30 365 m 1
 30 526 149 620 290 620 c 0xdc
 385 620 438 568 455 555 c 1
 470 574 499 600 530 600 c 1
 530 505 l 1xec
 501 505 468 485 455 460 c 1
 421 493 376 520 310 520 c 0
 218 520 178 473 171 425 c 1
 356 425 480 418 480 300 c 2xdc
 480 120 l 2xda
 480 48 422 -10 350 -10 c 0
 278 -10 220 48 220 120 c 0
 220 185 268 239 330 248 c 1
 330 300 l 2xdc
 330 362 137 365 30 365 c 1
EndSplineSet
EndChar

StartChar: uni0E07
Encoding: 3591 3591 57
Width: 560
VWidth: 0
Flags: W
HStem: 260 110<30 98.5655> 530 80<317.092 402.908>
VStem: 230 80<436.252 522.908> 340 150<96 358.372> 410 80<435.957 521.773>
LayerCount: 2
Fore
SplineSet
360 530 m 0xe8
 332 530 310 508 310 480 c 0
 310 452 332 430 360 430 c 0
 388 430 410 452 410 480 c 0
 410 508 388 530 360 530 c 0xe8
340 96 m 1xf0
 340 352 l 1xf0
 278 361 230 415 230 480 c 0
 230 552 288 610 360 610 c 0
 432 610 490 552 490 480 c 2
 490 60 l 2xe8
 490 15 396 -10 290 -10 c 1
 185 174 100 260 30 260 c 1
 30 370 l 1
 123 370 238 275 340 96 c 1xf0
EndSplineSet
EndChar

StartChar: uni0E0E
Encoding: 3598 3598 58
Width: 700
VWidth: 0
Flags: W
HStem: -300 70<163.03 289.191> -150 70<163.03 310.923> -10 80<124.668 205.332> 505 115<253.138 442.87>
VStem: 40 80<74.6675 155.453> 80 80<-225.245 -154.755> 140 150<229.633 355.098> 210 80<74.9226 155.588> 330 90<-108.459 -80> 480 150<-209 470.805>
LayerCount: 2
Fore
SplineSet
210 -230 m 0xf5c0
 257 -230 292 -214 312 -175 c 1
 281 -159 247 -150 210 -150 c 0
 191 -150 160 -157 160 -190 c 0
 160 -223 191 -230 210 -230 c 0xf5c0
165 160 m 0
 140 160 120 140 120 115 c 0xf9c0
 120 90 140 70 165 70 c 0
 190 70 210 90 210 115 c 0
 210 140 190 160 165 160 c 0
205 438 m 1
 350 400 l 1
 350 380 l 1
 350 380 290 363 290 270 c 2xf2c0
 290 115 l 2xf1c0
 290 46 234 -10 165 -10 c 0
 96 -10 40 46 40 115 c 0
 40 175 83 226 140 238 c 1
 140 270 l 2xfac0
 140 339 172 370 192 382 c 1
 70 420 l 1
 90 493 181 620 360 620 c 0
 511 620 630 536 630 400 c 2
 630 0 l 1
 630 -230 l 2
 630 -286 521 -290 450 -290 c 1
 429 -266 405 -241 379 -219 c 1
 344 -269 287 -300 210 -300 c 0
 149 -300 80 -263 80 -190 c 0xf5c0
 80 -117 149 -80 210 -80 c 0
 245 -80 287 -91 329 -109 c 1
 330 -100 330 -90 330 -80 c 1
 420 -80 l 1
 420 -106 417 -130 411 -153 c 1
 437 -170 460 -189 480 -209 c 1
 480 0 l 1
 480 400 l 2
 480 473 426 505 360 505 c 0
 283 505 230 475 205 438 c 1
EndSplineSet
Substitution2: "Descent Shorten" uni0E0E.shorten
EndChar

StartChar: uni0E2B
Encoding: 3627 3627 59
Width: 700
VWidth: 0
Flags: W
HStem: 0 21G<150 310 480 630> 530 80<127.092 212.908 487.092 572.908>
VStem: 40 80<436.252 522.908> 150 160<0 168.479> 150 150<260 358.372> 220 80<435.957 521.773> 400 80<436.444 522.908> 480 150<0 328> 580 80<435.885 522.908>
LayerCount: 2
Fore
SplineSet
530 530 m 0xe280
 502 530 480 508 480 480 c 0
 480 452 502 430 530 430 c 0
 558 430 580 452 580 480 c 0
 580 508 558 530 530 530 c 0xe280
530 610 m 0
 602 610 660 552 660 480 c 0xea80
 660 435 637 395 601 371 c 1
 630 360 l 1
 630 0 l 1
 480 0 l 1
 480 328 l 1
 413 300 337 188 310 109 c 1
 310 0 l 1
 150 0 l 1xf1
 150 352 l 1xe8
 88 361 40 415 40 480 c 0
 40 552 98 610 170 610 c 0
 242 610 300 552 300 480 c 2xe4
 300 260 l 1xe8
 329 304 377 362 433 393 c 1
 412 416 400 447 400 480 c 0
 400 552 458 610 530 610 c 0
170 530 m 0
 142 530 120 508 120 480 c 0
 120 452 142 430 170 430 c 0
 198 430 220 452 220 480 c 0xe4
 220 508 198 530 170 530 c 0
EndSplineSet
EndChar

StartChar: uni0E3A
Encoding: 3642 3642 60
Width: 0
VWidth: 0
Flags: W
HStem: -250 180<-214.125 -85.875>
VStem: -240 180<-224.125 -95.875>
LayerCount: 2
Fore
SplineSet
-60 -160 m 0
 -60 -211 -99 -250 -150 -250 c 0
 -201 -250 -240 -211 -240 -160 c 0
 -240 -109 -201 -70 -150 -70 c 0
 -99 -70 -60 -109 -60 -160 c 0
EndSplineSet
Position2: "Vowel Below-Low" dx=0 dy=-200 dh=0 dv=0
EndChar

StartChar: uni0E53
Encoding: 3667 3667 61
Width: 850
VWidth: 0
Flags: W
HStem: -20 80<271.086 370.97> 0 21G<640 790> 190 80<268.262 370.97> 500 120<253.081 345.723>
VStem: 50 150<216.244 434.875> 385 80<74.03 175.97> 640 150<0 468.217>
LayerCount: 2
Fore
SplineSet
320 190 m 0xbe
 284 190 255 161 255 125 c 0
 255 89 284 60 320 60 c 0
 356 60 385 89 385 125 c 0
 385 161 356 190 320 190 c 0xbe
300 500 m 0
 252 500 200 428 200 300 c 0
 200 269 202 240 206 214 c 1
 232 248 274 270 320 270 c 0
 400 270 465 205 465 125 c 0
 465 45 400 -20 320 -20 c 0xbe
 151 -20 50 115 50 300 c 0
 50 485 180 620 300 620 c 0
 376 620 436 571 470 493 c 1
 530 620 l 1
 590 620 l 1
 725 590 790 505 790 360 c 2
 790 0 l 1
 640 0 l 1x7e
 640 360 l 2
 640 410 620 476 590 500 c 1
 500 330 l 1
 380 330 l 1
 380 457 339 500 300 500 c 0
EndSplineSet
EndChar

StartChar: uni0E24
Encoding: 3620 3620 62
Width: 680
VWidth: 0
Flags: W
HStem: -10 80<184.668 265.332> 505 115<232.984 422.87>
VStem: 100 150<229.633 349.375> 100 80<74.9226 155.588> 270 80<74.6675 155.453> 460 150<-270 470.805>
LayerCount: 2
Fore
SplineSet
225 160 m 0xdc
 200 160 180 140 180 115 c 0
 180 90 200 70 225 70 c 0
 250 70 270 90 270 115 c 0
 270 140 250 160 225 160 c 0xdc
100 115 m 2
 100 270 l 2
 100 342 139 372 162 383 c 1
 50 420 l 1
 70 493 161 620 340 620 c 0
 491 620 610 536 610 400 c 2
 610 0 l 1
 610 -270 l 1
 460 -270 l 1
 460 0 l 1
 460 400 l 2
 460 473 406 505 340 505 c 0
 262 505 210 474 185 437 c 1
 320 400 l 1
 320 380 l 1
 320 380 250 363 250 270 c 2
 250 238 l 1xec
 307 226 350 175 350 115 c 0
 350 46 294 -10 225 -10 c 0
 156 -10 100 46 100 115 c 2
EndSplineSet
EndChar

StartChar: uni0E26
Encoding: 3622 3622 63
Width: 700
VWidth: 0
Flags: W
HStem: -10 80<124.668 205.332> 505 115<253.138 442.87>
VStem: 40 80<74.6675 155.453> 140 150<229.633 355.098> 210 80<74.9226 155.588> 480 150<-270 470.805>
LayerCount: 2
Fore
SplineSet
165 160 m 0xec
 140 160 120 140 120 115 c 0
 120 90 140 70 165 70 c 0
 190 70 210 90 210 115 c 0
 210 140 190 160 165 160 c 0xec
205 438 m 1
 350 400 l 1
 350 380 l 1
 350 380 290 363 290 270 c 2xf4
 290 115 l 2xec
 290 46 234 -10 165 -10 c 0
 96 -10 40 46 40 115 c 0
 40 175 83 226 140 238 c 1
 140 270 l 2xf4
 140 339 172 370 192 382 c 1
 70 420 l 1
 90 493 181 620 360 620 c 0
 511 620 630 536 630 400 c 2
 630 0 l 1
 630 -270 l 1
 480 -270 l 1
 480 0 l 1
 480 400 l 2
 480 473 426 505 360 505 c 0
 283 505 230 475 205 438 c 1
EndSplineSet
EndChar

StartChar: uni0E45
Encoding: 3653 3653 64
Width: 320
VWidth: 0
Flags: W
HStem: 500 120<-48.3656 68.3656>
VStem: -220 150<400 477.044> 90 150<-270 477.044>
LayerCount: 2
Fore
SplineSet
240 400 m 2
 240 -270 l 1
 90 -270 l 1
 90 400 l 2
 90 466 62 500 10 500 c 0
 -42 500 -70 466 -70 400 c 1
 -220 400 l 1
 -220 525 -134 620 10 620 c 0
 154 620 240 525 240 400 c 2
EndSplineSet
EndChar

StartChar: uni0E50
Encoding: 3664 3664 65
Width: 800
VWidth: 0
Flags: W
HStem: -20 120<304.455 495.545> 500 120<304.455 495.545>
VStem: 50 160<196.879 403.121> 590 160<196.879 403.121>
LayerCount: 2
Fore
SplineSet
400 620 m 0
 594 620 750 477 750 300 c 0
 750 123 594 -20 400 -20 c 0
 206 -20 50 123 50 300 c 0
 50 477 206 620 400 620 c 0
400 500 m 0
 285 500 210 410 210 300 c 0
 210 190 285 100 400 100 c 0
 515 100 590 190 590 300 c 0
 590 410 515 500 400 500 c 0
EndSplineSet
EndChar

StartChar: uni0E27
Encoding: 3623 3623 66
Width: 560
VWidth: 0
Flags: W
HStem: -10 80<327.092 412.908> 500 120<198.948 331.052>
VStem: 240 80<77.0919 163.748> 350 150<241.628 481> 420 80<78.2267 164.043>
LayerCount: 2
Fore
SplineSet
370 170 m 0xe8
 342 170 320 148 320 120 c 0
 320 92 342 70 370 70 c 0
 398 70 420 92 420 120 c 0
 420 148 398 170 370 170 c 0xe8
350 248 m 1xf0
 350 420 l 2
 350 476 309 500 265 500 c 0
 221 500 180 476 180 420 c 1
 30 420 l 1
 30 535 113 620 265 620 c 0
 417 620 500 535 500 420 c 2xf0
 500 120 l 2xe8
 500 48 442 -10 370 -10 c 0
 298 -10 240 48 240 120 c 0
 240 185 288 239 350 248 c 1xf0
EndSplineSet
EndChar

StartChar: uni0E17
Encoding: 3607 3607 67
Width: 690
VWidth: 0
Flags: W
HStem: 0 21G<150 310 480 630> 460 150<414.208 524> 530 80<127.092 212.908>
VStem: 40 80<436.252 522.908> 150 160<0 307.312> 220 80<435.957 521.773> 480 150<0 456.216>
LayerCount: 2
Fore
SplineSet
170 530 m 0xb6
 142 530 120 508 120 480 c 0
 120 452 142 430 170 430 c 0
 198 430 220 452 220 480 c 0
 220 508 198 530 170 530 c 0xb6
150 352 m 1xda
 88 361 40 415 40 480 c 0
 40 552 98 610 170 610 c 0
 242 610 300 552 300 480 c 2
 300 401 l 1xb6
 334 496 393 610 485 610 c 0
 563 610 630 562 630 410 c 2
 630 0 l 1
 480 0 l 1
 480 410 l 2
 480 437 470 460 440 460 c 0
 381 460 336 315 310 219 c 1
 310 0 l 1
 150 0 l 1
 150 352 l 1xda
EndSplineSet
EndChar

StartChar: uni0E2C
Encoding: 3628 3628 68
Width: 810
VWidth: 0
Flags: W
HStem: 530 80<127.092 212.908> 585 65<559.488 639.97>
VStem: 40 80<436.252 522.908> 150 150<119 358.372> 220 80<435.957 521.773> 490 65<500.017 580.512> 560 150<119 451.168> 710 90<582.73 670>
AnchorPoint: "thai_above" 887.82 630 basechar 0
LayerCount: 2
Fore
SplineSet
170 530 m 0xac
 142 530 120 508 120 480 c 0
 120 452 142 430 170 430 c 0
 198 430 220 452 220 480 c 0
 220 508 198 530 170 530 c 0xac
600 585 m 0x64
 575 585 555 565 555 540 c 0
 555 515 575 495 600 495 c 0
 625 495 645 515 645 540 c 0
 645 565 625 585 600 585 c 0x64
710 455 m 1x65
 710 80 l 2
 710 9 619 -10 510 -10 c 1
 430 338 l 1
 350 -10 l 1
 241 -10 150 9 150 80 c 2
 150 352 l 1x75
 88 361 40 415 40 480 c 0
 40 552 98 610 170 610 c 0
 242 610 300 552 300 480 c 2xac
 300 119 l 1
 395 490 l 1
 465 490 l 1
 560 119 l 1
 560 437 l 1xb6
 519 454 490 493 490 540 c 0
 490 601 539 650 600 650 c 0
 647 650 686 621 702 580 c 1
 707 605 710 635 710 670 c 1
 800 670 l 1
 800 589 768 503 710 455 c 1x65
EndSplineSet
EndChar

StartChar: uni0E18
Encoding: 3608 3608 69
Width: 620
VWidth: 0
Flags: W
HStem: -20 120<236.604 393.396> 365 60<201 316.619> 505 95<503.409 560> 520 100<243.296 429.037>
VStem: 80 150<112.07 290> 400 150<112.07 330.577>
LayerCount: 2
Fore
SplineSet
60 365 m 1xdc
 60 526 179 620 320 620 c 0xdc
 415 620 468 568 485 555 c 1
 500 574 529 600 560 600 c 1
 560 505 l 1xec
 531 505 498 485 485 460 c 1
 451 493 406 520 340 520 c 0
 248 520 208 473 201 425 c 1
 408 425 550 419 550 300 c 2
 550 150 l 2
 550 26 451 -20 315 -20 c 0
 179 -20 80 26 80 150 c 2
 80 290 l 1
 230 290 l 1
 230 150 l 2
 230 116 254 100 315 100 c 0
 376 100 400 116 400 150 c 2
 400 300 l 2
 400 362 230 365 60 365 c 1xdc
EndSplineSet
EndChar

StartChar: uni0E10
Encoding: 3600 3600 70
Width: 600
VWidth: 0
Flags: W
HStem: -340 50<33.4015 129.987> -210 50<33.4646 146.348 410.741 440> -100 50<410.598 469.402> 90 65<134.488 215.076> 245 65<134.488 214.327> 365 60<201 316.27> 505 95<503.409 560> 520 100<243.296 429.037>
VStem: -30 60<-285.37 -214.63> 65 65<159.488 240.512> 160 60<-182.389 -140> 360 150<96 330.346> 360 50<-159.402 -100.598> 440 80<-286.572 -210> 470 50<-159.545 -100.741>
LayerCount: 2
Fore
SplineSet
440 -100 m 0xfce4
 423 -100 410 -113 410 -130 c 0
 410 -147 423 -160 440 -160 c 0xfcec
 457 -160 470 -147 470 -130 c 0xfce2
 470 -113 457 -100 440 -100 c 0xfce4
440 -210 m 1
 396 -210 360 -174 360 -130 c 0
 360 -86 396 -50 440 -50 c 0xfcec
 484 -50 520 -86 520 -130 c 2xfce2
 520 -270 l 2
 520 -326 461 -330 390 -330 c 1
 309 -212 l 1
 265 -330 l 1
 210 -330 l 1
 204 -315 196 -296 185 -278 c 1
 162 -315 127 -340 80 -340 c 0
 22 -340 -30 -305 -30 -250 c 0
 -30 -195 22 -160 80 -160 c 0
 107 -160 134 -169 158 -183 c 1
 159 -170 160 -155 160 -140 c 1
 220 -140 l 1
 220 -170 216 -199 208 -227 c 1
 220 -241 231 -256 240 -272 c 1
 280 -170 l 1
 325 -170 l 1
 330 -170 l 1
 416 -288 l 1
 431 -285 440 -278 440 -260 c 2
 440 -210 l 1
147 -233 m 1
 129 -219 107 -210 80 -210 c 0
 52 -210 30 -226 30 -250 c 0
 30 -274 51 -290 80 -290 c 0
 114 -290 135 -268 147 -233 c 1
175 245 m 0
 150 245 130 225 130 200 c 0
 130 175 150 155 175 155 c 0
 200 155 220 175 220 200 c 0
 220 225 200 245 175 245 c 0
60 365 m 1
 60 526 179 620 320 620 c 0xfdf0
 415 620 468 568 485 555 c 1
 500 574 529 600 560 600 c 1
 560 505 l 1xfef0
 531 505 498 485 485 460 c 1
 451 493 406 520 340 520 c 0
 248 520 208 473 201 425 c 1
 386 425 510 418 510 300 c 2
 510 60 l 2
 510 15 424 -10 330 -10 c 1
 322 63 304 121 278 160 c 1
 262 119 222 90 175 90 c 0
 114 90 65 139 65 200 c 0
 65 261 114 310 175 310 c 0
 270 310 331 204 360 96 c 1
 360 300 l 2xfdf0
 360 362 167 365 60 365 c 1
EndSplineSet
Substitution2: "Descent Substitute" uni0E10.descless
EndChar

StartChar: uni0E2F
Encoding: 3631 3631 71
Width: 560
VWidth: 0
Flags: W
HStem: -20 120<210 312.887> 350 90<203.104 324.964> 535 65<87.0689 152.931>
VStem: 20 65<466.771 532.931> 155 65<466.452 532.931> 350 150<132.172 381> 370 130<484.578 580>
LayerCount: 2
Fore
SplineSet
120 535 m 0xf8
 101 535 85 519 85 500 c 0
 85 481 101 465 120 465 c 0
 139 465 155 481 155 500 c 0
 155 519 139 535 120 535 c 0xf8
120 600 m 0
 175 600 220 555 220 500 c 0
 220 478 213 458 201 441 c 1
 211 440 222 440 235 440 c 0
 320 440 370 486 370 570 c 2
 370 580 l 1
 500 580 l 1xfa
 500 190 l 2
 500 58 415 -20 210 -20 c 1
 210 100 l 1
 299 100 350 129 350 190 c 2
 350 381 l 1xfc
 318 361 279 350 235 350 c 0
 127 350 20 394 20 500 c 0
 20 555 65 600 120 600 c 0
EndSplineSet
EndChar

StartChar: uni0E5A
Encoding: 3674 3674 72
Width: 720
VWidth: 0
Flags: W
HStem: -20 100<180 295.219 440 513.513> 350 90<214.9 300.963> 535 65<97.0689 162.931>
VStem: 30 65<466.771 532.931> 165 65<466.452 532.931> 330 120<111.378 374> 340 110<479.964 580> 530 120<96.6925 580>
LayerCount: 2
Fore
SplineSet
650 190 m 2xf9
 650 58 619 -20 440 -20 c 1
 440 80 l 1
 516 80 530 103 530 190 c 2
 530 385 l 1
 530 482 l 1
 530 580 l 1
 650 580 l 1
 650 190 l 2xf9
130 535 m 0
 111 535 95 519 95 500 c 0
 95 481 111 465 130 465 c 0
 149 465 165 481 165 500 c 0
 165 519 149 535 130 535 c 0
130 600 m 0
 185 600 230 555 230 500 c 0
 230 478 223 458 211 441 c 1
 221 440 235 440 235 440 c 1
 291 440 340 486 340 570 c 2
 340 580 l 1
 450 580 l 1xfb
 450 190 l 2
 450 58 385 -20 180 -20 c 1
 180 80 l 1
 284 80 330 103 330 190 c 2
 330 374 l 1xfd
 304 358 273 350 235 350 c 0
 127 350 30 394 30 500 c 0
 30 555 75 600 130 600 c 0
EndSplineSet
EndChar

StartChar: uni0E13
Encoding: 3603 3603 73
Width: 950
VWidth: 0
Flags: W
HStem: -20 75<734.276 825.511> -10 80<184.668 265.332> 505 115<232.984 422.87> 580 20G<730 880>
VStem: 100 150<229.633 349.375> 100 80<74.9226 155.588> 270 80<74.6675 155.453> 460 150<33.3922 71.8449 148 470.805> 730 150<230 600> 835 75<64.4892 155.984>
LayerCount: 2
Fore
SplineSet
100 115 m 2x67
 100 270 l 2
 100 342 139 372 162 383 c 1
 50 420 l 1
 70 493 161 620 340 620 c 0x6b
 491 620 610 536 610 400 c 2
 610 148 l 1
 637 188 676 222 730 235 c 1
 730 600 l 1
 880 600 l 1
 880 230 l 1x1b80
 853 217 l 1
 887 194 910 155 910 110 c 0
 910 38 852 -20 780 -20 c 0x9340
 712 -20 657 32 651 98 c 1
 618 48 610 -10 610 -10 c 1
 514 -10 460 15 460 60 c 2
 460 130 l 1
 460 400 l 2
 460 473 406 505 340 505 c 0
 262 505 210 474 185 437 c 1
 320 400 l 1
 320 380 l 1
 320 380 250 363 250 270 c 2
 250 238 l 1x6b40
 307 226 350 175 350 115 c 0
 350 46 294 -10 225 -10 c 0
 156 -10 100 46 100 115 c 2x67
225 160 m 0
 200 160 180 140 180 115 c 0x47
 180 90 200 70 225 70 c 0
 250 70 270 90 270 115 c 0
 270 140 250 160 225 160 c 0
780 165 m 0
 750 165 725 140 725 110 c 0
 725 80 750 55 780 55 c 0
 810 55 835 80 835 110 c 0x8340
 835 140 810 165 780 165 c 0
EndSplineSet
EndChar

StartChar: uni0E08
Encoding: 3592 3592 74
Width: 600
VWidth: 0
Flags: W
HStem: 140 75<165.515 245.326> 305 75<165.515 244.392> 500 120<204.031 375.969>
VStem: 85 75<220.515 299.484> 400 150<171 471.499>
LayerCount: 2
Fore
SplineSet
205 305 m 0
 180 305 160 285 160 260 c 0
 160 235 180 215 205 215 c 0
 230 215 250 235 250 260 c 0
 250 285 230 305 205 305 c 0
400 171 m 1
 400 420 l 2
 400 471 354 500 290 500 c 0
 226 500 180 471 180 420 c 1
 30 420 l 1
 30 535 123 620 290 620 c 0
 457 620 550 535 550 420 c 2
 550 60 l 2
 550 15 454 -10 360 -10 c 1
 351 77 334 150 310 201 c 1
 289 165 250 140 205 140 c 0
 139 140 85 194 85 260 c 0
 85 326 139 380 205 380 c 0
 300 380 363 299 400 171 c 1
EndSplineSet
EndChar

StartChar: uni0E0D
Encoding: 3597 3597 75
Width: 930
VWidth: 0
Flags: W
HStem: -295 85<613.588 727.588> -110 50<503.211 577.075> -20 110<613.686 716.314> -10 80<184.668 265.332> 505 115<232.984 422.87> 580 20G<720 870>
VStem: 100 150<229.633 349.375> 100 80<74.9226 155.588> 270 80<74.6675 155.453> 450 50<-186.487 -114> 460 150<96.3864 470.805> 580 50<-186.878 -112.811> 720 150<96.3864 600> 760 120<-176.588 -85>
LayerCount: 2
Fore
SplineSet
100 115 m 2xd980
 100 270 l 2
 100 342 139 372 162 383 c 1
 50 420 l 1
 70 493 161 620 340 620 c 0xda80
 491 620 610 536 610 400 c 2
 610 130 l 2
 610 107 627 90 665 90 c 0
 703 90 720 107 720 130 c 2
 720 600 l 1
 870 600 l 1xe6a8
 870 130 l 2
 870 92 860 -20 665 -20 c 0
 470 -20 460 92 460 130 c 2
 460 400 l 2
 460 473 406 505 340 505 c 0
 262 505 210 474 185 437 c 1
 320 400 l 1
 320 380 l 1
 320 380 250 363 250 270 c 2
 250 238 l 1xeaa8
 307 226 350 175 350 115 c 0
 350 46 294 -10 225 -10 c 0
 156 -10 100 46 100 115 c 2xd980
225 160 m 0
 200 160 180 140 180 115 c 0xd180
 180 90 200 70 225 70 c 0
 250 70 270 90 270 115 c 0
 270 140 250 160 225 160 c 0
540 -110 m 0
 518 -110 500 -128 500 -150 c 0
 500 -172 518 -190 540 -190 c 0
 563 -190 580 -172 580 -150 c 0xc0d0
 580 -128 563 -110 540 -110 c 0
540 -60 m 0
 590 -60 630 -100 630 -150 c 0
 630 -171 624 -190 612 -205 c 1
 625 -209 638 -210 650 -210 c 0
 729 -210 760 -164 760 -85 c 1
 880 -85 l 1xc0d4
 880 -213 787 -295 650 -295 c 0
 518 -295 450 -220 450 -150 c 0
 450 -100 491 -60 540 -60 c 0
EndSplineSet
Substitution2: "Descent Substitute" uni0E0D.descless
EndChar

StartChar: uni0E0F
Encoding: 3599 3599 76
Width: 700
VWidth: 0
Flags: W
HStem: -300 50<83.4015 180.205> -170 50<83.4646 196.401> -10 80<124.668 205.332> 505 115<253.138 442.87>
VStem: 20 60<-245.37 -174.63> 40 80<74.6675 155.453> 140 150<229.633 355.098> 210 80<74.9226 155.588> 210 60<-142.389 -100> 480 150<-223 470.805>
LayerCount: 2
Fore
SplineSet
165 160 m 0xf540
 140 160 120 140 120 115 c 0
 120 90 140 70 165 70 c 0
 190 70 210 90 210 115 c 0
 210 140 190 160 165 160 c 0xf540
205 438 m 1
 350 400 l 1
 350 380 l 1
 350 380 290 363 290 270 c 2xf240
 290 115 l 2xf140
 290 46 234 -10 165 -10 c 0
 96 -10 40 46 40 115 c 0
 40 175 83 226 140 238 c 1
 140 270 l 2xf640
 140 339 172 370 192 382 c 1
 70 420 l 1
 90 493 181 620 360 620 c 0
 511 620 630 536 630 400 c 2
 630 0 l 1
 630 -230 l 2
 630 -286 522 -290 450 -290 c 1
 383 -181 l 1
 316 -290 l 1
 260 -290 l 1
 254 -275 246 -256 235 -238 c 1
 212 -275 178 -300 130 -300 c 0
 72 -300 20 -265 20 -210 c 0
 20 -155 72 -120 130 -120 c 0
 158 -120 184 -129 208 -143 c 1
 210 -130 210 -115 210 -100 c 1
 270 -100 l 1xf8c0
 270 -130 266 -159 258 -187 c 1
 269 -199 279 -213 288 -228 c 1
 350 -130 l 1
 414 -130 l 1
 416 -130 l 1
 480 -223 l 1
 480 0 l 1
 480 400 l 2
 480 473 426 505 360 505 c 0
 283 505 230 475 205 438 c 1
197 -193 m 1
 180 -179 158 -170 130 -170 c 0
 102 -170 80 -186 80 -210 c 0xf840
 80 -234 101 -250 130 -250 c 0
 164 -250 185 -228 197 -193 c 1
EndSplineSet
Substitution2: "Descent Shorten" uni0E0F.shorten
EndChar

StartChar: uni0E4B
Encoding: 3659 3659 77
Width: 0
VWidth: 0
Flags: W
HStem: 1100 70<-290 -200 -100 -10>
VStem: -200 100<1052 1100 1170 1250>
LayerCount: 2
Fore
SplineSet
-200 1250 m 1
 -100 1250 l 1
 -100 1170 l 1
 -10 1170 l 1
 -10 1100 l 1
 -100 1100 l 1
 -100 1010 l 1
 -200 1052 l 1
 -200 1100 l 1
 -290 1100 l 1
 -290 1170 l 1
 -200 1170 l 1
 -200 1250 l 1
EndSplineSet
Position2: "Nikhahit & Tone High-Left" dx=-240 dy=0 dh=0 dv=0
Position2: "Mai Han-Akat & Tone High-Left" dx=-300 dy=0 dh=0 dv=0
Position2: "Tone High-Left" dx=-180 dy=0 dh=0 dv=0
MultipleSubs2: "Tone High-Low" uni0E4B.low
EndChar

StartChar: uni0E0F.shorten
Encoding: 63290 63290 78
Width: 690
VWidth: 0
Flags: W
HStem: -250 50<83.4015 180.205> -120 50<83.4646 196.401> -10 80<124.668 205.332> 505 115<253.138 442.87>
VStem: 20 60<-195.37 -124.63> 40 80<74.6675 155.453> 140 150<229.633 355.098> 210 80<74.9226 155.588> 210 60<-92.3892 -50> 480 150<-173 470.805>
LayerCount: 2
Fore
SplineSet
165 160 m 0xf540
 140 160 120 140 120 115 c 0
 120 90 140 70 165 70 c 0
 190 70 210 90 210 115 c 0
 210 140 190 160 165 160 c 0xf540
205 438 m 1
 350 400 l 1
 350 380 l 1
 350 380 290 363 290 270 c 2xf240
 290 115 l 2xf140
 290 46 234 -10 165 -10 c 0
 96 -10 40 46 40 115 c 0
 40 175 83 226 140 238 c 1
 140 270 l 2xf640
 140 339 172 370 192 382 c 1
 70 420 l 1
 90 493 181 620 360 620 c 0
 511 620 630 536 630 400 c 2
 630 50 l 1
 630 0 l 1
 630 -180 l 2
 630 -236 522 -240 450 -240 c 1
 383 -131 l 1
 316 -240 l 1
 260 -240 l 1
 254 -225 246 -206 235 -188 c 1
 212 -225 178 -250 130 -250 c 0
 72 -250 20 -215 20 -160 c 0
 20 -105 72 -70 130 -70 c 0
 158 -70 184 -79 208 -93 c 1
 210 -80 210 -65 210 -50 c 1
 270 -50 l 1xf8c0
 270 -80 266 -109 258 -137 c 1
 269 -149 279 -163 288 -178 c 1
 350 -80 l 1
 414 -80 l 1
 416 -80 l 1
 480 -173 l 1
 480 0 l 1
 480 50 l 1
 480 400 l 2
 480 473 426 505 360 505 c 0
 283 505 230 475 205 438 c 1
197 -143 m 1
 180 -129 158 -120 130 -120 c 0
 102 -120 80 -136 80 -160 c 0xf840
 80 -184 101 -200 130 -200 c 0
 164 -200 185 -178 197 -143 c 1
EndSplineSet
EndChar

StartChar: uni0E0E.shorten
Encoding: 63291 63291 79
Width: 690
VWidth: 0
Flags: W
HStem: -250 70<163.03 289.191> -100 70<163.03 310.923> -10 80<124.668 205.332> 505 115<253.138 442.87>
VStem: 40 80<74.6675 155.453> 80 80<-175.245 -104.755> 140 150<229.633 355.098> 210 80<74.9226 155.588> 330 90<-58.459 -30> 480 150<-159 470.805>
LayerCount: 2
Fore
SplineSet
165 160 m 0xf9c0
 140 160 120 140 120 115 c 0
 120 90 140 70 165 70 c 0
 190 70 210 90 210 115 c 0
 210 140 190 160 165 160 c 0xf9c0
205 438 m 1
 350 400 l 1
 350 380 l 1
 350 380 290 363 290 270 c 2xf2c0
 290 115 l 2xf1c0
 290 46 234 -10 165 -10 c 0
 96 -10 40 46 40 115 c 0
 40 175 83 226 140 238 c 1
 140 270 l 2xfac0
 140 339 172 370 192 382 c 1
 70 420 l 1
 90 493 181 620 360 620 c 0
 511 620 630 536 630 400 c 2
 630 50 l 1
 630 0 l 1
 630 -180 l 2
 630 -236 521 -240 450 -240 c 1
 429 -216 405 -191 379 -169 c 1
 344 -219 287 -250 210 -250 c 0
 149 -250 80 -213 80 -140 c 0xf5c0
 80 -67 149 -30 210 -30 c 0
 245 -30 287 -41 329 -59 c 1
 330 -50 330 -40 330 -30 c 1
 420 -30 l 1
 420 -56 417 -80 411 -103 c 1
 437 -120 460 -139 480 -159 c 1
 480 0 l 1
 480 50 l 1
 480 400 l 2
 480 473 426 505 360 505 c 0
 283 505 230 475 205 438 c 1
210 -180 m 0xf5c0
 257 -180 292 -164 312 -125 c 1
 281 -109 247 -100 210 -100 c 0
 191 -100 160 -107 160 -140 c 0
 160 -173 191 -180 210 -180 c 0xf5c0
EndSplineSet
EndChar

StartChar: uni0E5B
Encoding: 3675 3675 80
Width: 1340
VWidth: 0
Flags: W
HStem: -20 90<279.643 499.875> 150 80<378.254 454.506> 255 90<1037.95 1280> 365 65<293.144 366.835> 530 90<250.379 419.272>
VStem: 60 100<190.163 427.47> 220 70<287.434 362.324> 370 65<287.946 361.835> 490 100<264.435 447.136> 675 90<549.987 580> 925 90<482.856 520>
LayerCount: 2
Fore
SplineSet
330 365 m 0
 308 365 290 347 290 325 c 0
 290 303 308 285 330 285 c 0
 352 285 370 303 370 325 c 0
 370 347 352 365 330 365 c 0
330 430 m 0
 388 430 435 383 435 325 c 0
 435 284 411 248 376 231 c 1
 381 230 385 230 390 230 c 0
 435 230 490 264 490 340 c 0
 490 434 439 530 340 530 c 0
 243 530 160 454 160 300 c 0
 160 162 257 70 390 70 c 0
 585 70 675 256 675 580 c 1
 765 580 l 1
 861 237 l 1
 925 520 l 1
 1015 520 l 1
 1015 385 1035 345 1090 345 c 2
 1280 345 l 1
 1280 255 l 1
 1090 255 l 2
 1030 255 991 272 966 305 c 1
 910 60 l 1
 820 60 l 1
 746 326 l 1
 711 137 620 -20 390 -20 c 0
 180 -20 60 123 60 300 c 0
 60 486 183 620 340 620 c 0
 493 620 590 501 590 340 c 0
 590 233 500 150 390 150 c 0
 285 150 220 232 220 320 c 0
 220 385 267 430 330 430 c 0
EndSplineSet
EndChar

StartChar: uni0E4E
Encoding: 3662 3662 81
Width: 0
VWidth: 0
Flags: W
HStem: 700 90<-402.378 -304.193> 785 20G<-328.5 -304> 1060 90<-332.677 -247.036>
VStem: -500 90<797.622 882.734> -430 90<974.528 1052.67> -240 90<1010 1051.88>
LayerCount: 2
Fore
SplineSet
-290 1150 m 0xac
 -212 1150 -150 1088 -150 1010 c 1
 -240 1010 l 1
 -240 1038 -262 1060 -290 1060 c 0
 -317 1060 -340 1038 -340 1010 c 0xac
 -340 997 -334 985 -326 976 c 1
 -301 970 -278 957 -260 939 c 1
 -324 876 l 1
 -333 885 -346 890 -360 890 c 0
 -387 890 -410 868 -410 840 c 0
 -410 813 -387 790 -360 790 c 0xb4
 -346 790 -333 796 -324 805 c 1x74
 -260 741 l 1
 -286 716 -321 700 -360 700 c 0
 -437 700 -500 763 -500 840 c 0xb4
 -500 895 -468 943 -422 966 c 1
 -427 980 -430 995 -430 1010 c 0
 -430 1088 -367 1150 -290 1150 c 0xac
EndSplineSet
EndChar

StartChar: uni0E4F
Encoding: 3663 3663 82
Width: 780
VWidth: 0
Flags: W
HStem: -20 100<288.444 491.556> 140 90<335.504 444.496> 370 90<335.504 444.496> 520 100<288.444 491.556>
VStem: 70 100<198.444 401.556> 230 90<245.504 354.496> 460 90<245.504 354.496> 610 100<198.444 401.556>
LayerCount: 2
Fore
SplineSet
390 620 m 0
 567 620 710 477 710 300 c 0
 710 123 567 -20 390 -20 c 0
 213 -20 70 123 70 300 c 0
 70 477 213 620 390 620 c 0
390 520 m 0
 268 520 170 422 170 300 c 0
 170 178 268 80 390 80 c 0
 512 80 610 178 610 300 c 0
 610 422 512 520 390 520 c 0
390 460 m 0
 478 460 550 388 550 300 c 0
 550 212 478 140 390 140 c 0
 302 140 230 212 230 300 c 0
 230 388 302 460 390 460 c 0
390 370 m 0
 351 370 320 339 320 300 c 0
 320 261 351 230 390 230 c 0
 429 230 460 261 460 300 c 0
 460 339 429 370 390 370 c 0
EndSplineSet
EndChar

StartChar: uni0E51
Encoding: 3665 3665 83
Width: 800
VWidth: 0
Flags: W
HStem: -60 110<400 494.378> 80 90<235.586 365.53> 360 70<348.969 441.031> 505 115<289.258 503.079>
VStem: 50 140<214.75 408.705> 270 70<259.664 351.031> 450 70<260.393 351.031> 600 150<172.01 404.248>
LayerCount: 2
Fore
SplineSet
395 360 m 0
 365 360 340 335 340 305 c 0
 340 275 365 250 395 250 c 0
 425 250 450 275 450 305 c 0
 450 335 425 360 395 360 c 0
395 430 m 0
 464 430 520 374 520 305 c 0
 520 189 437 80 290 80 c 0
 143 80 50 168 50 300 c 0
 50 477 190 620 400 620 c 0
 610 620 750 477 750 300 c 0
 750 94 614 -60 400 -60 c 1
 400 50 l 1
 510 50 600 139 600 300 c 0
 600 412 531 505 400 505 c 0
 269 505 190 425 190 300 c 0
 190 233 228 170 310 170 c 0
 332 170 350 175 366 183 c 1
 311 197 270 246 270 305 c 0
 270 374 326 430 395 430 c 0
EndSplineSet
EndChar

StartChar: uni0E52
Encoding: 3666 3666 84
Width: 930
VWidth: 0
Flags: W
HStem: 0 120<230 730> 170 70<397.674 483.965> 340 70<395.933 483.965> 515 105<405.04 493.558> 790 20G<40 193.81>
VStem: 80 150<120 765.347> 270 120<275.157 499.473> 490 70<246.035 333.965> 730 150<120 500.783>
LayerCount: 2
Fore
SplineSet
40 810 m 1
 190 810 l 1
 190 810 230 713 230 600 c 2
 230 120 l 1
 730 120 l 1
 730 390 l 2
 730 444 720 500 690 515 c 1
 620 400 l 1
 520 400 l 1
 520 468 488 515 450 515 c 0
 412 515 385 480 385 397 c 1
 401 405 420 410 440 410 c 0
 506 410 560 356 560 290 c 0
 560 224 506 170 440 170 c 0
 339 170 270 277 270 395 c 0
 270 513 339 620 450 620 c 0
 515 620 563 584 591 531 c 1
 635 620 l 1
 690 620 l 1
 799 603 880 538 880 390 c 2
 880 90 l 2
 880 40 835 0 780 0 c 2
 180 0 l 2
 125 0 80 40 80 90 c 2
 80 600 l 2
 80 706 40 810 40 810 c 1
440 340 m 0
 412 340 390 318 390 290 c 0
 390 262 412 240 440 240 c 0
 468 240 490 262 490 290 c 0
 490 318 468 340 440 340 c 0
EndSplineSet
EndChar

StartChar: uni0E54
Encoding: 3668 3668 85
Width: 890
VWidth: 0
Flags: W
HStem: 0 120<303.274 498 596.792 800> 335 75<504.757 595.511> 480 120<303.274 649.714> 790 20G<739.5 890>
VStem: 60 150<205.683 394.317> 415 80<234.473 325.875> 605 75<234.265 325.511> 740 150<697.438 810>
LayerCount: 2
Fore
SplineSet
550 335 m 0
 520 335 495 310 495 280 c 0
 495 250 520 225 550 225 c 0
 580 225 605 250 605 280 c 0
 605 310 580 335 550 335 c 0
550 410 m 0
 622 410 680 352 680 280 c 0
 680 220 640 170 585 155 c 1
 604 139 625 127 644 120 c 1
 800 120 l 1
 800 0 l 1
 400 0 l 2
 177 0 60 127 60 300 c 0
 60 473 177 600 400 600 c 2
 560 600 l 2
 691 600 739 712 740 810 c 1
 890 810 l 1
 890 630 791 480 560 480 c 2
 400 480 l 2
 289 480 210 407 210 300 c 0
 210 193 289 120 400 120 c 2
 498 120 l 1
 472 143 415 201 415 275 c 0
 415 352 473 410 550 410 c 0
EndSplineSet
EndChar

StartChar: uni0E55
Encoding: 3669 3669 86
Width: 890
VWidth: 0
Flags: W
HStem: 0 120<303.274 498 596.792 800> 335 75<504.757 595.511> 480 140<445.957 534.043> 480 120<298.784 381> 720 80<447.092 532.908> 790 20G<739.5 890>
VStem: 60 150<205.683 396.565> 360 80<626.089 712.908> 415 80<234.473 325.875> 540 80<626.147 712.908> 605 75<234.265 325.511> 740 150<697.438 810>
LayerCount: 2
Fore
SplineSet
550 410 m 0xd6d0
 622 410 680 352 680 280 c 0
 680 220 640 170 585 155 c 1
 604 139 625 127 644 120 c 1
 800 120 l 1
 800 0 l 1
 400 0 l 2
 177 0 60 127 60 300 c 0
 60 468 170 593 381 600 c 1
 368 620 360 644 360 670 c 0
 360 742 418 800 490 800 c 0xdb30
 562 800 620 742 620 670 c 0
 620 646 614 624 602 604 c 1
 701 626 739 723 740 810 c 1
 890 810 l 1
 890 630 791 480 560 480 c 2
 400 480 l 2
 289 480 210 407 210 300 c 0
 210 193 289 120 400 120 c 2
 498 120 l 1
 472 143 415 201 415 275 c 0
 415 352 473 410 550 410 c 0xd6d0
550 335 m 0
 520 335 495 310 495 280 c 0xc2b0
 495 250 520 225 550 225 c 0
 580 225 605 250 605 280 c 0
 605 310 580 335 550 335 c 0
490 720 m 0xeb50
 462 720 440 698 440 670 c 0
 440 642 462 620 490 620 c 0
 518 620 540 642 540 670 c 0
 540 698 518 720 490 720 c 0xeb50
EndSplineSet
EndChar

StartChar: uni0E56
Encoding: 3670 3670 87
Width: 800
VWidth: 0
Flags: W
HStem: -20 120<298.107 514.852> 335 75<183.982 275.511> 480 120<228.668 510.938> 790 20G<20 170.5>
VStem: 20 150<666.891 810> 95 80<233.726 326.215> 285 75<233.808 325.511> 600 150<184.705 395.295>
LayerCount: 2
Fore
SplineSet
230 335 m 0xf7
 200 335 175 310 175 280 c 0
 175 250 200 225 230 225 c 0
 260 225 285 250 285 280 c 0
 285 310 260 335 230 335 c 0xf7
230 410 m 0
 302 410 360 352 360 280 c 0
 360 219 318 167 260 154 c 1
 296 114 350 100 410 100 c 0
 538 100 600 180 600 290 c 0
 600 400 538 480 410 480 c 2
 310 480 l 2
 99 480 20 593 20 810 c 1
 170 810 l 1xfb
 171 684 195 600 310 600 c 2
 410 600 l 2
 620 600 750 488 750 290 c 0
 750 92 620 -20 410 -20 c 0
 197 -20 95 113 95 270 c 0
 95 344 157 410 230 410 c 0
EndSplineSet
EndChar

StartChar: uni0E57
Encoding: 3671 3671 88
Width: 1050
VWidth: 0
Flags: W
HStem: -20 80<271.086 370.97> 190 80<268.262 370.97> 500 120<253.081 345.723> 580 20G<860 990>
VStem: 50 150<216.244 434.875> 385 80<74.03 175.97> 640 140<116 464.339> 860 130<156.187 600>
LayerCount: 2
Fore
SplineSet
300 500 m 0xef
 252 500 200 428 200 300 c 0
 200 269 202 240 206 214 c 1
 232 248 274 270 320 270 c 0
 400 270 465 205 465 125 c 0
 465 45 400 -20 320 -20 c 0
 151 -20 50 115 50 300 c 0
 50 485 180 620 300 620 c 0
 376 620 436 571 470 493 c 1
 530 620 l 1
 590 620 l 1xef
 687 599 780 505 780 360 c 2
 780 116 l 1
 833 133 860 170 860 240 c 2
 860 600 l 1
 990 600 l 1xdf
 990 240 l 2
 990 38 871 -10 640 -10 c 1
 640 100 l 1
 640 360 l 2
 640 410 620 476 590 500 c 1
 500 330 l 1
 380 330 l 1
 380 457 339 500 300 500 c 0xef
320 190 m 0
 284 190 255 161 255 125 c 0
 255 89 284 60 320 60 c 0
 356 60 385 89 385 125 c 0
 385 161 356 190 320 190 c 0
EndSplineSet
EndChar

StartChar: uni0E58
Encoding: 3672 3672 89
Width: 910
VWidth: 0
Flags: W
HStem: -20 105<573.958 708.726> 150 75<675.22 728.289> 335 75<674.489 766.091> 480 120<292.599 652.744> 790 20G<729.5 880>
VStem: 50 150<196.598 391.208> 590 75<234.489 325.511> 730 150<689.926 810> 775 85<233.758 325.213>
LayerCount: 2
Fore
SplineSet
720 335 m 0xfe80
 690 335 665 310 665 280 c 0
 665 250 690 225 720 225 c 0
 750 225 775 250 775 280 c 0
 775 310 750 335 720 335 c 0xfe80
720 410 m 0
 800 410 860 339 860 265 c 2
 860 200 l 2xfe80
 860 76 766 -20 640 -20 c 0
 537 -20 465 33 429 120 c 1
 370 -10 l 1
 171 -10 50 127 50 300 c 0
 50 473 190 600 390 600 c 2
 560 600 l 2
 691 600 729 712 730 810 c 1
 880 810 l 1xff
 880 630 775 480 560 480 c 2
 390 480 l 2
 272 480 200 393 200 300 c 0
 200 221 239 139 322 116 c 1
 400 280 l 1
 460 280 l 1
 510 280 l 1
 510 155 574 85 640 85 c 0
 689 85 724 111 729 150 c 1
 726 150 723 150 720 150 c 0
 648 150 590 208 590 280 c 0
 590 352 648 410 720 410 c 0
EndSplineSet
EndChar

StartChar: uni0E59
Encoding: 3673 3673 90
Width: 960
VWidth: 0
Flags: W
HStem: -20 80<271.086 370.97> 0 21G<566.429 695> 190 80<268.262 370.97> 500 120<253.081 361.965> 790 20G<800 940>
VStem: 50 150<216.244 434.875> 385 80<74.03 175.97> 800 140<425.384 810>
LayerCount: 2
Fore
SplineSet
320 190 m 0xbf
 284 190 255 161 255 125 c 0
 255 89 284 60 320 60 c 0
 356 60 385 89 385 125 c 0
 385 161 356 190 320 190 c 0xbf
800 540 m 2
 800 810 l 1
 940 810 l 1
 940 540 l 2
 940 353 864 270 650 270 c 1
 650 300 l 1
 650 380 l 2
 650 449 625 488 590 500 c 1
 527 392 l 1
 695 0 l 1
 575 0 l 1x7f
 395 420 l 2
 373 471 347 500 300 500 c 0
 252 500 200 428 200 300 c 0
 200 269 202 240 206 214 c 1
 232 248 274 270 320 270 c 0
 400 270 465 205 465 125 c 0
 465 45 400 -20 320 -20 c 0
 151 -20 50 115 50 300 c 0
 50 485 180 620 300 620 c 0
 379 620 436 581 475 516 c 1
 535 620 l 1
 590 620 l 1
 685 598 758 531 776 423 c 1
 794 448 800 487 800 540 c 2
EndSplineSet
EndChar

StartChar: uni0E4A
Encoding: 3658 3658 91
Width: 0
VWidth: 0
Flags: W
HStem: 1026 50<-349.203 -300.812> 1030 60<-200 -184.207> 1126 50<-336.814 -301.614> 1210 66<-333.874 -278.285>
VStem: -420 70<1076.52 1175.44> -300 50<1076.12 1125.18> -180 80<1129.88 1208.81> -86 116<1130.29 1256>
LayerCount: 2
Fore
SplineSet
-326 1126 m 0xbf
 -339 1126 -350 1114 -350 1100 c 0
 -350 1087 -339 1076 -326 1076 c 0
 -312 1076 -300 1087 -300 1100 c 0
 -300 1114 -312 1126 -326 1126 c 0xbf
-200 1210 m 1
 -226 1176 l 1
 -276 1176 l 1
 -278 1188 -286 1210 -306 1210 c 0
 -322 1210 -332 1193 -337 1175 c 1
 -333 1175 -329 1176 -326 1176 c 0
 -284 1176 -250 1142 -250 1100 c 0
 -250 1059 -284 1026 -326 1026 c 0xbf
 -390 1026 -420 1090 -420 1150 c 0
 -420 1211 -371 1276 -316 1276 c 0
 -277 1276 -254 1253 -241 1233 c 1
 -216 1276 l 1
 -200 1276 l 2
 -145 1276 -100 1216 -100 1156 c 0
 -100 1147 -101 1138 -103 1129 c 1
 -92 1145 -86 1181 -86 1256 c 1
 30 1256 l 1
 30 1112 -28 1030 -200 1030 c 1
 -200 1090 l 1x7f
 -187 1090 -180 1116 -180 1156 c 0
 -180 1181 -188 1205 -200 1210 c 1
EndSplineSet
Substitution2: "Thai Tone & Vowel Above-Narrow" uni0E4A.narrow
Position2: "Nikhahit & Tone High-Left" dx=-190 dy=0 dh=0 dv=0
Position2: "Mai Han-Akat & Tone High-Left" dx=-260 dy=0 dh=0 dv=0
Position2: "Tone High-Left" dx=-180 dy=0 dh=0 dv=0
MultipleSubs2: "Tone High-Low" uni0E4A.low
EndChar

StartChar: uni0E3F
Encoding: 3647 3647 92
Width: 780
VWidth: 0
Flags: W
HStem: 0 120<230 320 440 528.14> 355 120<230 494.811> 680 120<230 320 440 490.76>
VStem: 70 160<120 355 475 680> 320 120<-150 0 800 950> 530 160<509.954 645.294> 570 160<157.986 310.459>
LayerCount: 2
Fore
SplineSet
420 120 m 2xfa
 495 120 570 136 570 230 c 0
 570 319 510 355 410 355 c 2
 230 355 l 1
 230 120 l 1
 420 120 l 2xfa
380 680 m 2
 230 680 l 1
 230 475 l 1
 410 475 l 2
 493 475 530 524 530 580 c 0xfc
 530 642 490 680 380 680 c 2
320 950 m 1
 440 950 l 1
 440 800 l 1
 633 796 690 686 690 580 c 0xfc
 690 524 664 467 614 424 c 1
 685 381 730 313 730 230 c 0xfa
 730 83 633 0 480 0 c 2
 440 0 l 1
 440 -150 l 1
 320 -150 l 1
 320 0 l 1
 70 0 l 1
 70 800 l 1
 320 800 l 1
 320 950 l 1
EndSplineSet
EndChar

StartChar: uni0E11
Encoding: 3601 3601 93
Width: 770
VWidth: 0
Flags: W
HStem: 0 21G<220 380 560 710> 300 55<105.203 184.708> 445 55<105.483 184.708> 460 150<492.968 599.708> 550 60<119.942 204.146>
VStem: 30 70<360.419 485.589> 190 55<360.292 439.708> 220 160<0 272.344> 560 150<0 456.216>
LayerCount: 2
Fore
SplineSet
145 445 m 0xe680
 120 445 100 425 100 400 c 0
 100 375 120 355 145 355 c 0
 170 355 190 375 190 400 c 0
 190 425 170 445 145 445 c 0xe680
165 610 m 0xee80
 206 610 232 588 249 561 c 1
 271 610 l 1
 314 610 l 1xee80
 360 596 407 560 423 499 c 1
 458 560 504 610 565 610 c 0
 643 610 710 562 710 410 c 2
 710 0 l 1
 560 0 l 1
 560 410 l 2
 560 437 550 460 520 460 c 0
 453 460 402 268 380 180 c 1
 380 0 l 1
 220 0 l 1
 220 180 l 1
 220 200 l 2xd580
 220 307 335 365 335 450 c 0
 335 489 330 523 303 550 c 1
 270 485 l 1
 215 485 l 1
 215 512 198 550 165 550 c 0
 133 550 114 525 105 492 c 1
 117 497 131 500 145 500 c 0
 200 500 245 455 245 400 c 0
 245 345 200 300 145 300 c 0
 76 300 30 362 30 440 c 0
 30 508 71 610 165 610 c 0xee80
EndSplineSet
EndChar

StartChar: uni0E12
Encoding: 3602 3602 94
Width: 930
VWidth: 0
Flags: W
HStem: -20 75<474.489 565.511> 355 45<292.158 367.842> 600 0G<205.5 264.231 395.769 454.5 720 870>
VStem: 50 150<199.173 493.188> 80 140<112.426 333.795> 240 45<271.641 347.842> 375 45<271.504 347.842> 390 75<64.4892 156.461> 460 150<216.08 492.949> 575 75<65.2203 115.562> 720 150<131 600>
LayerCount: 2
Fore
SplineSet
330 400 m 0xec20
 380 400 420 360 420 310 c 0
 420 169 240 74 240 -10 c 1
 240 -10 61 -6 60 30 c 1
 60 30 80 79 80 140 c 0xee20
 80 242 50 275 50 410 c 0
 50 554 176 620 235 620 c 1
 330 555 l 1
 425 620 l 1
 484 620 610 554 610 410 c 2
 610 229 l 1xf4a0
 659 209 695 172 720 131 c 1
 720 600 l 1
 870 600 l 1
 870 60 l 2
 870 15 807 -10 710 -10 c 1
 699 31 682 80 650 116 c 1
 650 114 650 112 650 110 c 0
 650 38 592 -20 520 -20 c 0
 448 -20 390 38 390 110 c 0xe560
 390 160 418 204 460 225 c 1
 460 410 l 2
 460 487 415 510 415 510 c 1
 330 455 l 1
 245 510 l 1
 245 510 200 487 200 410 c 0xf4a0
 200 283 219 212 220 111 c 1
 253 146 294 178 320 221 c 1
 275 226 240 264 240 310 c 0
 240 360 280 400 330 400 c 0xec20
330 355 m 0
 305 355 285 335 285 310 c 0
 285 285 305 265 330 265 c 0
 355 265 375 285 375 310 c 0
 375 335 355 355 330 355 c 0
520 165 m 0
 490 165 465 140 465 110 c 0
 465 80 490 55 520 55 c 0
 550 55 575 80 575 110 c 0xe560
 575 140 550 165 520 165 c 0
EndSplineSet
EndChar

StartChar: uni0E0C
Encoding: 3596 3596 95
Width: 930
VWidth: 0
Flags: W
HStem: -20 75<474.489 565.511> -10 80<184.668 265.332> 505 115<232.984 422.87> 580 20G<720 870>
VStem: 100 150<229.633 349.375> 100 80<74.9226 155.588> 270 80<74.6675 155.453> 390 75<64.4892 156.461> 460 150<216.08 470.805> 575 75<65.2203 115.562> 720 150<131 600>
LayerCount: 2
Fore
SplineSet
100 115 m 2x6620
 100 270 l 2
 100 342 139 372 162 383 c 1
 50 420 l 1
 70 493 161 620 340 620 c 0x6a20
 491 620 610 536 610 400 c 2
 610 229 l 1
 659 209 695 172 720 131 c 1
 720 600 l 1
 870 600 l 1
 870 60 l 2
 870 15 807 -10 710 -10 c 1x5aa0
 699 31 682 80 650 116 c 1
 650 114 650 112 650 110 c 0
 650 38 592 -20 520 -20 c 0
 448 -20 390 38 390 110 c 0x8360
 390 160 418 204 460 225 c 1
 460 400 l 2
 460 473 406 505 340 505 c 0
 262 505 210 474 185 437 c 1
 320 400 l 1
 320 380 l 1
 320 380 250 363 250 270 c 2
 250 238 l 1xaaa0
 307 226 350 175 350 115 c 0
 350 46 294 -10 225 -10 c 0
 156 -10 100 46 100 115 c 2x6620
225 160 m 0
 200 160 180 140 180 115 c 0x4620
 180 90 200 70 225 70 c 0
 250 70 270 90 270 115 c 0
 270 140 250 160 225 160 c 0
520 165 m 0
 490 165 465 140 465 110 c 0
 465 80 490 55 520 55 c 0
 550 55 575 80 575 110 c 0x8360
 575 140 550 165 520 165 c 0
EndSplineSet
EndChar

StartChar: uni0E09
Encoding: 3593 3593 96
Width: 670
VWidth: 0
Flags: W
HStem: -20 85<444.698 535.51> 305 75<120.515 199.485> 500 120<224.08 415.92>
VStem: 40 75<219.745 299.484> 205 75<219.412 298.381> 440 150<252.551 476.359> 545 85<74.4899 165.867>
LayerCount: 2
Fore
SplineSet
490 175 m 0xfa
 460 175 435 150 435 120 c 0
 435 90 460 65 490 65 c 0
 520 65 545 90 545 120 c 0
 545 150 520 175 490 175 c 0xfa
160 305 m 0
 135 305 115 285 115 260 c 0
 115 235 135 215 160 215 c 0
 185 215 205 235 205 260 c 0
 205 285 185 305 160 305 c 0
351 100 m 1
 310 48 290 -10 290 -10 c 1
 194 -10 130 15 130 60 c 2
 130 144 l 1
 78 157 40 204 40 260 c 0
 40 326 94 380 160 380 c 0
 226 380 280 326 280 260 c 2
 280 128 l 1
 317 185 372 241 440 262 c 1
 440 420 l 2
 440 471 404 500 320 500 c 0
 236 500 200 471 200 420 c 1
 50 420 l 1
 50 535 153 620 320 620 c 0
 487 620 590 535 590 420 c 2
 590 240 l 1xfc
 573 233 l 1
 607 208 630 166 630 120 c 0
 630 43 567 -20 490 -20 c 0
 419 -20 361 32 351 100 c 1
EndSplineSet
EndChar

StartChar: uni0E0A.alt
Encoding: 3681 3681 97
Width: 680
VWidth: 0
Flags: W
HStem: -20 120<321.902 438.098> 335 55<94.4233 174.708> 530 120<551.427 680> 535 75<171.152 271.324>
VStem: 30 60<394.469 474.935> 160 150<114.424 277.746> 180 55<395.292 475.189> 450 150<114.424 397.858>
LayerCount: 2
Fore
SplineSet
135 480 m 0xcb
 110 480 90 460 90 435 c 0
 90 410 110 390 135 390 c 0
 160 390 180 410 180 435 c 0
 180 460 160 480 135 480 c 0xcb
446 464 m 1
 505 442 600 401 600 360 c 2
 600 160 l 2
 600 92 568 -20 380 -20 c 0
 192 -20 160 92 160 160 c 2
 160 200 l 2xed
 160 311 290 340 290 450 c 0
 290 499 265 535 210 535 c 0
 196 535 182 533 169 529 c 1
 207 515 235 478 235 435 c 0
 235 380 190 335 135 335 c 0
 72 335 30 385 30 450 c 0
 30 538 107 610 210 610 c 0xdb
 305 610 364 555 383 493 c 1
 435 568 543 650 680 650 c 1
 680 530 l 1xeb
 548 530 475 492 446 464 c 1
390 425 m 1
 389 425 l 1
 379 326 310 310 310 200 c 2
 310 160 l 2
 310 120 341 100 380 100 c 0
 419 100 450 120 450 160 c 2
 450 360 l 2
 450 380 418 406 390 425 c 1
EndSplineSet
EndChar

StartChar: uni0E0B.alt
Encoding: 3682 3682 98
Width: 710
VWidth: 0
Flags: W
HStem: -20 120<351.902 468.098> 300 55<105.203 184.708> 445 55<105.483 184.708> 530 120<581.427 710> 550 60<119.942 204.146>
VStem: 30 70<360.419 485.589> 190 150<114.424 276.318> 190 55<360.292 439.708> 480 150<114.424 399.688>
LayerCount: 2
Fore
SplineSet
270 485 m 1xee80
 215 485 l 1
 215 512 198 550 165 550 c 0
 133 550 114 525 105 492 c 1
 117 497 131 500 145 500 c 0
 200 500 245 455 245 400 c 0
 245 345 200 300 145 300 c 0
 76 300 30 362 30 440 c 0
 30 508 71 610 165 610 c 0
 206 610 232 588 249 561 c 1
 271 610 l 1
 314 610 l 1xed80
 358 597 404 562 422 505 c 1
 476 576 580 650 710 650 c 1
 710 530 l 1xf580
 578 530 505 492 476 464 c 1
 535 442 630 401 630 360 c 2
 630 160 l 2
 630 92 598 -20 410 -20 c 0
 222 -20 190 92 190 160 c 2
 190 200 l 2
 190 307 335 365 335 450 c 0
 335 489 330 523 303 550 c 1
 270 485 l 1xee80
145 445 m 0
 120 445 100 425 100 400 c 0
 100 375 120 355 145 355 c 0
 170 355 190 375 190 400 c 0
 190 425 170 445 145 445 c 0
428 420 m 1
 415 326 340 300 340 200 c 2
 340 160 l 2xe680
 340 120 371 100 410 100 c 0
 449 100 480 120 480 160 c 2
 480 360 l 2
 480 378 454 402 428 420 c 1
EndSplineSet
EndChar

StartChar: uni0E28.alt
Encoding: 3683 3683 99
Width: 680
VWidth: 0
Flags: W
HStem: 0 21G<460 610> 220 45<291.646 367.842> 355 45<291.405 367.842> 510 110<243.51 416.939> 560 110<593.6 690>
VStem: 50 150<303.756 467.708> 60 170<17.9453 137.15> 80 150<3.90926 255.112> 375 45<272.158 347.842> 460 150<0 466.745>
LayerCount: 2
Fore
SplineSet
330 400 m 0xf4c0
 380 400 420 360 420 310 c 0
 420 260 380 220 330 220 c 0
 300 220 273 235 257 257 c 1
 237 217 230 159 230 100 c 2xf2c0
 230 -10 l 1xf1c0
 230 -10 61 -6 60 30 c 1xf2c0
 60 30 80 79 80 140 c 0xf1c0
 80 242 50 255 50 390 c 0
 50 516 147 620 330 620 c 0xf4c0
 400 620 458 605 502 579 c 1
 538 624 614 670 690 670 c 1
 690 560 l 1xecc0
 631 560 594 541 571 517 c 1
 597 480 610 437 610 390 c 2
 610 0 l 1
 460 0 l 1
 460 390 l 2
 460 473 399 510 330 510 c 0
 261 510 200 473 200 390 c 0
 200 356 202 328 205 302 c 1
 229 358 271 400 330 400 c 0xf4c0
330 355 m 0
 305 355 285 335 285 310 c 0
 285 285 305 265 330 265 c 0
 355 265 375 285 375 310 c 0
 375 335 355 355 330 355 c 0
EndSplineSet
EndChar

StartChar: uni0E2A.alt
Encoding: 3684 3684 100
Width: 660
VWidth: 0
Flags: W
HStem: -20 75<169.774 249.485> 145 75<169.317 249.485> 275 95<196.522 366.242> 500 120<234.031 405.537> 560 110<562.252 660>
VStem: 50 115<61.8129 206.508> 255 75<60.5155 139.485> 420 160<17.9453 229.937> 430 150<288 474.106>
LayerCount: 2
Fore
SplineSet
210 220 m 0xef
 276 220 330 166 330 100 c 0
 330 34 276 -20 210 -20 c 0
 122 -20 50 54 50 170 c 0
 50 269 127 370 260 370 c 0
 343 370 397 334 430 288 c 1
 430 420 l 2
 430 471 384 500 320 500 c 0
 256 500 210 471 210 420 c 1
 60 420 l 1
 60 535 153 620 320 620 c 0xf680
 384 620 437 608 478 586 c 1
 516 628 588 670 660 670 c 1
 660 560 l 1
 607 560 572 545 549 524 c 1
 569 495 580 459 580 420 c 2xee80
 580 30 l 2
 580 -6 420 -10 420 -10 c 1
 420 160 l 2
 420 221 369 275 280 275 c 0
 230 275 186 254 168 212 c 1
 181 217 195 220 210 220 c 0xef
210 145 m 0
 185 145 165 125 165 100 c 0
 165 75 185 55 210 55 c 0
 235 55 255 75 255 100 c 0
 255 125 235 145 210 145 c 0
EndSplineSet
EndChar

StartChar: uni0E2E.alt
Encoding: 3686 3686 101
Width: 660
VWidth: 0
Flags: W
HStem: -20 110<228.243 405.009> 305 75<150.515 229.485> 500 120<225.541 407.305> 560 110<561.402 660>
VStem: 70 75<219.412 298.381> 235 75<220.244 299.484> 430 150<117.412 475.375>
LayerCount: 2
Fore
SplineSet
190 380 m 0xde
 256 380 310 326 310 260 c 0
 310 202 268 153 213 142 c 1
 225 96 271 90 325 90 c 0
 388 90 430 119 430 170 c 2
 430 420 l 2
 430 471 390 500 315 500 c 0
 240 500 200 471 200 420 c 1
 50 420 l 1
 50 535 148 620 315 620 c 0xee
 380 620 435 607 477 585 c 1
 515 628 587 670 660 670 c 1
 660 560 l 1
 607 560 571 545 548 524 c 1
 569 494 580 459 580 420 c 2
 580 170 l 2
 580 34 470 -20 325 -20 c 0
 180 -20 70 34 70 170 c 2
 70 260 l 2
 70 326 124 380 190 380 c 0xde
190 305 m 0
 165 305 145 285 145 260 c 0
 145 235 165 215 190 215 c 0
 215 215 235 235 235 260 c 0
 235 285 215 305 190 305 c 0
EndSplineSet
EndChar

StartChar: B
Encoding: 66 66 102
Width: 780
VWidth: 0
Flags: W
HStem: 0 120<230 528.14> 355 120<230 494.811> 680 120<230 490.966>
VStem: 70 160<120 355 475 680> 530 160<509.954 645.878> 570 160<157.986 310.459>
AnchorPoint: "diac_top" 360 850 basechar 0
AnchorPoint: "cedilla" 377.004 40 basechar 0
AnchorPoint: "ogonek" 377.004 40 basechar 0
AnchorPoint: "diac_bottom" 338.744 -50 basechar 0
LayerCount: 2
Fore
SplineSet
420 120 m 2xf4
 495 120 570 136 570 230 c 0
 570 319 510 355 410 355 c 2
 230 355 l 1
 230 120 l 1
 420 120 l 2xf4
480 0 m 2
 70 0 l 1
 70 800 l 1
 430 800 l 2
 631 800 690 688 690 580 c 0xf8
 690 524 664 467 614 424 c 1
 685 381 730 313 730 230 c 0
 730 83 633 0 480 0 c 2
380 680 m 2
 230 680 l 1
 230 475 l 1
 410 475 l 2
 493 475 530 524 530 580 c 0
 530 642 490 680 380 680 c 2
EndSplineSet
EndChar

StartChar: period
Encoding: 46 46 103
Width: 320
VWidth: 0
Flags: W
HStem: 0 200<92.4561 227.544>
VStem: 60 200<32.4561 167.544>
LayerCount: 2
Fore
SplineSet
260 100 m 0
 260 44 216 0 160 0 c 0
 104 0 60 44 60 100 c 0
 60 156 104 200 160 200 c 0
 216 200 260 156 260 100 c 0
EndSplineSet
EndChar

StartChar: x
Encoding: 120 120 104
Width: 650
VWidth: 0
Flags: W
HStem: 0 21G<0 193.81 456.19 650> 580 20G<30 222.105 427.895 620>
AnchorPoint: "diac_top" 325 650 basechar 0
AnchorPoint: "cedilla" 100 40 basechar 0
AnchorPoint: "diac_bottom" 325 -50 basechar 0
LayerCount: 2
Fore
SplineSet
30 600 m 1
 210 600 l 1
 325 410 l 1
 440 600 l 1
 620 600 l 1
 410 310 l 1
 650 0 l 1
 470 0 l 1
 325 210 l 1
 180 0 l 1
 0 0 l 1
 240 310 l 1
 30 600 l 1
EndSplineSet
EndChar

StartChar: i
Encoding: 105 105 105
Width: 320
VWidth: 0
Flags: W
HStem: 0 21G<80 240> 580 20G<80 240> 680 200<92.4561 227.544>
VStem: 60 200<712.456 847.544> 80 160<0 600>
AnchorPoint: "diac_bottom" 160 -50 basechar 0
AnchorPoint: "ogonek" 170 40 basechar 0
AnchorPoint: "cedilla" 177.004 40 basechar 0
LayerCount: 2
Fore
SplineSet
80 600 m 1xe8
 240 600 l 1
 240 0 l 1
 80 0 l 1
 80 600 l 1xe8
260 780 m 0xf0
 260 724 216 680 160 680 c 0
 104 680 60 724 60 780 c 0
 60 836 104 880 160 880 c 0
 216 880 260 836 260 780 c 0xf0
EndSplineSet
EndChar

StartChar: o
Encoding: 111 111 106
Width: 660
VWidth: 0
Flags: W
HStem: -20 120<243.552 416.448> 500 120<245.502 414.498>
VStem: 40 160<144.041 452.567> 460 160<144.041 452.567>
AnchorPoint: "diac_top" 330 650 basechar 0
AnchorPoint: "ogonek" 350 40 basechar 0
AnchorPoint: "cedilla" 340 40 basechar 0
AnchorPoint: "diac_bottom" 330 -50 basechar 0
LayerCount: 2
Fore
SplineSet
330 620 m 0
 504 620 620 508 620 350 c 2
 620 230 l 2
 620 77 504 -20 330 -20 c 0
 156 -20 40 77 40 230 c 2
 40 350 l 2
 40 508 156 620 330 620 c 0
330 500 m 0
 265 500 200 469 200 350 c 2
 200 230 l 2
 200 131 261 100 330 100 c 0
 399 100 460 131 460 230 c 2
 460 350 l 2
 460 469 395 500 330 500 c 0
EndSplineSet
EndChar

StartChar: O
Encoding: 79 79 107
Width: 800
VWidth: 0
Flags: W
HStem: -20 120<295.796 504.204> 700 120<297.729 502.271>
VStem: 50 160<184.731 611.28> 590 160<184.731 611.667>
AnchorPoint: "ring_above" 400 750 basechar 0
AnchorPoint: "diac_top" 400 850 basechar 0
AnchorPoint: "ogonek" 430 40 basechar 0
AnchorPoint: "cedilla" 420 40 basechar 0
AnchorPoint: "diac_bottom" 400 -50 basechar 0
LayerCount: 2
Fore
SplineSet
750 510 m 2
 750 280 l 2
 750 98 607 -20 400 -20 c 0
 193 -20 50 98 50 280 c 2
 50 510 l 2
 50 686 193 820 400 820 c 0
 607 820 750 687 750 510 c 2
590 510 m 2
 590 629 517 700 400 700 c 0
 283 700 210 629 210 510 c 2
 210 280 l 2
 210 170 283 100 400 100 c 0
 517 100 590 170 590 280 c 2
 590 510 l 2
EndSplineSet
EndChar

StartChar: I
Encoding: 73 73 108
Width: 320
VWidth: 0
Flags: W
HStem: 0 21G<80 240> 780 20G<80 240>
VStem: 80 160<0 800>
AnchorPoint: "diac_top" 160 850 basechar 0
AnchorPoint: "hook_above" 160 850 basechar 0
AnchorPoint: "ogonek" 170 40 basechar 0
AnchorPoint: "cedilla" 177.004 40 basechar 0
AnchorPoint: "diac_bottom" 160 -50 basechar 0
LayerCount: 2
Fore
SplineSet
80 800 m 1
 240 800 l 1
 240 0 l 1
 80 0 l 1
 80 800 l 1
EndSplineSet
EndChar

StartChar: X
Encoding: 88 88 109
Width: 770
VWidth: 0
Flags: W
HStem: 0 21G<-10 193.226 576.774 780> 780 20G<30 232.222 537.778 740>
AnchorPoint: "diac_top" 385 850 basechar 0
AnchorPoint: "ring_above" 385 750 basechar 0
AnchorPoint: "cedilla" 90 40 basechar 0
AnchorPoint: "diac_bottom" 385 -50 basechar 0
LayerCount: 2
Fore
SplineSet
30 800 m 1
 220 800 l 1
 385 530 l 1
 550 800 l 1
 740 800 l 1
 480 420 l 1
 780 0 l 1
 590 0 l 1
 385 310 l 1
 180 0 l 1
 -10 0 l 1
 290 420 l 1
 30 800 l 1
EndSplineSet
EndChar

StartChar: H
Encoding: 72 72 110
Width: 800
VWidth: 0
Flags: W
HStem: 0 21G<70 230 570 730> 340 120<230 570> 780 20G<70 230 570 730>
VStem: 70 160<0 340 460 800> 570 160<0 340 460 800>
AnchorPoint: "diac_bottom" 400 -50 basechar 0
AnchorPoint: "diac_top" 400 850 basechar 0
AnchorPoint: "cedilla" 140 40 basechar 0
LayerCount: 2
Fore
SplineSet
730 0 m 1
 570 0 l 1
 570 340 l 1
 230 340 l 1
 230 0 l 1
 70 0 l 1
 70 340 l 1
 70 460 l 1
 70 800 l 1
 230 800 l 1
 230 460 l 1
 570 460 l 1
 570 800 l 1
 730 800 l 1
 730 460 l 1
 730 340 l 1
 730 0 l 1
EndSplineSet
EndChar

StartChar: P
Encoding: 80 80 111
Width: 740
VWidth: 0
Flags: W
HStem: 0 21G<70 230> 300 120<230 493.103> 680 120<230 493.103>
VStem: 70 160<0 300 420 680> 550 160<469.182 630.818>
AnchorPoint: "diac_bottom" 338.744 -50 basechar 0
AnchorPoint: "diac_top" 360 850 basechar 0
LayerCount: 2
Fore
SplineSet
440 300 m 2
 230 300 l 1
 230 0 l 1
 70 0 l 1
 70 800 l 1
 440 800 l 2
 641 800 710 658 710 550 c 0
 710 442 641 300 440 300 c 2
390 420 m 2
 513 420 550 479 550 550 c 0
 550 621 513 680 390 680 c 2
 230 680 l 1
 230 420 l 1
 390 420 l 2
EndSplineSet
EndChar

StartChar: p
Encoding: 112 112 112
Width: 710
VWidth: 0
Flags: W
HStem: -20 120<289.773 447.756> 500 120<303.675 454.432> 580 20G<70 230>
VStem: 70 160<-270 55 136.826 456.565 536 600> 500 160<157.287 452.764>
AnchorPoint: "diac_bottom" 420 -50 basechar 0
AnchorPoint: "diac_top" 360 650 basechar 0
LayerCount: 2
Fore
SplineSet
230 -270 m 1xd8
 70 -270 l 1
 70 600 l 1
 230 600 l 1xb8
 230 536 l 1
 273 584 333 620 410 620 c 0
 549 620 660 512 660 360 c 2
 660 260 l 2
 660 72 546 -20 390 -20 c 0
 322 -20 269 11 230 55 c 1
 230 -270 l 1xd8
230 411 m 1
 230 176 l 1
 250 131 288 100 360 100 c 0
 462 100 500 165 500 260 c 2
 500 360 l 2
 500 443 462 500 360 500 c 0xd8
 291 500 248 463 230 411 c 1
EndSplineSet
EndChar

StartChar: K
Encoding: 75 75 113
Width: 730
VWidth: 0
Flags: W
HStem: 0 21G<70 230 526.611 730> 360 120<230 283> 780 20G<70 230 495.812 680>
VStem: 70 160<0 360 480 800>
AnchorPoint: "diac_top" 370 850 basechar 0
AnchorPoint: "diac_bottom" 370 -50 basechar 0
LayerCount: 2
Fore
SplineSet
510 800 m 1
 680 800 l 1
 420 440 l 1
 730 0 l 1
 540 0 l 1
 299 360 l 1
 230 360 l 1
 230 0 l 1
 70 0 l 1
 70 800 l 1
 230 800 l 1
 230 480 l 1
 283 480 l 1
 510 800 l 1
EndSplineSet
EndChar

StartChar: j
Encoding: 106 106 114
Width: 340
VWidth: 0
Flags: W
HStem: -290 120<-30 72.2527> 580 20G<100 260> 680 200<112.456 247.544>
VStem: 80 200<712.456 847.544> 100 160<-143.155 600>
AnchorPoint: "diac_bottom" 358.744 -50 basechar 0
LayerCount: 2
Fore
SplineSet
260 -80 m 2xe8
 260 -212 175 -290 -30 -290 c 1
 -30 -170 l 1
 59 -170 100 -141 100 -80 c 2
 100 600 l 1
 260 600 l 1
 260 -80 l 2xe8
280 780 m 0xf0
 280 724 236 680 180 680 c 0
 124 680 80 724 80 780 c 0
 80 836 124 880 180 880 c 0
 236 880 280 836 280 780 c 0xf0
EndSplineSet
EndChar

StartChar: D
Encoding: 68 68 115
Width: 780
VWidth: 0
Flags: W
HStem: 0 120<230 465.823> 680 120<230 460.883>
VStem: 70 160<120 680> 580 160<223.129 573.8>
AnchorPoint: "diac_top" 350 850 basechar 0
AnchorPoint: "ogonek" 370 40 basechar 0
AnchorPoint: "cedilla" 370 40 basechar 0
AnchorPoint: "diac_bottom" 338.744 -50 basechar 0
LayerCount: 2
Fore
SplineSet
310 800 m 2
 581 800 740 684 740 450 c 2
 740 330 l 2
 740 101 591 0 350 0 c 2
 70 0 l 1
 70 800 l 1
 310 800 l 2
310 680 m 2
 230 680 l 1
 230 120 l 1
 340 120 l 2
 459 120 580 173 580 330 c 2
 580 450 l 2
 580 609 501 680 310 680 c 2
EndSplineSet
EndChar

StartChar: E
Encoding: 69 69 116
Width: 670
VWidth: 0
Flags: W
HStem: 0 120<230 630> 340 120<230 590> 680 120<230 620>
VStem: 70 160<120 340 460 680>
CounterMasks: 1 e0
AnchorPoint: "hook_above" 335 850 basechar 0
AnchorPoint: "diac_top" 335 850 basechar 0
AnchorPoint: "cedilla" 360 40 basechar 0
AnchorPoint: "ogonek" 540 40 basechar 0
AnchorPoint: "diac_bottom" 328.744 -50 basechar 0
LayerCount: 2
Fore
SplineSet
230 120 m 1
 630 120 l 1
 630 0 l 1
 230 0 l 1
 70 0 l 1
 70 120 l 1
 70 340 l 1
 70 460 l 1
 70 680 l 1
 70 800 l 1
 230 800 l 1
 620 800 l 1
 620 680 l 1
 230 680 l 1
 230 460 l 1
 590 460 l 1
 590 340 l 1
 230 340 l 1
 230 120 l 1
EndSplineSet
EndChar

StartChar: L
Encoding: 76 76 117
Width: 590
VWidth: 0
Flags: W
HStem: 0 120<230 580> 780 20G<70 230>
VStem: 70 160<120 800>
AnchorPoint: "diac_top" 150 850 basechar 0
AnchorPoint: "diac_bottom" 300 -50 basechar 0
LayerCount: 2
Fore
SplineSet
230 120 m 1
 580 120 l 1
 580 0 l 1
 200 0 l 1
 70 0 l 1
 70 120 l 1
 70 800 l 1
 230 800 l 1
 230 120 l 1
EndSplineSet
EndChar

StartChar: F
Encoding: 70 70 118
Width: 650
VWidth: 0
Flags: W
HStem: 0 21G<70 230> 340 120<230 590> 680 120<230 620>
VStem: 70 160<0 340 460 680>
AnchorPoint: "diac_bottom" 328.744 -50 basechar 0
AnchorPoint: "diac_top" 335 850 basechar 0
LayerCount: 2
Fore
SplineSet
230 0 m 1
 70 0 l 1
 70 340 l 1
 70 460 l 1
 70 680 l 1
 70 800 l 1
 230 800 l 1
 620 800 l 1
 620 680 l 1
 230 680 l 1
 230 460 l 1
 590 460 l 1
 590 340 l 1
 230 340 l 1
 230 0 l 1
EndSplineSet
EndChar

StartChar: J
Encoding: 74 74 119
Width: 540
VWidth: 0
Flags: W
HStem: -20 120<184.098 295.902> 780 20G<310 470>
VStem: 310 160<112.132 800>
AnchorPoint: "diac_top" 390 850 basechar 0
AnchorPoint: "diac_bottom" 240 -50 basechar 0
LayerCount: 2
Fore
SplineSet
240 -20 m 0
 90 -20 10 73 10 170 c 1
 170 170 l 1
 170 124 195 100 240 100 c 0
 285 100 310 124 310 170 c 2
 310 800 l 1
 470 800 l 1
 470 170 l 2
 470 73 390 -20 240 -20 c 0
EndSplineSet
EndChar

StartChar: T
Encoding: 84 84 120
Width: 580
VWidth: 0
Flags: W
HStem: 0 21G<210 370> 680 120<30 210 370 550>
VStem: 210 160<0 680>
AnchorPoint: "diac_top" 290 850 basechar 0
AnchorPoint: "cedilla" 280 40 basechar 0
AnchorPoint: "diac_bottom" 290 -50 basechar 0
LayerCount: 2
Fore
SplineSet
30 680 m 1
 30 800 l 1
 240 800 l 1
 340 800 l 1
 550 800 l 1
 550 680 l 1
 370 680 l 1
 370 0 l 1
 210 0 l 1
 210 680 l 1
 30 680 l 1
EndSplineSet
EndChar

StartChar: N
Encoding: 78 78 121
Width: 800
VWidth: 0
Flags: W
HStem: 0 21G<70 230 557.857 730> 780 20G<70 242.143 570 730>
VStem: 70 160<0 560> 570 160<240 800>
AnchorPoint: "diac_top" 400 850 basechar 0
AnchorPoint: "cedilla" 130 40 basechar 0
AnchorPoint: "diac_bottom" 400 -50 basechar 0
LayerCount: 2
Fore
SplineSet
230 0 m 1
 70 0 l 1
 70 800 l 1
 230 800 l 1
 570 240 l 1
 570 800 l 1
 730 800 l 1
 730 0 l 1
 570 0 l 1
 230 560 l 1
 230 0 l 1
EndSplineSet
EndChar

StartChar: M
Encoding: 77 77 122
Width: 960
VWidth: 0
Flags: W
HStem: 0 21G<70 230 403.651 556.349 730 890> 780 20G<70 286.349 673.651 890>
VStem: 70 160<0 567> 730 160<0 567>
AnchorPoint: "diac_bottom" 480 -50 basechar 0
AnchorPoint: "diac_top" 480 850 basechar 0
AnchorPoint: "cedilla" 470 40 basechar 0
LayerCount: 2
Fore
SplineSet
890 0 m 1
 730 0 l 1
 730 567 l 1
 550 0 l 1
 480 0 l 1
 410 0 l 1
 230 567 l 1
 230 0 l 1
 70 0 l 1
 70 800 l 1
 210 800 l 1
 230 800 l 1
 280 800 l 1
 480 170 l 1
 680 800 l 1
 730 800 l 1
 750 800 l 1
 890 800 l 1
 890 0 l 1
EndSplineSet
EndChar

StartChar: U
Encoding: 85 85 123
Width: 800
VWidth: 0
Flags: W
HStem: -20 120<296.384 503.616> 780 20G<60 220 580 740>
VStem: 60 160<179.904 800> 580 160<179.904 800>
AnchorPoint: "hook_above" 400 850 basechar 0
AnchorPoint: "ring_above" 400 750 basechar 0
AnchorPoint: "diac_top" 400 850 basechar 0
AnchorPoint: "ogonek" 430 40 basechar 0
AnchorPoint: "cedilla" 417.004 40 basechar 0
AnchorPoint: "diac_bottom" 400 -50 basechar 0
LayerCount: 2
Fore
SplineSet
60 800 m 1
 220 800 l 1
 220 280 l 2
 220 141 317 100 400 100 c 0
 483 100 580 141 580 280 c 2
 580 800 l 1
 740 800 l 1
 740 280 l 2
 740 85 593 -20 400 -20 c 0
 207 -20 60 85 60 280 c 2
 60 800 l 1
EndSplineSet
EndChar

StartChar: b
Encoding: 98 98 124
Width: 710
VWidth: 0
Flags: W
HStem: -20 120<303.675 454.432> 0 21G<70 230> 500 120<289.773 447.756> 880 20G<70 230>
VStem: 70 160<0 64 143.435 463.174 545 900> 500 160<147.236 442.713>
AnchorPoint: "diac_top" 410 650 basechar 0
AnchorPoint: "diac_bottom" 360 -50 basechar 0
LayerCount: 2
Fore
SplineSet
230 189 m 1xbc
 248 137 291 100 360 100 c 0
 462 100 500 157 500 240 c 2
 500 340 l 2
 500 435 462 500 360 500 c 0
 288 500 250 469 230 424 c 1
 230 189 l 1xbc
230 64 m 1
 230 0 l 1
 70 0 l 1x7c
 70 900 l 1
 230 900 l 1
 230 545 l 1
 269 589 322 620 390 620 c 0
 546 620 660 528 660 340 c 2
 660 240 l 2
 660 88 549 -20 410 -20 c 0
 333 -20 273 16 230 64 c 1
EndSplineSet
EndChar

StartChar: R
Encoding: 82 82 125
Width: 780
VWidth: 0
Flags: W
HStem: 0 21G<70 230 578.667 770> 300 120<230 420> 680 120<230 493.103>
VStem: 70 160<0 300 420 680> 550 160<468.705 630.818>
AnchorPoint: "diac_top" 360 850 basechar 0
AnchorPoint: "diac_bottom" 380 -50 basechar 0
LayerCount: 2
Fore
SplineSet
390 680 m 2
 230 680 l 1
 230 420 l 1
 390 420 l 2
 513 420 550 479 550 550 c 0
 550 621 513 680 390 680 c 2
440 800 m 2
 641 800 710 658 710 550 c 0
 710 472 674 376 579 329 c 1
 770 0 l 1
 590 0 l 1
 420 300 l 1
 230 300 l 1
 230 0 l 1
 70 0 l 1
 70 800 l 1
 440 800 l 2
EndSplineSet
EndChar

StartChar: V
Encoding: 86 86 126
Width: 800
VWidth: 0
Flags: W
HStem: 0 21G<312 488> 780 20G<0 182.5 617.5 800>
AnchorPoint: "diac_top" 400 850 basechar 0
AnchorPoint: "diac_bottom" 400 -50 basechar 0
LayerCount: 2
Fore
SplineSet
800 800 m 1
 480 0 l 1
 475 0 l 1
 325 0 l 1
 320 0 l 1
 0 800 l 1
 175 800 l 1
 400 200 l 1
 625 800 l 1
 800 800 l 1
EndSplineSet
EndChar

StartChar: Y
Encoding: 89 89 127
Width: 700
VWidth: 0
Flags: W
HStem: 0 21G<270 430> 780 20G<0 189.444 510.556 700>
VStem: 270 160<0 290>
AnchorPoint: "hook_above" 350 850 basechar 0
AnchorPoint: "diac_bottom" 350 -50 basechar 0
AnchorPoint: "ring_above" 350 750 basechar 0
AnchorPoint: "diac_top" 350 850 basechar 0
LayerCount: 2
Fore
SplineSet
0 800 m 1
 180 800 l 1
 350 440 l 1
 520 800 l 1
 700 800 l 1
 430 290 l 1
 430 0 l 1
 270 0 l 1
 270 290 l 1
 0 800 l 1
EndSplineSet
EndChar

StartChar: A
Encoding: 65 65 128
Width: 800
VWidth: 0
Flags: W
HStem: 0 21G<0 182.467 617.533 800> 150 120<276 524> 780 20G<312 488>
AnchorPoint: "diac_top" 400 850 basechar 0
AnchorPoint: "hook_above" 400 850 basechar 0
AnchorPoint: "ring_above" 400 750 basechar 0
AnchorPoint: "diac_bottom" 400 -50 basechar 0
AnchorPoint: "ogonek" 700 40 basechar 0
AnchorPoint: "cedilla" 707.004 40 basechar 0
LayerCount: 2
Fore
SplineSet
800 0 m 1
 625 0 l 1
 569 150 l 1
 231 150 l 1
 175 0 l 1
 0 0 l 1
 320 800 l 1
 325 800 l 1
 475 800 l 1
 480 800 l 1
 800 0 l 1
524 270 m 1
 400 600 l 1
 276 270 l 1
 524 270 l 1
EndSplineSet
EndChar

StartChar: Q
Encoding: 81 81 129
Width: 800
VWidth: 0
Flags: W
HStem: -20 120<295.796 490.216> 700 120<297.729 502.271>
VStem: 50 160<184.731 611.28> 590 160<199.352 611.667>
AnchorPoint: "diac_bottom" 400 -50 basechar 0
AnchorPoint: "diac_top" 400 850 basechar 0
AnchorPoint: "ring_above" 400 750 basechar 0
LayerCount: 2
Fore
SplineSet
750 510 m 2
 750 280 l 2
 750 204 725 139 681 89 c 1
 780 -10 l 1
 700 -90 l 1
 589 21 l 1
 536 -6 472 -20 400 -20 c 0
 193 -20 50 98 50 280 c 2
 50 510 l 2
 50 686 193 820 400 820 c 0
 607 820 750 687 750 510 c 2
370 240 m 1
 451 320 l 1
 573 197 l 1
 584 221 590 249 590 280 c 2
 590 510 l 2
 590 629 517 700 400 700 c 0
 283 700 210 629 210 510 c 2
 210 280 l 2
 210 170 283 100 400 100 c 0
 435 100 466 106 492 118 c 1
 370 240 l 1
EndSplineSet
EndChar

StartChar: Z
Encoding: 90 90 130
Width: 740
VWidth: 0
Flags: W
HStem: 0 130<230 710> 680 120<60 500>
AnchorPoint: "diac_top" 370 850 basechar 0
AnchorPoint: "cedilla" 380 40 basechar 0
AnchorPoint: "diac_bottom" 370 -50 basechar 0
LayerCount: 2
Fore
SplineSet
60 800 m 1
 690 800 l 1
 690 680 l 1
 230 130 l 1
 710 130 l 1
 710 0 l 1
 30 0 l 1
 30 130 l 1
 500 680 l 1
 60 680 l 1
 60 800 l 1
EndSplineSet
EndChar

StartChar: W
Encoding: 87 87 131
Width: 1100
VWidth: 0
Flags: W
HStem: 0 21G<234 385.872 714.128 866> 780 20G<0 175.265 479.134 620.866 924.735 1100>
AnchorPoint: "diac_top" 550 850 basechar 0
AnchorPoint: "diac_bottom" 550 -50 basechar 0
AnchorPoint: "ring_above" 550 750 basechar 0
LayerCount: 2
Fore
SplineSet
1100 800 m 1
 860 0 l 1
 850 0 l 1
 720 0 l 1
 550 579 l 1
 380 0 l 1
 250 0 l 1
 240 0 l 1
 0 800 l 1
 170 800 l 1
 319 234 l 1
 485 800 l 1
 615 800 l 1
 781 234 l 1
 930 800 l 1
 1100 800 l 1
EndSplineSet
EndChar

StartChar: S
Encoding: 83 83 132
Width: 790
VWidth: 0
Flags: W
HStem: -20 120<289.129 514.383> 700 120<288.39 491.61>
VStem: 50 165<164.926 250> 70 160<529.74 650.124> 585 155<161.593 294.298>
AnchorPoint: "diac_bottom" 395 -50 basechar 0
AnchorPoint: "diac_top" 395 850 basechar 0
AnchorPoint: "cedilla" 420 40 basechar 0
LayerCount: 2
Fore
SplineSet
740 230 m 0xd8
 740 78 601 -20 395 -20 c 0
 178 -20 50 88 50 250 c 1
 215 250 l 1xe8
 215 157 287 100 395 100 c 0
 503 100 585 147 585 230 c 0
 585 310 510 344 390 360 c 0
 287 374 70 401 70 585 c 0
 70 689 182 820 390 820 c 0
 598 820 710 689 710 585 c 1
 550 585 l 1
 550 655 478 700 390 700 c 0
 302 700 230 655 230 585 c 0
 230 528 290 496 390 485 c 0
 547 467 740 435 740 230 c 0xd8
EndSplineSet
EndChar

StartChar: u
Encoding: 117 117 133
Width: 660
VWidth: 0
Flags: W
HStem: -20 120<256.279 403.721> 580 20G<60 220 440 600>
VStem: 60 160<134.394 600> 440 160<134.394 600>
AnchorPoint: "diac_top" 330 650 basechar 0
AnchorPoint: "hook_above" 330 680 basechar 0
AnchorPoint: "ring_above" 330 650 basechar 0
AnchorPoint: "ogonek" 350 40 basechar 0
AnchorPoint: "cedilla" 347.004 40 basechar 0
AnchorPoint: "diac_bottom" 308.744 -50 basechar 0
LayerCount: 2
Fore
SplineSet
220 200 m 2
 220 133 274 100 330 100 c 0
 386 100 440 133 440 200 c 2
 440 600 l 1
 600 600 l 1
 600 200 l 2
 600 78 491 -20 330 -20 c 0
 169 -20 60 78 60 200 c 2
 60 600 l 1
 220 600 l 1
 220 200 l 2
EndSplineSet
EndChar

StartChar: C
Encoding: 67 67 134
Width: 810
VWidth: 0
Flags: W
HStem: -20 120<298.443 521.557> 700 120<299.207 520.793>
VStem: 60 160<171.932 627.592> 600 160<171.932 260 530 627.592>
AnchorPoint: "diac_top" 405 850 basechar 0
AnchorPoint: "ogonek" 427.004 40 basechar 0
AnchorPoint: "diac_bottom" 388.744 -50 basechar 0
AnchorPoint: "cedilla" 425 40 basechar 0
LayerCount: 2
Fore
SplineSet
410 820 m 0
 617 820 760 702 760 530 c 1
 600 530 l 1
 600 655 512 700 410 700 c 0
 308 700 220 655 220 530 c 2
 220 260 l 2
 220 145 313 100 410 100 c 0
 507 100 600 145 600 260 c 1
 760 260 l 1
 760 88 617 -20 410 -20 c 0
 203 -20 60 88 60 260 c 2
 60 530 l 2
 60 702 203 820 410 820 c 0
EndSplineSet
EndChar

StartChar: d
Encoding: 100 100 135
Width: 710
VWidth: 0
Flags: W
HStem: -20 120<255.568 406.325> 0 21G<480 640> 500 120<262.244 420.227> 880 20G<480 640>
VStem: 50 160<147.236 442.713> 480 160<0 64 143.435 463.174 545 900>
AnchorPoint: "cedilla" 360 40 basechar 0
AnchorPoint: "diac_bottom" 350 -50 basechar 0
AnchorPoint: "diac_top" 300 650 basechar 0
LayerCount: 2
Fore
SplineSet
480 189 m 1xbc
 480 424 l 1
 460 469 422 500 350 500 c 0
 248 500 210 435 210 340 c 2
 210 240 l 2
 210 157 248 100 350 100 c 0
 419 100 462 137 480 189 c 1xbc
480 64 m 1
 437 16 377 -20 300 -20 c 0xbc
 161 -20 50 88 50 240 c 2
 50 340 l 2
 50 528 164 620 320 620 c 0
 388 620 441 589 480 545 c 1
 480 900 l 1
 640 900 l 1
 640 0 l 1
 480 0 l 1x7c
 480 64 l 1
EndSplineSet
EndChar

StartChar: G
Encoding: 71 71 136
Width: 820
VWidth: 0
Flags: W
HStem: -20 120<298.443 553.899> 300 120<420 600> 700 120<299.207 520.793>
VStem: 60 160<171.932 627.592> 600 160<135.992 300 530 627.592>
AnchorPoint: "diac_bottom" 410 -50 basechar 0
AnchorPoint: "diac_top" 410 850 basechar 0
LayerCount: 2
Fore
SplineSet
420 420 m 1
 760 420 l 1
 760 130 l 1
 673 18 561 -20 410 -20 c 0
 203 -20 60 88 60 260 c 2
 60 530 l 2
 60 702 203 820 410 820 c 0
 617 820 760 702 760 530 c 1
 600 530 l 1
 600 655 512 700 410 700 c 0
 308 700 220 655 220 530 c 2
 220 260 l 2
 220 145 313 100 410 100 c 0
 508 100 565 122 600 157 c 1
 600 300 l 1
 420 300 l 1
 420 420 l 1
EndSplineSet
EndChar

StartChar: g
Encoding: 103 103 137
Width: 710
VWidth: 0
Flags: W
HStem: -290 120<262.365 447.635> -20 120<262.244 420.227> 500 120<255.568 406.325> 580 20G<480 640>
VStem: 50 160<157.287 452.764> 480 160<-136.16 55 136.826 456.565 536 600>
AnchorPoint: "diac_top" 350 650 basechar 0
LayerCount: 2
Fore
SplineSet
70 -80 m 1xdc
 230 -80 l 1
 230 -127 264 -170 355 -170 c 0
 446 -170 480 -127 480 -80 c 2
 480 55 l 1
 441 11 388 -20 320 -20 c 0
 164 -20 50 72 50 260 c 2
 50 360 l 2
 50 512 161 620 300 620 c 0xec
 377 620 437 584 480 536 c 1
 480 600 l 1
 640 600 l 1
 640 -80 l 2
 640 -207 528 -290 355 -290 c 0
 182 -290 70 -207 70 -80 c 1xdc
480 411 m 1
 462 463 419 500 350 500 c 0
 248 500 210 443 210 360 c 2
 210 260 l 2
 210 165 248 100 350 100 c 0
 422 100 460 131 480 176 c 1
 480 411 l 1
EndSplineSet
EndChar

StartChar: l
Encoding: 108 108 138
Width: 350
VWidth: 0
Flags: W
HStem: 880 20G<80 240>
VStem: 80 160<115.82 900>
AnchorPoint: "diac_top" 160 950 basechar 0
AnchorPoint: "diac_bottom" 190 -50 basechar 0
LayerCount: 2
Fore
SplineSet
290 -10 m 1
 144 -10 80 26 80 130 c 2
 80 900 l 1
 240 900 l 1
 240 180 l 2
 240 126 253 110 290 110 c 1
 290 -10 l 1
EndSplineSet
EndChar

StartChar: n
Encoding: 110 110 139
Width: 670
VWidth: 0
Flags: W
HStem: 0 21G<60 220 460 620> 500 120<309.419 433.195> 580 20G<60 220>
VStem: 60 160<0 458.575 519 600> 460 160<0 472.354>
AnchorPoint: "diac_bottom" 340 -50 basechar 0
AnchorPoint: "diac_top" 350 650 basechar 0
AnchorPoint: "cedilla" 120 40 basechar 0
LayerCount: 2
Fore
SplineSet
60 600 m 1xb8
 220 600 l 1xb8
 220 519 l 1
 259 565 323 620 410 620 c 0
 534 620 620 541 620 410 c 2
 620 0 l 1
 460 0 l 1
 460 410 l 2
 460 472 412 500 350 500 c 0xd8
 288 500 246 468 220 426 c 1
 220 0 l 1
 60 0 l 1
 60 600 l 1xb8
EndSplineSet
EndChar

StartChar: m
Encoding: 109 109 140
Width: 970
VWidth: 0
Flags: W
HStem: 0 21G<60 220 410 570 760 920> 500 120<284.043 391.61 623.377 738.013> 580 20G<60 220>
VStem: 60 160<0 473.025 538 600> 410 160<0 457.296> 760 160<0 479.22>
CounterMasks: 1 1c
AnchorPoint: "diac_top" 490 650 basechar 0
AnchorPoint: "diac_bottom" 490 -50 basechar 0
AnchorPoint: "cedilla" 480 40 basechar 0
LayerCount: 2
Fore
SplineSet
60 600 m 1xbc
 220 600 l 1xbc
 220 538 l 1
 257 582 309 620 375 620 c 0
 446 620 506 583 540 525 c 1
 578 569 640 620 720 620 c 0
 842 620 920 532 920 410 c 2
 920 0 l 1
 760 0 l 1
 760 410 l 2
 760 459 738 500 670 500 c 0
 625 500 591 483 565 458 c 1
 568 443 570 427 570 410 c 2
 570 0 l 1
 410 0 l 1
 410 410 l 2
 410 465 388 500 320 500 c 0xdc
 279 500 246 479 220 449 c 1
 220 0 l 1
 60 0 l 1
 60 600 l 1xbc
EndSplineSet
EndChar

StartChar: q
Encoding: 113 113 141
Width: 710
VWidth: 0
Flags: W
HStem: -20 120<262.244 420.227> 500 120<255.568 406.325> 580 20G<480 640>
VStem: 50 160<157.287 452.764> 480 160<-270 55 136.826 456.565 536 600>
AnchorPoint: "diac_top" 340 650 basechar 0
AnchorPoint: "diac_bottom" 240 -50 basechar 0
LayerCount: 2
Fore
SplineSet
480 -270 m 1xb8
 480 55 l 1
 441 11 388 -20 320 -20 c 0
 164 -20 50 72 50 260 c 2
 50 360 l 2
 50 512 161 620 300 620 c 0xd8
 377 620 437 584 480 536 c 1
 480 600 l 1
 640 600 l 1
 640 -270 l 1
 480 -270 l 1xb8
480 411 m 1
 462 463 419 500 350 500 c 0
 248 500 210 443 210 360 c 2
 210 260 l 2
 210 165 248 100 350 100 c 0
 422 100 460 131 480 176 c 1
 480 411 l 1
EndSplineSet
EndChar

StartChar: a
Encoding: 97 97 142
Width: 700
VWidth: 0
Flags: W
HStem: -20 120<236.839 411.583> 270 90<234.413 450> 500 120<256.565 423.435>
VStem: 50 160<128.758 246.027> 450 160<135.628 270 360 471.387>
AnchorPoint: "diac_top" 340 650 basechar 0
AnchorPoint: "hook_above" 340 680 basechar 0
AnchorPoint: "ring_above" 340 650 basechar 0
AnchorPoint: "diac_bottom" 340 -50 basechar 0
AnchorPoint: "ogonek" 590 40 basechar 0
AnchorPoint: "cedilla" 587.004 40 basechar 0
LayerCount: 2
Fore
SplineSet
230 410 m 1
 70 410 l 1
 70 537 181 620 340 620 c 0
 499 620 610 537 610 410 c 2
 610 180 l 2
 610 126 623 110 660 110 c 1
 660 -10 l 1
 564 -10 503 6 473 46 c 1
 429 6 368 -20 290 -20 c 0
 140 -20 50 75 50 185 c 0
 50 316 170 360 300 360 c 2
 450 360 l 1
 450 410 l 2
 450 482 389 500 340 500 c 0
 291 500 230 482 230 410 c 1
450 270 m 1
 310 270 l 2
 244 270 210 237 210 185 c 0
 210 145 241 100 320 100 c 0
 376 100 424 123 450 165 c 1
 450 270 l 1
EndSplineSet
EndChar

StartChar: h
Encoding: 104 104 143
Width: 680
VWidth: 0
Flags: W
HStem: 0 21G<70 230 470 630> 500 120<319.419 443.195> 880 20G<70 230>
VStem: 70 160<0 458.575 519 900> 470 160<0 472.354>
AnchorPoint: "diac_bottom" 350 -50 basechar 0
AnchorPoint: "diac_top" 430 650 basechar 0
AnchorPoint: "cedilla" 140 40 basechar 0
LayerCount: 2
Fore
SplineSet
70 600 m 1
 70 900 l 1
 230 900 l 1
 230 600 l 1
 230 519 l 1
 269 565 333 620 420 620 c 0
 544 620 630 541 630 410 c 2
 630 0 l 1
 470 0 l 1
 470 410 l 2
 470 472 422 500 360 500 c 0
 298 500 256 468 230 426 c 1
 230 0 l 1
 70 0 l 1
 70 600 l 1
EndSplineSet
EndChar

StartChar: e
Encoding: 101 101 144
Width: 680
VWidth: 0
Flags: W
HStem: -20 120<253.175 426.825> 270 90<210 470> 500 120<256.198 423.802>
VStem: 50 160<143.486 270 360 452.094> 470 160<143.486 200 360 452.094>
AnchorPoint: "hook_above" 340 680 basechar 0
AnchorPoint: "diac_bottom" 340 -50 basechar 0
AnchorPoint: "diac_top" 340 650 basechar 0
AnchorPoint: "cedilla" 360 40 basechar 0
AnchorPoint: "ogonek" 360 40 basechar 0
LayerCount: 2
Fore
SplineSet
470 360 m 1
 470 443 429 500 340 500 c 0
 251 500 210 443 210 360 c 1
 470 360 l 1
630 360 m 2
 630 270 l 1
 210 270 l 1
 210 200 l 2
 210 149 262 100 340 100 c 0
 418 100 470 149 470 200 c 1
 630 200 l 1
 630 89 519 -20 340 -20 c 0
 161 -20 50 89 50 200 c 2
 50 360 l 2
 50 482 150 620 340 620 c 0
 530 620 630 482 630 360 c 2
EndSplineSet
EndChar

StartChar: c
Encoding: 99 99 145
Width: 640
VWidth: 0
Flags: W
HStem: -20 120<244.222 418.356> 500 120<254.815 414.496>
VStem: 50 160<136.176 457.106> 450 160<133.939 200 400 467.252>
AnchorPoint: "diac_top" 330 650 basechar 0
AnchorPoint: "diac_bottom" 330 -50 basechar 0
AnchorPoint: "cedilla" 340 40 basechar 0
LayerCount: 2
Fore
SplineSet
335 620 m 0
 491 620 610 528 610 400 c 1
 450 400 l 1
 450 464 401 500 335 500 c 0
 269 500 210 462 210 380 c 2
 210 200 l 2
 210 127 269 100 335 100 c 0
 401 100 450 131 450 200 c 1
 610 200 l 1
 610 62 489 -20 335 -20 c 0
 181 -20 50 52 50 200 c 2
 50 380 l 2
 50 528 179 620 335 620 c 0
EndSplineSet
EndChar

StartChar: w
Encoding: 119 119 146
Width: 850
VWidth: 0
Flags: W
HStem: 0 21G<174.333 335 515 675.667> 580 20G<10 174.686 365.024 484.976 675.314 840>
AnchorPoint: "diac_top" 425 650 basechar 0
AnchorPoint: "diac_bottom" 425 -50 basechar 0
AnchorPoint: "ring_above" 425 650 basechar 0
LayerCount: 2
Fore
SplineSet
680 600 m 1
 840 600 l 1
 670 0 l 1
 630 0 l 1
 540 0 l 1
 520 0 l 1
 425 380 l 1
 330 0 l 1
 310 0 l 1
 220 0 l 1
 180 0 l 1
 10 600 l 1
 170 600 l 1
 267 186 l 1
 370 600 l 1
 480 600 l 1
 583 186 l 1
 680 600 l 1
EndSplineSet
EndChar

StartChar: v
Encoding: 118 118 147
Width: 660
VWidth: 0
Flags: W
HStem: 0 21G<242 418> 580 20G<10 186.993 473.007 650>
AnchorPoint: "diac_bottom" 330 -50 basechar 0
AnchorPoint: "diac_top" 330 650 basechar 0
LayerCount: 2
Fore
SplineSet
480 600 m 1
 650 600 l 1
 410 0 l 1
 390 0 l 1
 270 0 l 1
 250 0 l 1
 10 600 l 1
 180 600 l 1
 330 171 l 1
 480 600 l 1
EndSplineSet
EndChar

StartChar: z
Encoding: 122 122 148
Width: 620
VWidth: 0
Flags: W
HStem: 0 130<210 590> 480 120<50 410>
AnchorPoint: "diac_bottom" 310 -50 basechar 0
AnchorPoint: "diac_top" 310 650 basechar 0
AnchorPoint: "cedilla" 320 40 basechar 0
LayerCount: 2
Fore
SplineSet
50 600 m 1
 580 600 l 1
 580 480 l 1
 210 130 l 1
 590 130 l 1
 590 0 l 1
 30 0 l 1
 30 130 l 1
 410 480 l 1
 50 480 l 1
 50 600 l 1
EndSplineSet
EndChar

StartChar: y
Encoding: 121 121 149
Width: 660
VWidth: 0
Flags: W
HStem: -290 120<70 180.04> 580 20G<10 186.993 473.007 650>
AnchorPoint: "hook_above" 330 680 basechar 0
AnchorPoint: "diac_top" 330 650 basechar 0
AnchorPoint: "diac_bottom" 508.744 -50 basechar 0
AnchorPoint: "ogonek" 298.744 -50 basechar 0
AnchorPoint: "ring_above" 330 650 basechar 0
LayerCount: 2
Fore
SplineSet
480 600 m 1
 650 600 l 1
 410 0 l 1
 340 -180 l 1
 307 -252 256 -290 70 -290 c 1
 70 -170 l 1
 152 -170 172 -164 200 -120 c 1
 250 0 l 1
 10 600 l 1
 180 600 l 1
 330 171 l 1
 480 600 l 1
EndSplineSet
EndChar

StartChar: r
Encoding: 114 114 150
Width: 410
VWidth: 0
Flags: W
HStem: 0 21G<60 220> 480 130<294.697 390> 580 20G<60 220>
VStem: 60 160<0 423.564 517 600>
AnchorPoint: "diac_top" 210 650 basechar 0
AnchorPoint: "diac_bottom" 140 -50 basechar 0
LayerCount: 2
Fore
SplineSet
60 600 m 1xb0
 220 600 l 1xb0
 220 517 l 1
 253 561 308 610 390 610 c 1
 390 480 l 1xd0
 315 480 256 444 220 396 c 1
 220 0 l 1
 60 0 l 1
 60 600 l 1xb0
EndSplineSet
EndChar

StartChar: numbersign
Encoding: 35 35 151
Width: 910
VWidth: 0
Flags: W
HStem: 0 21G<165 298.721 465 598.721> 215 100<50 205 354 505 654 840> 485 100<70 256 405 556 705 860> 780 20G<311.279 445 611.279 745>
LayerCount: 2
Fore
SplineSet
654 315 m 1
 840 315 l 1
 840 215 l 1
 635 215 l 1
 595 0 l 1
 465 0 l 1
 505 215 l 1
 335 215 l 1
 295 0 l 1
 165 0 l 1
 205 215 l 1
 50 215 l 1
 50 315 l 1
 224 315 l 1
 256 485 l 1
 70 485 l 1
 70 585 l 1
 275 585 l 1
 315 800 l 1
 445 800 l 1
 405 585 l 1
 575 585 l 1
 615 800 l 1
 745 800 l 1
 705 585 l 1
 860 585 l 1
 860 485 l 1
 686 485 l 1
 654 315 l 1
524 315 m 1
 556 485 l 1
 386 485 l 1
 354 315 l 1
 524 315 l 1
EndSplineSet
EndChar

StartChar: asterisk
Encoding: 42 42 152
Width: 540
VWidth: 0
Flags: W
HStem: 880 20G<220 320>
VStem: 220 100<720 900>
LayerCount: 2
Fore
SplineSet
457 479 m 1
 376 420 l 1
 270 566 l 1
 164 420 l 1
 83 479 l 1
 189 625 l 1
 18 681 l 1
 49 776 l 1
 220 720 l 1
 220 900 l 1
 320 900 l 1
 320 720 l 1
 491 776 l 1
 522 681 l 1
 351 625 l 1
 457 479 l 1
EndSplineSet
EndChar

StartChar: s
Encoding: 115 115 153
Width: 680
VWidth: 0
Flags: W
HStem: -20 120<240.573 439.427> 500 120<254.816 425.184>
VStem: 70 160<391.687 474.042> 470 160<130.45 222.679>
AnchorPoint: "diac_bottom" 340 -50 basechar 0
AnchorPoint: "diac_top" 340 650 basechar 0
AnchorPoint: "cedilla" 360 40 basechar 0
LayerCount: 2
Fore
SplineSet
50 185 m 1
 210 185 l 1
 210 130 263 100 340 100 c 0
 417 100 470 130 470 185 c 0
 470 227 418 241 340 250 c 0
 232 262 70 282 70 425 c 0
 70 517 161 620 340 620 c 0
 519 620 610 517 610 425 c 1
 450 425 l 1
 450 459 418 500 340 500 c 0
 262 500 230 459 230 425 c 0
 230 393 266 379 340 370 c 0
 463 355 630 348 630 185 c 0
 630 80 534 -20 340 -20 c 0
 146 -20 50 80 50 185 c 1
EndSplineSet
EndChar

StartChar: f
Encoding: 102 102 154
Width: 420
VWidth: 0
Flags: W
HStem: 0 21G<110 270> 480 120<10 110 270 400> 780 120<297.747 400>
VStem: 110 160<0 480 600 753.155>
AnchorPoint: "diac_bottom" 190 -50 basechar 0
AnchorPoint: "diac_top" 290 950 basechar 0
LayerCount: 2
Fore
SplineSet
10 480 m 1
 10 600 l 1
 110 600 l 1
 110 690 l 2
 110 822 195 900 400 900 c 1
 400 780 l 1
 311 780 270 751 270 690 c 2
 270 600 l 1
 400 600 l 1
 400 480 l 1
 270 480 l 1
 270 0 l 1
 110 0 l 1
 110 480 l 1
 10 480 l 1
EndSplineSet
EndChar

StartChar: t
Encoding: 116 116 155
Width: 420
VWidth: 0
Flags: W
HStem: 0 21G<130 290> 480 120<10 130 290 410>
VStem: 130 160<0 480 600 780>
AnchorPoint: "diac_top" 210 890 basechar 0
AnchorPoint: "cedilla" 200 40 basechar 0
AnchorPoint: "diac_bottom" 210 -50 basechar 0
LayerCount: 2
Fore
SplineSet
250 840 m 1
 290 840 l 1
 290 600 l 1
 410 600 l 1
 410 480 l 1
 290 480 l 1
 290 0 l 1
 130 0 l 1
 130 480 l 1
 10 480 l 1
 10 600 l 1
 130 600 l 1
 130 780 l 1
 250 840 l 1
EndSplineSet
EndChar

StartChar: k
Encoding: 107 107 156
Width: 620
VWidth: 0
Flags: W
HStem: 0 21G<70 230 416.868 620> 580 20G<395.674 580> 880 20G<70 230>
VStem: 70 160<0 265 385 900>
AnchorPoint: "diac_top" 390 650 basechar 0
AnchorPoint: "diac_bottom" 320 -50 basechar 0
LayerCount: 2
Fore
SplineSet
410 600 m 1
 580 600 l 1
 385 335 l 1
 620 0 l 1
 430 0 l 1
 256 265 l 1
 230 265 l 1
 230 0 l 1
 70 0 l 1
 70 900 l 1
 230 900 l 1
 230 385 l 1
 256 385 l 1
 410 600 l 1
EndSplineSet
EndChar

StartChar: hyphen
Encoding: 45 45 157
Width: 560
VWidth: 0
Flags: W
HStem: 270 100<50 510>
LayerCount: 2
Fore
SplineSet
50 370 m 1
 510 370 l 1
 510 270 l 1
 50 270 l 1
 50 370 l 1
EndSplineSet
EndChar

StartChar: bar
Encoding: 124 124 158
Width: 320
VWidth: 0
Flags: W
HStem: 880 20G<100 220>
VStem: 100 120<-180 900>
LayerCount: 2
Fore
SplineSet
100 900 m 1
 220 900 l 1
 220 -180 l 1
 100 -180 l 1
 100 900 l 1
EndSplineSet
EndChar

StartChar: slash
Encoding: 47 47 159
Width: 480
VWidth: 0
Flags: W
HStem: 880 20G<314.815 440>
LayerCount: 2
Fore
SplineSet
320 900 m 1
 440 900 l 1
 160 -180 l 1
 40 -180 l 1
 320 900 l 1
EndSplineSet
EndChar

StartChar: colon
Encoding: 58 58 160
Width: 320
VWidth: 0
Flags: W
HStem: 0 200<92.4561 227.544> 420 200<92.4561 227.544>
VStem: 60 200<32.4561 167.544 452.456 587.544>
LayerCount: 2
Fore
SplineSet
260 100 m 0
 260 44 216 0 160 0 c 0
 104 0 60 44 60 100 c 0
 60 156 104 200 160 200 c 0
 216 200 260 156 260 100 c 0
260 520 m 0
 260 464 216 420 160 420 c 0
 104 420 60 464 60 520 c 0
 60 576 104 620 160 620 c 0
 216 620 260 576 260 520 c 0
EndSplineSet
EndChar

StartChar: backslash
Encoding: 92 92 161
Width: 480
VWidth: 0
Flags: W
HStem: 880 20G<40 165.185>
LayerCount: 2
Fore
SplineSet
160 900 m 1
 440 -180 l 1
 320 -180 l 1
 40 900 l 1
 160 900 l 1
EndSplineSet
EndChar

StartChar: seven
Encoding: 55 55 162
Width: 660
Flags: W
HStem: 0 21G<210 370> 680 120<60 430>
VStem: 210 160<0 355.085>
LayerCount: 2
Fore
SplineSet
210 0 m 1
 210 210 l 2
 210 510 430 680 430 680 c 1
 60 680 l 1
 60 800 l 1
 600 800 l 1
 600 680 l 1
 600 680 385 516 370 210 c 1
 370 0 l 1
 210 0 l 1
EndSplineSet
EndChar

StartChar: exclam
Encoding: 33 33 163
Width: 320
VWidth: 0
Flags: W
HStem: 0 200<92.0592 227.941> 880 20G<80 240>
VStem: 60 200<32.0592 167.941> 80 160<360 900>
LayerCount: 2
Fore
SplineSet
260 100 m 0xe0
 260 43 217 0 160 0 c 0
 103 0 60 43 60 100 c 0
 60 157 103 200 160 200 c 0
 217 200 260 157 260 100 c 0xe0
80 900 m 1xd0
 240 900 l 1
 240 360 l 1
 200 260 l 1
 120 260 l 1
 80 360 l 1
 80 900 l 1xd0
EndSplineSet
EndChar

StartChar: quotedbl
Encoding: 34 34 164
Width: 440
VWidth: 0
Flags: W
HStem: 560 240<70 170 270 370>
VStem: 70 100<560 660.8> 270 100<560 660.8>
LayerCount: 2
Fore
SplineSet
50 800 m 1
 190 800 l 1
 170 560 l 1
 70 560 l 1
 50 800 l 1
250 800 m 1
 390 800 l 1
 370 560 l 1
 270 560 l 1
 250 800 l 1
EndSplineSet
EndChar

StartChar: dollar
Encoding: 36 36 165
Width: 790
VWidth: 0
Flags: W
HStem: -17 117<287.063 335 455 516.916> 700 117<288.489 335 455 478>
VStem: 50 165<166.706 250> 70 160<529.74 649.299> 335 120<-150 -14.1117 813.856 950> 585 155<161.867 294.298>
LayerCount: 2
Fore
SplineSet
335 950 m 1xdc
 455 950 l 1
 455 815 l 1
 621 792 710 678 710 585 c 1
 550 585 l 1
 550 655 478 700 390 700 c 0
 302 700 230 655 230 585 c 0xdc
 230 528 290 496 390 485 c 0
 547 467 740 435 740 230 c 0
 740 93 628 0 455 -17 c 1
 455 -150 l 1
 335 -150 l 1
 335 -17 l 1
 155 1 50 104 50 250 c 1
 215 250 l 1xec
 215 157 287 100 395 100 c 0
 503 100 585 147 585 230 c 0
 585 310 510 344 390 360 c 0
 287 374 70 401 70 585 c 0
 70 679 162 796 335 817 c 1
 335 950 l 1xdc
EndSplineSet
EndChar

StartChar: percent
Encoding: 37 37 166
Width: 840
VWidth: 0
Flags: W
HStem: -10 100<594.631 667.882> 0 21G<70 224> 250 100<594.631 667.882> 450 100<174.631 247.882> 710 100<174.631 247.882> 780 20G<616 770>
VStem: 50 110<560.005 699.995> 260 110<559.069 700.931> 470 110<100.005 239.995> 680 110<99.0687 240.931>
LayerCount: 2
Fore
SplineSet
630 800 m 1x77c0
 770 800 l 1
 210 0 l 1
 70 0 l 1
 630 800 l 1x77c0
210 810 m 0x3bc0
 304 810 370 729 370 630 c 0
 370 531 304 450 210 450 c 0
 116 450 50 531 50 630 c 0
 50 729 116 810 210 810 c 0x3bc0
211 710 m 0
 178 710 160 668 160 630 c 0
 160 592 178 550 211 550 c 0
 244 550 260 592 260 630 c 0
 260 668 244 710 211 710 c 0
630 350 m 0
 724 350 790 269 790 170 c 0
 790 71 724 -10 630 -10 c 0xb3c0
 536 -10 470 71 470 170 c 0
 470 269 536 350 630 350 c 0
631 250 m 0
 598 250 580 208 580 170 c 0
 580 132 598 90 631 90 c 0
 664 90 680 132 680 170 c 0
 680 208 664 250 631 250 c 0
EndSplineSet
EndChar

StartChar: quotesingle
Encoding: 39 39 167
Width: 240
VWidth: 0
Flags: W
HStem: 560 240<70 170>
VStem: 70 100<560 660.8>
LayerCount: 2
Fore
SplineSet
50 800 m 1
 190 800 l 1
 170 560 l 1
 70 560 l 1
 50 800 l 1
EndSplineSet
EndChar

StartChar: parenleft
Encoding: 40 40 168
Width: 400
VWidth: 0
Flags: W
VStem: 60 130<102.352 617.648>
LayerCount: 2
Fore
SplineSet
60 360 m 1
 60 390 l 2
 60 706 160 848 360 920 c 1
 360 855 l 1
 223 769 190 667 190 390 c 2
 190 360 l 1
 190 330 l 2
 190 53 223 -49 360 -135 c 1
 360 -200 l 1
 160 -128 60 14 60 330 c 2
 60 360 l 1
EndSplineSet
EndChar

StartChar: parenright
Encoding: 41 41 169
Width: 400
VWidth: 0
Flags: W
VStem: 210 130<102.352 617.648>
LayerCount: 2
Fore
SplineSet
340 360 m 1
 340 330 l 2
 340 14 240 -128 40 -200 c 1
 40 -135 l 1
 177 -49 210 53 210 330 c 2
 210 360 l 1
 210 390 l 2
 210 667 177 769 40 855 c 1
 40 920 l 1
 240 848 340 706 340 390 c 2
 340 360 l 1
EndSplineSet
EndChar

StartChar: plus
Encoding: 43 43 170
Width: 560
VWidth: 0
Flags: W
HStem: 270 100<50 220 340 510>
VStem: 220 120<90 270 370 550>
LayerCount: 2
Fore
SplineSet
340 270 m 1
 340 90 l 1
 220 90 l 1
 220 270 l 1
 50 270 l 1
 50 370 l 1
 220 370 l 1
 220 550 l 1
 340 550 l 1
 340 370 l 1
 510 370 l 1
 510 270 l 1
 340 270 l 1
EndSplineSet
EndChar

StartChar: comma
Encoding: 44 44 171
Width: 320
VWidth: 0
Flags: W
HStem: -150 350
LayerCount: 2
Fore
SplineSet
160 200 m 0
 223 200 265 151 265 90 c 0
 265 -21 194 -107 135 -150 c 1
 55 -150 l 1
 105 -94 134 -44 135 3 c 1
 91 14 60 52 60 100 c 0
 60 156 104 200 160 200 c 0
EndSplineSet
EndChar

StartChar: zero
Encoding: 48 48 172
Width: 660
Flags: W
HStem: -20 120<255.708 404.292> 700 120<255.708 404.292>
VStem: 50 160<150.422 649.578> 450 160<150.422 649.578>
LayerCount: 2
Fore
SplineSet
210 245 m 2
 210 146 262 100 330 100 c 0
 398 100 450 146 450 245 c 2
 450 555 l 2
 450 654 398 700 330 700 c 0
 262 700 210 654 210 555 c 2
 210 245 l 2
50 245 m 2
 50 555 l 2
 50 710 164 820 330 820 c 0
 496 820 610 710 610 555 c 2
 610 245 l 2
 610 90 496 -20 330 -20 c 0
 164 -20 50 90 50 245 c 2
EndSplineSet
EndChar

StartChar: one
Encoding: 49 49 173
Width: 660
Flags: W
HStem: 0 21G<340 500> 495 125<80 197.155> 780 20G<340 500>
VStem: 340 160<0 600 732.219 800>
LayerCount: 2
Fore
SplineSet
340 600 m 1
 299 537 179 495 80 495 c 1
 80 620 l 1
 196 620 340 706 340 800 c 1
 500 800 l 1
 500 0 l 1
 340 0 l 1
 340 600 l 1
EndSplineSet
EndChar

StartChar: two
Encoding: 50 50 174
Width: 660
Flags: W
HStem: 0 120<210 610> 700 120<256.238 403.762>
VStem: 60 160<580 664.148> 440 160<501.889 664.314>
LayerCount: 2
Fore
SplineSet
440 580 m 0
 440 655 400 700 330 700 c 0
 260 700 220 655 220 580 c 1
 60 580 l 1
 60 704 168 820 330 820 c 0
 492 820 600 704 600 580 c 0
 600 468 523 395 430 330 c 0
 334 263 210 170 210 120 c 1
 610 120 l 1
 610 0 l 1
 50 0 l 1
 50 120 l 2
 50 237 206 327 300 400 c 0
 381 463 440 498 440 580 c 0
EndSplineSet
EndChar

StartChar: three
Encoding: 51 51 175
Width: 660
Flags: W
HStem: -20 120<235.595 404.405> 350 120<210 395.99> 700 120<246.238 393.762>
VStem: 30 160<145.38 225> 50 160<580 664.148> 430 160<504.12 664.314> 450 160<144.795 305.904>
LayerCount: 2
Fore
SplineSet
30 225 m 1xf2
 190 225 l 1
 190 142 245 100 320 100 c 0
 395 100 450 142 450 225 c 0xf2
 450 308 394 350 320 350 c 2
 210 350 l 1
 210 470 l 1
 320 470 l 2
 381 470 430 505 430 580 c 0
 430 655 390 700 320 700 c 0
 250 700 210 655 210 580 c 1
 50 580 l 1
 50 704 158 820 320 820 c 0
 482 820 590 704 590 580 c 0xec
 590 515 561 455 510 413 c 1
 572 368 610 301 610 225 c 0
 610 87 510 -20 320 -20 c 0
 130 -20 30 87 30 225 c 1xf2
EndSplineSet
EndChar

StartChar: four
Encoding: 52 52 176
Width: 660
Flags: W
HStem: 0 21G<380 540> 135 120<190 380 540 620> 780 20G<367.523 540>
VStem: 380 160<0 135 255 580>
LayerCount: 2
Fore
SplineSet
190 255 m 1
 380 255 l 1
 380 580 l 1
 190 255 l 1
40 255 m 1
 380 800 l 1
 540 800 l 1
 540 255 l 1
 620 255 l 1
 620 135 l 1
 540 135 l 1
 540 0 l 1
 380 0 l 1
 380 135 l 1
 40 135 l 1
 40 255 l 1
EndSplineSet
EndChar

StartChar: five
Encoding: 53 53 177
Width: 660
Flags: W
HStem: -20 120<255.708 404.292> 390 120<239.448 404.292> 690 110<247 570>
VStem: 50 160<150.422 245> 450 160<148.949 341.051>
LayerCount: 2
Fore
SplineSet
330 -20 m 0
 164 -20 50 90 50 245 c 1
 210 245 l 1
 210 146 262 100 330 100 c 0
 398 100 450 146 450 245 c 0
 450 344 398 390 330 390 c 0
 276 390 234 369 205 330 c 1
 70 340 l 1
 130 800 l 1
 260 800 l 1
 570 800 l 1
 570 690 l 1
 247 690 l 1
 223 481 l 1
 254 498 290 510 330 510 c 0
 496 510 610 400 610 245 c 0
 610 90 496 -20 330 -20 c 0
EndSplineSet
EndChar

StartChar: six
Encoding: 54 54 178
Width: 660
Flags: W
HStem: -20 120<255.708 404.292> 390 120<254.457 404.292> 700 120<248.287 401.713>
VStem: 50 160<150.422 342.524 478 660.769> 440 160<580 660.769> 450 160<148.949 341.051>
LayerCount: 2
Fore
SplineSet
600 580 m 1xf8
 440 580 l 1xf8
 440 647 407 700 325 700 c 0
 243 700 210 647 210 580 c 2
 210 478 l 1
 241 498 280 510 330 510 c 0
 496 510 610 400 610 245 c 0xf4
 610 90 496 -20 330 -20 c 0
 164 -20 50 90 50 245 c 2
 50 580 l 2
 50 695 133 820 325 820 c 0
 517 820 600 695 600 580 c 1xf8
450 245 m 0xf4
 450 344 398 390 330 390 c 0
 262 390 210 344 210 245 c 0
 210 146 262 100 330 100 c 0
 398 100 450 146 450 245 c 0xf4
EndSplineSet
EndChar

StartChar: eight
Encoding: 56 56 179
Width: 660
Flags: W
HStem: -20 120<245.595 414.405> 350 120<254.01 405.99> 700 120<256.238 403.762>
VStem: 40 160<144.795 305.904> 60 160<504.12 664.314> 440 160<504.12 664.314> 460 160<144.795 305.904>
LayerCount: 2
Fore
SplineSet
600 580 m 0xec
 600 515 571 455 520 413 c 1
 582 368 620 301 620 225 c 0
 620 87 520 -20 330 -20 c 0
 140 -20 40 87 40 225 c 0xf2
 40 301 78 368 140 413 c 1
 89 455 60 515 60 580 c 0
 60 704 168 820 330 820 c 0
 492 820 600 704 600 580 c 0xec
440 580 m 0xec
 440 655 400 700 330 700 c 0
 260 700 220 655 220 580 c 0
 220 505 269 470 330 470 c 0
 391 470 440 505 440 580 c 0xec
200 225 m 0xf2
 200 142 255 100 330 100 c 0
 405 100 460 142 460 225 c 0
 460 308 404 350 330 350 c 0
 256 350 200 308 200 225 c 0xf2
EndSplineSet
EndChar

StartChar: nine
Encoding: 57 57 180
Width: 660
Flags: W
HStem: -20 120<258.287 411.713> 290 120<255.708 405.543> 700 120<255.708 404.292>
VStem: 50 160<458.949 651.051> 60 160<139.231 220> 450 160<139.231 322 457.476 649.578>
LayerCount: 2
Fore
SplineSet
60 220 m 1xec
 220 220 l 1xec
 220 153 253 100 335 100 c 0
 417 100 450 153 450 220 c 2
 450 322 l 1
 419 302 380 290 330 290 c 0
 164 290 50 400 50 555 c 0xf4
 50 710 164 820 330 820 c 0
 496 820 610 710 610 555 c 2
 610 220 l 2
 610 105 527 -20 335 -20 c 0
 143 -20 60 105 60 220 c 1xec
210 555 m 0xf4
 210 456 262 410 330 410 c 0
 398 410 450 456 450 555 c 0
 450 654 398 700 330 700 c 0
 262 700 210 654 210 555 c 0xf4
EndSplineSet
EndChar

StartChar: semicolon
Encoding: 59 59 181
Width: 320
VWidth: 0
Flags: W
HStem: 420 200<92.4561 227.544>
VStem: 60 205<35.0726 163.93 457.935 582.065>
LayerCount: 2
Fore
SplineSet
160 200 m 0
 223 200 265 151 265 90 c 0
 265 -21 194 -107 135 -150 c 1
 55 -150 l 1
 105 -94 134 -44 135 3 c 1
 91 14 60 52 60 100 c 0
 60 156 104 200 160 200 c 0
260 520 m 0
 260 464 216 420 160 420 c 0
 104 420 60 464 60 520 c 0
 60 576 104 620 160 620 c 0
 216 620 260 576 260 520 c 0
EndSplineSet
EndChar

StartChar: less
Encoding: 60 60 182
Width: 600
VWidth: 0
Flags: W
HStem: 0 21G<504.444 540>
LayerCount: 2
Fore
SplineSet
60 270 m 1
 60 370 l 1
 540 640 l 1
 540 500 l 1
 210 320 l 1
 540 140 l 1
 540 0 l 1
 60 270 l 1
EndSplineSet
EndChar

StartChar: equal
Encoding: 61 61 183
Width: 560
VWidth: 0
Flags: W
HStem: 150 100<50 510> 390 100<50 510>
LayerCount: 2
Fore
SplineSet
50 250 m 1
 510 250 l 1
 510 150 l 1
 50 150 l 1
 50 250 l 1
50 490 m 1
 510 490 l 1
 510 390 l 1
 50 390 l 1
 50 490 l 1
EndSplineSet
EndChar

StartChar: greater
Encoding: 62 62 184
Width: 600
VWidth: 0
Flags: W
HStem: 0 21G<60 95.5556>
LayerCount: 2
Fore
SplineSet
540 270 m 1
 60 0 l 1
 60 140 l 1
 390 320 l 1
 60 500 l 1
 60 640 l 1
 540 370 l 1
 540 270 l 1
EndSplineSet
EndChar

StartChar: question
Encoding: 63 63 185
Width: 640
VWidth: 0
Flags: W
HStem: 0 200<252.059 387.941> 700 120<242.732 397.268>
VStem: 50 160<527.608 667> 220 200<32.0592 167.941> 240 160<260 352.049> 430 160<519.964 667>
LayerCount: 2
Fore
SplineSet
222 533 m 1xec
 70 486 l 1
 57 515 50 557 50 590 c 0
 50 723 164 820 320 820 c 0
 476 820 590 723 590 590 c 0
 590 479 514 419 445 370 c 0
 403 340 400 312 400 260 c 1
 240 260 l 1
 240 353 247 395 320 445 c 0
 372 481 430 530 430 590 c 0
 430 656 396 700 320 700 c 0
 244 700 210 656 210 590 c 0
 210 569 214 553 222 533 c 1xec
420 100 m 0xf4
 420 43 377 0 320 0 c 0
 263 0 220 43 220 100 c 0
 220 157 263 200 320 200 c 0
 377 200 420 157 420 100 c 0xf4
EndSplineSet
EndChar

StartChar: at
Encoding: 64 64 186
Width: 1140
VWidth: 0
Flags: W
HStem: -180 90<413.255 728.185> 70 115<496.121 625.312> 70 90<827.614 948.407> 474 116<493.703 612.886> 750 90<417.101 722.899>
VStem: 50 100<172.667 482.437> 300 160<220.049 437.829> 650 160<222.422 460.923 540 570> 990 100<205.848 482.437>
LayerCount: 2
Fore
SplineSet
650 570 m 1xdf80
 810 570 l 1
 810 250 l 2
 810 185 843 160 880 160 c 0
 925 160 990 176 990 330 c 0
 990 579 819 750 570 750 c 0
 321 750 150 579 150 330 c 0
 150 81 310 -90 570 -90 c 0
 681 -90 754 -62 827 -13 c 1
 866 -96 l 1
 780 -154 671 -180 570 -180 c 0
 239 -180 50 43 50 330 c 0
 50 617 283 840 570 840 c 0
 857 840 1090 617 1090 330 c 0
 1090 133 983 70 880 70 c 0xbf80
 780 70 717 94 683 138 c 1
 642 99 589 70 525 70 c 0
 407 70 300 141 300 290 c 2
 300 370 l 2
 300 513 407 590 515 590 c 0
 567 590 613 569 650 540 c 1
 650 570 l 1xdf80
651 222 m 1
 650 231 650 240 650 250 c 2
 650 447 l 1
 626 463 594 474 560 474 c 0
 500 474 460 426 460 370 c 2
 460 290 l 2
 460 232 505 185 560 185 c 0xdf80
 597 185 628 201 651 222 c 1
EndSplineSet
EndChar

StartChar: bracketleft
Encoding: 91 91 187
Width: 400
VWidth: 0
Flags: W
HStem: -180 90<180 360> 810 90<180 360>
VStem: 60 300<-180 -90 810 900> 60 120<-90 810>
LayerCount: 2
Fore
SplineSet
60 360 m 1xd0
 60 900 l 1
 360 900 l 1
 360 810 l 1xe0
 180 810 l 1
 180 360 l 1
 180 -90 l 1xd0
 360 -90 l 1
 360 -180 l 1
 60 -180 l 1xe0
 60 360 l 1xd0
EndSplineSet
EndChar

StartChar: bracketright
Encoding: 93 93 188
Width: 400
VWidth: 0
Flags: W
HStem: -180 90<40 220> 810 90<40 220>
VStem: 40 300<-180 -90 810 900> 220 120<-90 810>
LayerCount: 2
Fore
SplineSet
340 360 m 1xd0
 340 -180 l 1
 40 -180 l 1
 40 -90 l 1xe0
 220 -90 l 1
 220 360 l 1
 220 810 l 1xd0
 40 810 l 1
 40 900 l 1
 340 900 l 1xe0
 340 360 l 1xd0
EndSplineSet
EndChar

StartChar: asciicircum
Encoding: 94 94 189
Width: 540
VWidth: 0
Flags: W
HStem: 560 240
LayerCount: 2
Fore
SplineSet
270 690 m 1
 190 560 l 1
 40 560 l 1
 220 800 l 1
 320 800 l 1
 500 560 l 1
 350 560 l 1
 270 690 l 1
EndSplineSet
EndChar

StartChar: underscore
Encoding: 95 95 190
Width: 720
VWidth: 0
Flags: W
HStem: -100 100<60 660>
LayerCount: 2
Fore
SplineSet
60 0 m 1
 660 0 l 1
 660 -100 l 1
 60 -100 l 1
 60 0 l 1
EndSplineSet
EndChar

StartChar: grave
Encoding: 96 96 191
Width: 420
VWidth: 0
Flags: W
HStem: 620 180
VStem: 30 360
LayerCount: 2
Fore
SplineSet
30 800 m 1
 220 800 l 1
 390 620 l 1
 280 620 l 1
 30 800 l 1
EndSplineSet
EndChar

StartChar: braceleft
Encoding: 123 123 192
Width: 400
VWidth: 0
Flags: W
HStem: -180 90<251.292 380> 810 90<251.292 380>
VStem: 130 120<-88.7937 282.449 437.551 808.794>
LayerCount: 2
Fore
SplineSet
20 360 m 1
 20 365 l 1
 59 385 130 432 130 520 c 2
 130 810 l 2
 130 866 173 900 230 900 c 2
 380 900 l 1
 380 810 l 1
 290 810 l 2
 262 810 250 799 250 770 c 2
 250 520 l 2
 250 393 170 360 170 360 c 1
 170 360 250 327 250 200 c 2
 250 -50 l 2
 250 -79 262 -90 290 -90 c 2
 380 -90 l 1
 380 -180 l 1
 230 -180 l 2
 173 -180 130 -146 130 -90 c 2
 130 200 l 2
 130 288 59 335 20 355 c 1
 20 360 l 1
EndSplineSet
EndChar

StartChar: braceright
Encoding: 125 125 193
Width: 400
VWidth: 0
Flags: W
HStem: -180 90<20 148.708> 810 90<20 148.708>
VStem: 150 120<-88.7937 282.449 437.551 808.794>
LayerCount: 2
Fore
SplineSet
380 360 m 1
 380 355 l 1
 341 335 270 288 270 200 c 2
 270 -90 l 2
 270 -146 227 -180 170 -180 c 2
 20 -180 l 1
 20 -90 l 1
 110 -90 l 2
 138 -90 150 -79 150 -50 c 2
 150 200 l 2
 150 327 230 360 230 360 c 1
 230 360 150 393 150 520 c 2
 150 770 l 2
 150 799 138 810 110 810 c 2
 20 810 l 1
 20 900 l 1
 170 900 l 2
 227 900 270 866 270 810 c 2
 270 520 l 2
 270 432 341 385 380 365 c 1
 380 360 l 1
EndSplineSet
EndChar

StartChar: asciitilde
Encoding: 126 126 194
Width: 640
VWidth: 0
Flags: W
HStem: 220 120<349.092 491.649> 300 120<148.351 290.065>
LayerCount: 2
Fore
SplineSet
215 420 m 0x40
 261 420 290 408 330 380 c 0
 361 358 379 340 425 340 c 0
 469 340 511 374 525 410 c 1
 590 385 l 1
 580 308 510 220 425 220 c 0x80
 379 220 348 233 310 260 c 0
 277 283 261 300 215 300 c 0
 171 300 129 266 115 230 c 1
 50 255 l 1
 60 332 130 420 215 420 c 0x40
EndSplineSet
EndChar

StartChar: quotedblleft
Encoding: 8220 8220 195
Width: 520
VWidth: 0
Flags: W
HStem: 550 350
VStem: 40 195<585.94 700.418> 280 195<585.94 700.418>
LayerCount: 2
Fore
SplineSet
145 550 m 0
 82 550 40 599 40 660 c 0
 40 771 111 857 170 900 c 1
 250 900 l 1
 201 846 163 776 160 729 c 1
 203 722 235 685 235 640 c 0
 235 589 196 550 145 550 c 0
385 550 m 0
 322 550 280 599 280 660 c 0
 280 771 351 857 410 900 c 1
 490 900 l 1
 441 846 403 776 400 729 c 1
 443 722 475 685 475 640 c 0
 475 589 436 550 385 550 c 0
EndSplineSet
EndChar

StartChar: quotedblright
Encoding: 8221 8221 196
Width: 520
VWidth: 0
Flags: W
HStem: 550 350
VStem: 45 195<749.582 864.06> 285 195<749.582 864.06>
LayerCount: 2
Fore
SplineSet
375 900 m 0
 438 900 480 851 480 790 c 0
 480 679 409 593 350 550 c 1
 270 550 l 1
 319 604 357 674 360 721 c 1
 317 728 285 765 285 810 c 0
 285 861 324 900 375 900 c 0
135 900 m 0
 198 900 240 851 240 790 c 0
 240 679 169 593 110 550 c 1
 30 550 l 1
 79 604 117 674 120 721 c 1
 77 728 45 765 45 810 c 0
 45 861 84 900 135 900 c 0
EndSplineSet
EndChar

StartChar: quoteleft
Encoding: 8216 8216 197
Width: 320
VWidth: 0
Flags: W
HStem: 550 350
LayerCount: 2
Fore
SplineSet
160 550 m 0
 97 550 55 599 55 660 c 0
 55 771 126 857 185 900 c 1
 265 900 l 1
 215 844 186 794 185 747 c 1
 229 736 260 698 260 650 c 0
 260 594 216 550 160 550 c 0
EndSplineSet
EndChar

StartChar: quoteright
Encoding: 8217 8217 198
Width: 320
VWidth: 0
Flags: W
HStem: 550 350
LayerCount: 2
Fore
SplineSet
160 900 m 0
 223 900 265 851 265 790 c 0
 265 679 194 593 135 550 c 1
 55 550 l 1
 105 606 134 656 135 703 c 1
 91 714 60 752 60 800 c 0
 60 856 104 900 160 900 c 0
EndSplineSet
EndChar

StartChar: afii57929
Encoding: 700 700 199
Width: 280
VWidth: 0
Flags: W
HStem: 460 350
VStem: 45 195<659.582 774.06>
LayerCount: 2
Fore
SplineSet
135 810 m 0
 198 810 240 761 240 700 c 0
 240 589 169 503 110 460 c 1
 30 460 l 1
 79 514 117 584 120 631 c 1
 77 638 45 675 45 720 c 0
 45 771 84 810 135 810 c 0
EndSplineSet
EndChar

StartChar: Euro
Encoding: 8364 8364 200
Width: 750
Flags: W
HStem: -20 120<385.12 617.192> 250 90<40 140 302 580> 460 90<40 140 303 580> 700 120<385.662 617.192>
VStem: 140 160<184.075 250 340 460 550 613.121>
LayerCount: 2
Fore
SplineSet
710 740 m 1
 649 650 l 1
 616 683 569 700 490 700 c 0
 387 700 318 645 303 550 c 1
 580 550 l 1
 580 460 l 1
 300 460 l 1
 300 340 l 1
 580 340 l 1
 580 250 l 1
 302 250 l 1
 314 157 384 100 490 100 c 0
 569 100 616 117 649 150 c 1
 710 60 l 1
 673 21 609 -20 490 -20 c 0
 295 -20 156 85 141 250 c 1
 40 250 l 1
 40 340 l 1
 140 340 l 1
 140 460 l 1
 40 460 l 1
 40 550 l 1
 143 550 l 1
 162 706 299 820 490 820 c 0
 609 820 673 779 710 740 c 1
EndSplineSet
EndChar

StartChar: yen
Encoding: 165 165 201
Width: 700
VWidth: 0
Flags: W
HStem: 0 21G<270 430> 150 90<30 270 430 670> 370 90<30 180 520 670> 780 20G<0 189.471 510.529 700>
VStem: 270 160<0 150 240 290>
LayerCount: 2
Fore
SplineSet
0 800 m 1
 180 800 l 1
 341 460 l 1
 359 460 l 1
 520 800 l 1
 700 800 l 1
 520 460 l 1
 670 460 l 1
 670 370 l 1
 472 370 l 1
 430 290 l 1
 430 240 l 1
 670 240 l 1
 670 150 l 1
 430 150 l 1
 430 0 l 1
 270 0 l 1
 270 150 l 1
 30 150 l 1
 30 240 l 1
 270 240 l 1
 270 290 l 1
 228 370 l 1
 30 370 l 1
 30 460 l 1
 180 460 l 1
 0 800 l 1
EndSplineSet
EndChar

StartChar: sterling
Encoding: 163 163 202
Width: 700
Flags: W
HStem: 0 120<220 670> 355 90<50 142 306 520> 700 120<329.103 430.897>
VStem: 142 157<227.584 355> 148 158<445 677.21> 450 160<590 682.469>
LayerCount: 2
Fore
SplineSet
380 820 m 0xec
 518 820 610 724 610 590 c 1
 450 590 l 1
 450 662 429 700 380 700 c 0
 331 700 310 662 310 590 c 0
 310 539 309 490 306 445 c 1xec
 520 445 l 1
 520 355 l 1
 299 355 l 1
 285 229 259 143 220 120 c 1
 670 120 l 1
 670 0 l 1
 50 0 l 1
 50 120 l 1
 105 172 131 247 142 355 c 1xf4
 50 355 l 1
 50 445 l 1
 148 445 l 1
 149 489 150 537 150 590 c 0
 150 724 242 820 380 820 c 0xec
EndSplineSet
EndChar

StartChar: cent
Encoding: 162 162 203
Width: 640
VWidth: 0
Flags: W
HStem: 84 116<245.798 275 395 417.849> 600 350<276.763 393.347>
VStem: 50 160<233.992 558.243> 275 120<-150 87.821 710.509 950> 450 160<232.71 300 500 563.988>
LayerCount: 2
Fore
SplineSet
275 715 m 1
 275 950 l 1
 395 950 l 1
 395 715 l 1
 521 695 610 611 610 500 c 1
 450 500 l 1
 450 564 401 600 335 600 c 0
 269 600 210 562 210 480 c 2
 210 300 l 2
 210 227 269 200 335 200 c 0
 401 200 450 231 450 300 c 1
 610 300 l 1
 610 181 519 103 395 84 c 1
 395 -150 l 1
 275 -150 l 1
 275 84 l 1
 148 101 50 172 50 300 c 2
 50 480 l 2
 50 609 147 695 275 715 c 1
EndSplineSet
EndChar

StartChar: copyright
Encoding: 169 169 204
Width: 940
Flags: W
HStem: -20 85<342.347 597.653> 190 85<406.721 543.279> 525 85<406.721 543.279> 735 85<342.347 597.653>
VStem: 50 100<264.355 535.645> 285 110<290.669 509.331> 555 110<290.669 340 460 509.331> 790 100<264.355 535.645>
LayerCount: 2
Fore
SplineSet
470 735 m 0
 276 735 150 582 150 400 c 0
 150 218 276 65 470 65 c 0
 664 65 790 218 790 400 c 0
 790 582 664 735 470 735 c 0
470 820 m 0
 718 820 890 632 890 400 c 0
 890 168 718 -20 470 -20 c 0
 222 -20 50 168 50 400 c 0
 50 632 222 820 470 820 c 0
475 610 m 0
 587 610 665 546 665 460 c 1
 555 460 l 1
 555 503 527 525 475 525 c 0
 423 525 395 503 395 460 c 2
 395 340 l 2
 395 297 423 275 475 275 c 0
 527 275 555 297 555 340 c 1
 665 340 l 1
 665 254 587 190 475 190 c 0
 363 190 285 254 285 340 c 2
 285 460 l 2
 285 546 363 610 475 610 c 0
EndSplineSet
EndChar

StartChar: registered
Encoding: 174 174 205
Width: 940
Flags: W
HStem: -20 85<342.347 597.653> 330 75<415 475> 525 75<415 543.343> 735 85<342.347 597.653>
VStem: 50 100<264.355 535.645> 305 110<200 330 405 525> 555 100<415.195 513.742> 790 100<264.355 535.645>
LayerCount: 2
Fore
SplineSet
485 525 m 2
 415 525 l 1
 415 405 l 1
 485 405 l 2
 534 405 555 430 555 465 c 0
 555 500 531 525 485 525 c 2
515 600 m 2
 606 600 655 536 655 465 c 0
 655 397 616 365 580 345 c 1
 685 200 l 1
 560 200 l 1
 475 330 l 1
 415 330 l 1
 415 200 l 1
 305 200 l 1
 305 600 l 1
 515 600 l 2
470 820 m 0
 718 820 890 632 890 400 c 0
 890 168 718 -20 470 -20 c 0
 222 -20 50 168 50 400 c 0
 50 632 222 820 470 820 c 0
470 735 m 0
 276 735 150 582 150 400 c 0
 150 218 276 65 470 65 c 0
 664 65 790 218 790 400 c 0
 790 582 664 735 470 735 c 0
EndSplineSet
EndChar

StartChar: guillemotleft
Encoding: 171 171 206
Width: 600
Flags: W
LayerCount: 2
Fore
SplineSet
200 320 m 1
 350 90 l 1
 230 90 l 1
 60 320 l 1
 230 550 l 1
 350 550 l 1
 200 320 l 1
410 320 m 1
 560 90 l 1
 440 90 l 1
 270 320 l 1
 440 550 l 1
 560 550 l 1
 410 320 l 1
EndSplineSet
EndChar

StartChar: guillemotright
Encoding: 187 187 207
Width: 600
Flags: W
LayerCount: 2
Fore
SplineSet
400 320 m 1
 250 550 l 1
 370 550 l 1
 540 320 l 1
 370 90 l 1
 250 90 l 1
 400 320 l 1
190 320 m 1
 40 550 l 1
 160 550 l 1
 330 320 l 1
 160 90 l 1
 40 90 l 1
 190 320 l 1
EndSplineSet
EndChar

StartChar: acute
Encoding: 180 180 208
Width: 420
VWidth: 0
Flags: W
HStem: 620 180
VStem: 30 360
LayerCount: 2
Fore
SplineSet
390 800 m 1
 140 620 l 1
 30 620 l 1
 200 800 l 1
 390 800 l 1
EndSplineSet
EndChar

StartChar: exclamdown
Encoding: 161 161 209
Width: 310
VWidth: 0
Flags: W
HStem: 430 200<92.0592 227.941>
VStem: 60 200<462.059 597.941> 80 160<-270 270>
LayerCount: 2
Fore
SplineSet
260 530 m 0xc0
 260 473 217 430 160 430 c 0
 103 430 60 473 60 530 c 0
 60 587 103 630 160 630 c 0
 217 630 260 587 260 530 c 0xc0
80 -270 m 1xa0
 80 270 l 1
 120 370 l 1
 200 370 l 1
 240 270 l 1
 240 -270 l 1
 80 -270 l 1xa0
EndSplineSet
EndChar

StartChar: brokenbar
Encoding: 166 166 210
Width: 320
Flags: W
HStem: 880 20G<100 220>
VStem: 100 120<-180 270 450 900>
LayerCount: 2
Fore
SplineSet
100 900 m 1
 220 900 l 1
 220 450 l 1
 100 450 l 1
 100 900 l 1
100 270 m 1
 220 270 l 1
 220 -180 l 1
 100 -180 l 1
 100 270 l 1
EndSplineSet
EndChar

StartChar: section
Encoding: 167 167 211
Width: 680
Flags: W
HStem: -20 120<240.573 439.427> 700 120<254.816 425.184>
VStem: 70 160<590.24 674.042> 70 140<380.499 477.249> 470 160<130.45 224.846> 490 140<337.872 435.498>
LayerCount: 2
Fore
SplineSet
586 294 m 1xe4
 613 271 630 237 630 185 c 0
 630 80 534 -20 340 -20 c 0
 146 -20 50 80 50 185 c 1
 210 185 l 1
 210 130 263 100 340 100 c 0
 417 100 470 130 470 185 c 0
 470 227 418 241 340 250 c 0
 232 262 70 282 70 425 c 0xd8
 70 462 95 493 126 517 c 1
 92 538 70 572 70 625 c 0
 70 717 161 820 340 820 c 0
 519 820 610 717 610 625 c 1
 450 625 l 1
 450 659 418 700 340 700 c 0
 262 700 230 659 230 625 c 0
 230 593 266 579 340 570 c 0
 463 555 630 548 630 385 c 0
 630 347 612 317 586 294 c 1xe4
241 481 m 1
 223 468 210 449 210 425 c 0
 210 374 266 359 340 350 c 0
 380 345 425 343 467 337 c 1
 481 349 490 365 490 385 c 0xd4
 490 453 418 461 340 470 c 0
 310 473 275 476 241 481 c 1
EndSplineSet
EndChar

StartChar: endash
Encoding: 8211 8211 213
Width: 670
VWidth: 0
Flags: W
HStem: 270 100<60 620>
LayerCount: 2
Fore
SplineSet
60 370 m 1
 620 370 l 1
 620 270 l 1
 60 270 l 1
 60 370 l 1
EndSplineSet
EndChar

StartChar: guilsinglleft
Encoding: 8249 8249 214
Width: 390
Flags: W
VStem: 60 290
LayerCount: 2
Fore
SplineSet
200 320 m 1
 350 90 l 1
 230 90 l 1
 60 320 l 1
 230 550 l 1
 350 550 l 1
 200 320 l 1
EndSplineSet
EndChar

StartChar: guilsinglright
Encoding: 8250 8250 215
Width: 390
Flags: W
VStem: 40 290
LayerCount: 2
Fore
SplineSet
190 320 m 1
 40 550 l 1
 160 550 l 1
 330 320 l 1
 160 90 l 1
 40 90 l 1
 190 320 l 1
EndSplineSet
EndChar

StartChar: ellipsis
Encoding: 8230 8230 216
Width: 860
VWidth: 0
Flags: W
HStem: 0 200<82.4561 217.544 362.456 497.544 642.456 777.544>
VStem: 50 200<32.4561 167.544> 330 200<32.4561 167.544> 610 200<32.4561 167.544>
CounterMasks: 1 70
LayerCount: 2
Fore
SplineSet
250 100 m 0
 250 44 206 0 150 0 c 0
 94 0 50 44 50 100 c 0
 50 156 94 200 150 200 c 0
 206 200 250 156 250 100 c 0
530 100 m 0
 530 44 486 0 430 0 c 0
 374 0 330 44 330 100 c 0
 330 156 374 200 430 200 c 0
 486 200 530 156 530 100 c 0
810 100 m 0
 810 44 766 0 710 0 c 0
 654 0 610 44 610 100 c 0
 610 156 654 200 710 200 c 0
 766 200 810 156 810 100 c 0
EndSplineSet
LCarets2: 2 0 0 
Ligature2: "'liga' Latin Standard Ligatures-1" period period period
EndChar

StartChar: trademark
Encoding: 8482 8482 217
Width: 830
VWidth: 0
Flags: W
HStem: 900 60<50 140 220 310>
VStem: 140 80<560 900> 370 80<560 844> 700 80<560 844>
LayerCount: 2
Fore
SplineSet
50 900 m 1
 50 960 l 1
 155 960 l 1
 205 960 l 1
 310 960 l 1
 310 900 l 1
 220 900 l 1
 220 560 l 1
 140 560 l 1
 140 900 l 1
 50 900 l 1
780 560 m 1
 700 560 l 1
 700 844 l 1
 610 560 l 1
 575 560 l 1
 540 560 l 1
 450 844 l 1
 450 560 l 1
 370 560 l 1
 370 960 l 1
 440 960 l 1
 450 960 l 1
 475 960 l 1
 575 645 l 1
 675 960 l 1
 700 960 l 1
 710 960 l 1
 780 960 l 1
 780 560 l 1
EndSplineSet
EndChar

StartChar: emdash
Encoding: 8212 8212 218
Width: 970
VWidth: 0
Flags: W
HStem: 270 100<60 920>
LayerCount: 2
Fore
SplineSet
60 370 m 1
 920 370 l 1
 920 270 l 1
 60 270 l 1
 60 370 l 1
EndSplineSet
EndChar

StartChar: afii00208
Encoding: 8213 8213 219
Width: 970
VWidth: 0
Flags: W
HStem: 270 100<60 920>
LayerCount: 2
Fore
SplineSet
60 370 m 1
 920 370 l 1
 920 270 l 1
 60 270 l 1
 60 370 l 1
EndSplineSet
EndChar

StartChar: ordfeminine
Encoding: 170 170 220
Width: 360
VWidth: 0
Flags: W
HStem: 550 60<117.977 229.415 316.752 340> 695 45<120.976 234> 810 60<127.708 229.21>
VStem: 34 80<615.637 689.97> 44 80<765 803.109> 234 80<618.61 695 740 803.109>
LayerCount: 2
Fore
SplineSet
124 765 m 1xec
 44 765 l 1xec
 44 828 100 870 179.5 870 c 0
 259 870 314 828 314 765 c 2
 314 650 l 2
 314 623 321 615 340 615 c 1
 340 555 l 1
 292 555 261 563 246 583 c 1
 224 563 194 550 154 550 c 0
 80 550 34 598 34 652 c 0xf4
 34 718 94 740 160 740 c 2
 234 740 l 1
 234 765 l 2
 234 801 204 810 179.5 810 c 0
 155 810 124 801 124 765 c 1xec
234 695 m 1
 164 695 l 2
 132 695 114 678 114 652 c 0xf4
 114 632 130 610 170 610 c 0
 198 610 222 622 234 642 c 1
 234 695 l 1
EndSplineSet
EndChar

StartChar: uni00AD
Encoding: 173 173 221
Width: 560
VWidth: 0
Flags: W
HStem: 270 100<50 510>
LayerCount: 2
Fore
SplineSet
50 370 m 1
 510 370 l 1
 510 270 l 1
 50 270 l 1
 50 370 l 1
EndSplineSet
EndChar

StartChar: degree
Encoding: 176 176 222
Width: 380
VWidth: 0
Flags: W
HStem: 670 80<131.165 248.835> 910 80<131.165 248.835>
VStem: 30 80<771.165 888.835> 270 80<771.165 888.835>
LayerCount: 2
Fore
SplineSet
190 990 m 0
 278 990 350 918 350 830 c 0
 350 742 278 670 190 670 c 0
 102 670 30 742 30 830 c 0
 30 918 102 990 190 990 c 0
190 910 m 0
 146 910 110 874 110 830 c 0
 110 786 146 750 190 750 c 0
 234 750 270 786 270 830 c 0
 270 874 234 910 190 910 c 0
EndSplineSet
EndChar

StartChar: plusminus
Encoding: 177 177 223
Width: 560
VWidth: 0
Flags: W
HStem: 40 100<50 510> 350 100<50 220 340 510> 580 20G<220 340>
VStem: 220 120<200 350 450 600>
LayerCount: 2
Fore
SplineSet
50 140 m 1
 510 140 l 1
 510 40 l 1
 50 40 l 1
 50 140 l 1
340 200 m 1
 220 200 l 1
 220 350 l 1
 50 350 l 1
 50 450 l 1
 220 450 l 1
 220 600 l 1
 340 600 l 1
 340 450 l 1
 510 450 l 1
 510 350 l 1
 340 350 l 1
 340 200 l 1
EndSplineSet
EndChar

StartChar: uni00B2
Encoding: 178 178 224
Width: 360
Flags: W
HStem: 560 60<120 320> 910 60<133.363 226.637>
VStem: 40 80<620 658.829 850 900.162> 235 80<796.002 902.927>
LayerCount: 2
Fore
SplineSet
235 850 m 0
 235 888 215 910 180 910 c 0
 145 910 125 888 125 850 c 1
 45 850 l 1
 45 912 99 970 180 970 c 0
 261 970 315 912 315 850 c 0
 315 794 276 758 230 725 c 0
 182 692 120 645 120 620 c 1
 320 620 l 1
 320 560 l 1
 40 560 l 1
 40 620 l 2
 40 678 118 724 165 760 c 0
 206 792 235 809 235 850 c 0
EndSplineSet
EndChar

StartChar: uni00B3
Encoding: 179 179 225
Width: 360
Flags: W
HStem: 550 60<131.344 238.656> 735 60<130 233.488> 910 60<138.363 231.637>
VStem: 40 80<621.526 672> 50 80<850 902.748> 240 80<801.391 902.927> 250 80<620.945 724.818>
LayerCount: 2
Fore
SplineSet
40 672 m 1xf2
 120 672 l 1
 120 631 148 610 185 610 c 0
 222 610 250 631 250 672.5 c 0xf2
 250 714 222 735 185 735 c 2
 130 735 l 1
 130 795 l 1
 185 795 l 2
 216 795 240 812 240 850 c 0
 240 888 220 910 185 910 c 0
 150 910 130 888 130 850 c 1
 50 850 l 1
 50 912 104 970 185 970 c 0
 266 970 320 912 320 850 c 0xec
 320 818 306 788 280 766 c 1
 311 744 330 710 330 672 c 0
 330 604 280 550 185 550 c 0
 90 550 40 604 40 672 c 1xf2
EndSplineSet
EndChar

StartChar: periodcentered
Encoding: 183 183 226
Width: 320
VWidth: 0
Flags: W
HStem: 210 200<92.4561 227.544>
VStem: 60 200<242.456 377.544>
LayerCount: 2
Fore
SplineSet
260 310 m 0
 260 254 216 210 160 210 c 0
 104 210 60 254 60 310 c 0
 60 366 104 410 160 410 c 0
 216 410 260 366 260 310 c 0
EndSplineSet
EndChar

StartChar: uni00B9
Encoding: 185 185 227
Width: 290
Flags: W
HStem: 808 62<30 114.362>
VStem: 160 80<560 860 910.869 960>
LayerCount: 2
Fore
SplineSet
160 860 m 1
 140 828 80 808 30 808 c 1
 30 870 l 1
 88 870 160 913 160 960 c 1
 240 960 l 1
 240 560 l 1
 160 560 l 1
 160 860 l 1
EndSplineSet
EndChar

StartChar: ordmasculine
Encoding: 186 186 228
Width: 360
VWidth: 0
Flags: W
HStem: 550 60<120.996 229.004> 810 60<122.119 227.881>
VStem: 30 80<620.135 798.415> 240 80<620.135 798.415>
LayerCount: 2
Fore
SplineSet
175 870 m 0
 262 870 320 814 320 735 c 2
 320 675 l 2
 320 598 262 550 175 550 c 0
 88 550 30 598 30 675 c 2
 30 735 l 2
 30 814 88 870 175 870 c 0
175 810 m 0
 142 810 110 794 110 735 c 2
 110 675 l 2
 110 626 140 610 175 610 c 0
 210 610 240 626 240 675 c 2
 240 735 l 2
 240 794 208 810 175 810 c 0
EndSplineSet
EndChar

StartChar: questiondown
Encoding: 191 191 229
Width: 600
VWidth: 0
Flags: W
HStem: -20 120<202.732 357.268> 600 200<212.059 347.941>
VStem: 10 160<133 280.036> 180 200<632.059 767.941> 200 160<447.951 540> 390 160<133 272.392>
LayerCount: 2
Fore
SplineSet
378 267 m 1xec
 530 314 l 1
 543 285 550 243 550 210 c 0
 550 77 436 -20 280 -20 c 0
 124 -20 10 77 10 210 c 0
 10 321 86 381 155 430 c 0
 197 460 200 488 200 540 c 1
 360 540 l 1
 360 447 353 405 280 355 c 0
 228 319 170 270 170 210 c 0
 170 144 204 100 280 100 c 0
 356 100 390 144 390 210 c 0
 390 231 386 247 378 267 c 1xec
180 700 m 0xf4
 180 757 223 800 280 800 c 0
 337 800 380 757 380 700 c 0
 380 643 337 600 280 600 c 0
 223 600 180 643 180 700 c 0xf4
EndSplineSet
EndChar

StartChar: dagger
Encoding: 8224 8224 230
Width: 580
VWidth: 0
Flags: W
HStem: 530 70<40 240 340 540> 880 20G<240 340>
VStem: 240 100<-270 530 600 900>
LayerCount: 2
Fore
SplineSet
340 900 m 1
 340 600 l 1
 540 600 l 1
 540 530 l 1
 340 530 l 1
 340 -270 l 1
 240 -270 l 1
 240 530 l 1
 40 530 l 1
 40 600 l 1
 240 600 l 1
 240 900 l 1
 340 900 l 1
EndSplineSet
EndChar

StartChar: bullet
Encoding: 8226 8226 231
Width: 440
VWidth: 0
Flags: W
HStem: 150 320<133.923 306.077>
VStem: 60 320<223.923 396.077>
LayerCount: 2
Fore
SplineSet
380 310 m 0
 380 222 308 150 220 150 c 0
 132 150 60 222 60 310 c 0
 60 398 132 470 220 470 c 0
 308 470 380 398 380 310 c 0
EndSplineSet
EndChar

StartChar: uni2010
Encoding: 8208 8208 232
Width: 560
VWidth: 0
Flags: W
HStem: 270 100<50 510>
LayerCount: 2
Fore
SplineSet
50 370 m 1
 510 370 l 1
 510 270 l 1
 50 270 l 1
 50 370 l 1
EndSplineSet
EndChar

StartChar: uni2011
Encoding: 8209 8209 233
Width: 560
VWidth: 0
Flags: W
HStem: 270 100<50 510>
LayerCount: 2
Fore
SplineSet
50 370 m 1
 510 370 l 1
 510 270 l 1
 50 270 l 1
 50 370 l 1
EndSplineSet
EndChar

StartChar: perthousand
Encoding: 8240 8240 234
Width: 1170
VWidth: 0
Flags: W
HStem: -10 100<564.631 637.882 924.631 997.882> 0 21G<70 224> 250 100<564.631 637.882 924.631 997.882> 450 100<174.631 247.882> 710 100<174.631 247.882> 780 20G<616 770>
VStem: 50 110<560.005 699.995> 260 110<559.069 700.931> 440 110<100.005 239.995> 650 110<99.0687 240.931> 800 110<100.005 239.995> 1010 110<99.0687 240.931>
LayerCount: 2
Fore
SplineSet
630 800 m 1x77f0
 770 800 l 1
 210 0 l 1
 70 0 l 1
 630 800 l 1x77f0
210 810 m 0x3bf0
 304 810 370 729 370 630 c 0
 370 531 304 450 210 450 c 0
 116 450 50 531 50 630 c 0
 50 729 116 810 210 810 c 0x3bf0
211 710 m 0
 178 710 160 668 160 630 c 0
 160 592 178 550 211 550 c 0
 244 550 260 592 260 630 c 0
 260 668 244 710 211 710 c 0
600 350 m 0
 694 350 760 269 760 170 c 0
 760 71 694 -10 600 -10 c 0xb3f0
 506 -10 440 71 440 170 c 0
 440 269 506 350 600 350 c 0
601 250 m 0
 568 250 550 208 550 170 c 0
 550 132 568 90 601 90 c 0
 634 90 650 132 650 170 c 0
 650 208 634 250 601 250 c 0
960 350 m 0
 1054 350 1120 269 1120 170 c 0
 1120 71 1054 -10 960 -10 c 0
 866 -10 800 71 800 170 c 0
 800 269 866 350 960 350 c 0
961 250 m 0
 928 250 910 208 910 170 c 0
 910 132 928 90 961 90 c 0
 994 90 1010 132 1010 170 c 0
 1010 208 994 250 961 250 c 0
EndSplineSet
EndChar

StartChar: dotlessi
Encoding: 305 305 235
Width: 320
VWidth: 0
Flags: W
HStem: 0 21G<80 240> 580 20G<80 240>
VStem: 80 160<0 600>
AnchorPoint: "hook_above" 160 680 basechar 0
AnchorPoint: "diac_top" 160 650 basechar 0
AnchorPoint: "ogonek" 170 40 basechar 0
AnchorPoint: "diac_bottom" 160 -50 basechar 0
LayerCount: 2
Fore
SplineSet
80 600 m 1
 240 600 l 1
 240 0 l 1
 80 0 l 1
 80 600 l 1
EndSplineSet
EndChar

StartChar: uni0237
Encoding: 567 567 236
Width: 340
VWidth: 0
Flags: W
HStem: -290 120<-30 72.2527> 580 20G<100 260>
VStem: 100 160<-143.155 600>
AnchorPoint: "diac_top" 180 650 basechar 0
AnchorPoint: "diac_bottom" 358.744 -50 basechar 0
LayerCount: 2
Fore
SplineSet
260 -80 m 2
 260 -212 175 -290 -30 -290 c 1
 -30 -170 l 1
 59 -170 100 -141 100 -80 c 2
 100 600 l 1
 260 600 l 1
 260 -80 l 2
EndSplineSet
EndChar

StartChar: ae
Encoding: 230 230 237
Width: 1060
VWidth: 0
Flags: W
HStem: -20 120<236.839 412.104 647.088 810.702> 270 90<234.413 450 610 850> 500 120<256.565 423.47 649.166 811.669>
VStem: 50 160<128.758 246.027> 450 160<136.277 270 360 458.786> 850 160<138.479 200 360 457.719>
CounterMasks: 1 1c
AnchorPoint: "diac_top" 530 650 basechar 0
AnchorPoint: "diac_bottom" 530 -50 basechar 0
LayerCount: 2
Fore
SplineSet
340 620 m 0
 423 620 493 597 541 557 c 1
 587 595 649 620 730 620 c 0
 920 620 1010 482 1010 360 c 2
 1010 270 l 1
 610 270 l 1
 610 200 l 2
 610 149 652 100 730 100 c 0
 808 100 850 149 850 200 c 1
 1010 200 l 1
 1010 89 909 -20 730 -20 c 0
 635 -20 562 11 514 56 c 1
 466 11 393 -20 290 -20 c 0
 140 -20 50 75 50 185 c 0
 50 316 170 360 300 360 c 2
 450 360 l 1
 450 410 l 2
 450 482 389 500 340 500 c 0
 291 500 230 482 230 410 c 1
 70 410 l 1
 70 537 181 620 340 620 c 0
730 500 m 0
 641 500 610 443 610 360 c 1
 850 360 l 1
 850 443 819 500 730 500 c 0
310 270 m 2
 244 270 210 237 210 185 c 0
 210 145 241 100 320 100 c 0
 376 100 424 123 450 164 c 1
 450 200 l 1
 450 270 l 1
 310 270 l 2
EndSplineSet
EndChar

StartChar: AE
Encoding: 198 198 238
Width: 1000
VWidth: 0
Flags: W
HStem: 0 120<610 960> 150 120<302 450> 340 120<610 920> 680 120<610 950>
VStem: 450 160<120 150 270 340 460 574>
AnchorPoint: "diac_top" 640 850 basechar 0
AnchorPoint: "diac_bottom" 640 -50 basechar 0
LayerCount: 2
Fore
SplineSet
610 120 m 1
 960 120 l 1
 960 0 l 1
 450 0 l 1
 450 150 l 1
 243 150 l 1
 170 0 l 1
 0 0 l 1
 400 800 l 1
 450 800 l 1
 560 800 l 1
 950 800 l 1
 950 680 l 1
 610 680 l 1
 610 460 l 1
 920 460 l 1
 920 340 l 1
 610 340 l 1
 610 120 l 1
450 270 m 1
 450 574 l 1
 302 270 l 1
 450 270 l 1
EndSplineSet
EndChar

StartChar: Aring
Encoding: 197 197 239
Width: 800
VWidth: 0
HStem: 0 21G<0 182.467 617.533 800> 150 120<276 524> 960 80<351.889 448.79>
VStem: 260 80<851.533 948.45> 460 80<850.963 948.863>
AnchorPoint: "diac_top" 400 1030 basechar 0
LayerCount: 2
Fore
SplineSet
524 270 m 1
 400 600 l 1
 276 270 l 1
 524 270 l 1
400 1040 m 0
 478 1040 540 977 540 900 c 0
 540 855 518 814 485 788 c 1
 800 0 l 1
 625 0 l 1
 569 150 l 1
 231 150 l 1
 175 0 l 1
 0 0 l 1
 316 789 l 1
 282 815 260 855 260 900 c 0
 260 977 324 1040 400 1040 c 0
400 960 m 0
 368 960 340 933 340 900 c 0
 340 867 368 840 400 840 c 0
 434 840 460 867 460 900 c 0
 460 933 434 960 400 960 c 0
EndSplineSet
EndChar

StartChar: multiply
Encoding: 215 215 240
Width: 560
VWidth: 0
Flags: W
LayerCount: 2
Fore
SplineSet
46 475 m 1
 124 553 l 1
 279 397 l 1
 435 553 l 1
 513 475 l 1
 357 320 l 1
 513 164 l 1
 435 86 l 1
 279 242 l 1
 124 86 l 1
 46 164 l 1
 202 320 l 1
 46 475 l 1
EndSplineSet
EndChar

StartChar: divide
Encoding: 247 247 241
Width: 560
VWidth: 0
Flags: W
HStem: 60 160<220.847 339.153> 270 100<50 510> 420 160<220.847 339.153>
VStem: 200 160<80.8466 199.153 440.847 559.153>
CounterMasks: 1 e0
LayerCount: 2
Fore
SplineSet
50 370 m 1
 510 370 l 1
 510 270 l 1
 50 270 l 1
 50 370 l 1
360 140 m 0
 360 96 324 60 280 60 c 0
 236 60 200 96 200 140 c 0
 200 184 236 220 280 220 c 0
 324 220 360 184 360 140 c 0
360 500 m 0
 360 456 324 420 280 420 c 0
 236 420 200 456 200 500 c 0
 200 544 236 580 280 580 c 0
 324 580 360 544 360 500 c 0
EndSplineSet
EndChar

StartChar: thorn
Encoding: 254 254 242
Width: 710
VWidth: 0
Flags: W
HStem: -20 120<289.773 447.756> 500 120<303.675 454.432> 880 20G<70 230>
VStem: 70 160<-270 55 136.826 456.565 536 900> 500 160<157.287 452.764>
LayerCount: 2
Fore
SplineSet
230 -270 m 1
 70 -270 l 1
 70 600 l 1
 70 900 l 1
 230 900 l 1
 230 600 l 1
 230 536 l 1
 273 584 333 620 410 620 c 0
 549 620 660 512 660 360 c 2
 660 260 l 2
 660 72 546 -20 390 -20 c 0
 322 -20 269 11 230 55 c 1
 230 -270 l 1
230 411 m 1
 230 176 l 1
 250 131 288 100 360 100 c 0
 462 100 500 165 500 260 c 2
 500 360 l 2
 500 443 462 500 360 500 c 0
 291 500 248 463 230 411 c 1
EndSplineSet
EndChar

StartChar: germandbls
Encoding: 223 223 243
Width: 850
VWidth: 0
Flags: W
HStem: -270 120<270 582.246> 0 21G<110 270> 480 120<10 110 270 610> 780 120<297.747 400>
VStem: 110 160<0 480 600 753.155> 650 160<-85.6209 84.9776>
LayerCount: 2
Fore
SplineSet
470 150 m 2
 370 150 l 1
 370 200 l 1
 610 480 l 1
 270 480 l 1
 270 0 l 1
 110 0 l 1
 110 480 l 1
 10 480 l 1
 10 600 l 1
 110 600 l 1
 110 690 l 2
 110 822 195 900 400 900 c 1
 400 780 l 1
 311 780 270 751 270 690 c 2
 270 600 l 1
 750 600 l 1
 750 480 l 1
 565 262 l 1
 712 237 810 148 810 0 c 0
 810 -178 669 -270 470 -270 c 2
 270 -270 l 1
 270 -150 l 1
 470 -150 l 2
 580 -150 650 -97 650 0 c 0
 650 97 580 150 470 150 c 2
EndSplineSet
EndChar

StartChar: Oslash
Encoding: 216 216 244
Width: 800
VWidth: 0
Flags: W
HStem: -20 120<292.504 504.204> 0 21G<50 165.263> 700 120<297.729 506.275> 780 20G<634.762 750>
VStem: 50 160<225.719 611.28> 590 160<184.731 574.107>
AnchorPoint: "diac_top" 400 850 basechar 0
AnchorPoint: "diac_bottom" 400 -50 basechar 0
LayerCount: 2
Fore
SplineSet
217 223 m 1x2c
 538 651 l 1
 505 683 458 700 400 700 c 0
 283 700 210 629 210 510 c 2
 210 280 l 2
 210 260 213 241 217 223 c 1x2c
261 149 m 1
 294 117 342 100 400 100 c 0x8c
 517 100 590 170 590 280 c 2
 590 510 l 2
 590 534 587 556 582 575 c 1
 261 149 l 1
650 800 m 1x1c
 750 800 l 1
 679 705 l 1
 724 652 750 585 750 510 c 2
 750 280 l 2
 750 98 607 -20 400 -20 c 0x9c
 313 -20 237 1 179 38 c 1
 150 0 l 1
 50 0 l 1
 118 91 l 1
 75 140 50 205 50 280 c 2
 50 510 l 2
 50 686 193 820 400 820 c 0x6c
 486 820 560 797 618 758 c 1
 650 800 l 1x1c
EndSplineSet
EndChar

StartChar: Thorn
Encoding: 222 222 245
Width: 740
VWidth: 0
Flags: W
HStem: 0 21G<70 230> 200 120<230 493.103> 580 120<230 493.103> 780 20G<70 230>
VStem: 70 160<0 200 320 580 700 800> 550 160<369.344 530.818>
LayerCount: 2
Fore
SplineSet
70 800 m 1
 230 800 l 1
 230 700 l 1
 440 700 l 2
 641 700 710 558 710 450 c 0
 710 342 641 200 440 200 c 2
 230 200 l 1
 230 0 l 1
 70 0 l 1
 70 800 l 1
230 580 m 1
 230 320 l 1
 390 320 l 1
 513 321 550 379 550 450 c 0
 550 521 513 580 390 580 c 2
 230 580 l 1
EndSplineSet
EndChar

StartChar: oslash
Encoding: 248 248 246
Width: 660
VWidth: 0
Flags: W
HStem: -20 120<241.696 416.448> 0 21G<40 151.522> 500 120<245.502 413.881> 580 20G<521.5 620>
VStem: 40 160<200.74 452.567> 460 160<144.041 396.343>
AnchorPoint: "diac_top" 340 650 basechar 0
AnchorPoint: "diac_bottom" 318.744 -50 basechar 0
AnchorPoint: "cedilla" 357.004 40 basechar 0
AnchorPoint: "ogonek" 357.004 40 basechar 0
LayerCount: 2
Fore
SplineSet
456 397 m 1x8c
 239 128 l 1
 263 108 295 100 330 100 c 0
 399 100 460 131 460 230 c 2
 460 350 l 2
 460 368 459 383 456 397 c 1x8c
330 500 m 0x2c
 265 500 200 469 200 350 c 2
 200 230 l 2
 200 219 201 210 202 200 c 1
 420 469 l 1
 395 492 363 500 330 500 c 0x2c
525 600 m 1x1c
 620 600 l 1
 559 525 l 1
 598 479 620 419 620 350 c 2
 620 230 l 2
 620 77 504 -20 330 -20 c 0x9c
 261 -20 201 -5 154 23 c 1
 135 0 l 1
 40 0 l 1
 97 70 l 1
 60 112 40 166 40 230 c 2
 40 350 l 2
 40 508 156 620 330 620 c 0x6c
 398 620 457 603 503 573 c 1
 510 582 518 591 525 600 c 1x1c
EndSplineSet
EndChar

StartChar: cedilla
Encoding: 184 184 247
Width: 560
VWidth: 0
Flags: W
HStem: -390 90<186.854 373.146> -180 90<216 373.091>
VStem: 390 120<-280.184 -199.816>
LayerCount: 2
Fore
SplineSet
230 20 m 1
 320 20 l 1
 216 -90 l 1
 280 -90 l 2
 442 -90 510 -162 510 -240 c 0
 510 -318 442 -390 280 -390 c 0
 118 -390 50 -318 50 -240 c 1
 170 -240 l 1
 170 -280 223 -300 280 -300 c 0
 337 -300 390 -280 390 -240 c 0
 390 -200 337 -180 280 -180 c 2
 130 -180 l 1
 100 -120 l 1
 230 20 l 1
EndSplineSet
EndChar

StartChar: ampersand
Encoding: 38 38 248
Width: 800
VWidth: 0
Flags: W
HStem: -20 120<256.408 456.891> 0 21G<603.929 790> 700 120<315.581 432.964>
VStem: 50 160<143.616 287.72> 150 150<561.312 683.387> 450 150<559.137 684.116> 600 150<265.551 380>
LayerCount: 2
Fore
SplineSet
380 820 m 0xa8
 523 820 600 735 600 630 c 0xac
 600 532 532 470 452 424 c 1
 580 264 l 1
 593 297 600 336 600 380 c 1
 750 380 l 1
 750 294 720 215 671 150 c 1
 790 0 l 1
 620 0 l 1x62
 575 56 l 1
 508 8 429 -20 350 -20 c 0
 170 -20 50 72 50 210 c 0xb2
 50 332 145 403 251 457 c 1
 212 491 150 551 150 630 c 0
 150 735 237 820 380 820 c 0xa8
380 700 m 0
 333 700 300 677 300 630 c 0
 300 585 335 544 367 514 c 1
 416 542 450 577 450 630 c 0
 450 669 423 700 380 700 c 0
333 363 m 1
 239 311 210 265 210 210 c 0xb0
 210 149 264 100 350 100 c 0
 401 100 455 118 499 153 c 1
 333 363 l 1
EndSplineSet
EndChar

StartChar: currency
Encoding: 164 164 249
Width: 1040
VWidth: 0
Flags: W
HStem: -20 150<407.555 632.445> 670 150<407.555 632.445>
VStem: 100 150<287.555 512.445> 790 150<287.555 512.445>
LayerCount: 2
Fore
SplineSet
152 881 m 1
 285 748 l 1
 352 794 433 820 520 820 c 0
 607 820 688 794 755 748 c 1
 888 881 l 1
 1001 768 l 1
 868 635 l 1
 913 568 940 487 940 400 c 0
 940 313 913 232 868 165 c 1
 1001 32 l 1
 888 -81 l 1
 755 52 l 1
 688 7 607 -20 520 -20 c 0
 433 -20 352 7 285 52 c 1
 152 -81 l 1
 39 32 l 1
 172 165 l 1
 126 232 100 313 100 400 c 0
 100 487 126 568 172 635 c 1
 39 768 l 1
 152 881 l 1
520 670 m 0
 371 670 250 549 250 400 c 0
 250 251 371 130 520 130 c 0
 669 130 790 251 790 400 c 0
 790 549 669 670 520 670 c 0
EndSplineSet
EndChar

StartChar: uni00B5
Encoding: 181 181 250
Width: 680
VWidth: 0
Flags: W
HStem: -20 120<319.419 443.195> 580 20G<70 230 470 630>
VStem: 70 160<-270 81 141.425 600> 470 160<127.646 600>
LayerCount: 2
Fore
SplineSet
230 -270 m 1
 70 -270 l 1
 70 0 l 1
 70 600 l 1
 230 600 l 1
 230 174 l 1
 256 132 298 100 360 100 c 0
 422 100 470 128 470 190 c 2
 470 600 l 1
 630 600 l 1
 630 190 l 2
 630 59 544 -20 420 -20 c 0
 333 -20 269 35 230 81 c 1
 230 0 l 1
 230 -270 l 1
EndSplineSet
EndChar

StartChar: paragraph
Encoding: 182 182 251
Width: 740
VWidth: 0
Flags: W
HStem: 0 21G<270 430 510 670> 680 120<430 510>
VStem: 30 160<468.654 630.788> 270 160<0 303.731 431 669> 510 160<0 680>
CounterMasks: 1 38
LayerCount: 2
Fore
SplineSet
430 680 m 1
 430 0 l 1
 270 0 l 1
 270 301 l 1
 92 315 30 447 30 550 c 0
 30 658 99 800 300 800 c 2
 670 800 l 1
 670 0 l 1
 510 0 l 1
 510 680 l 1
 430 680 l 1
270 431 m 1
 270 669 l 1
 210 648 190 602 190 550 c 0
 190 498 210 452 270 431 c 1
EndSplineSet
EndChar

StartChar: macron
Encoding: 175 175 252
Width: 560
VWidth: 0
Flags: W
HStem: 700 100<50 510>
LayerCount: 2
Fore
SplineSet
50 800 m 1
 510 800 l 1
 510 700 l 1
 50 700 l 1
 50 800 l 1
EndSplineSet
EndChar

StartChar: logicalnot
Encoding: 172 172 253
Width: 600
VWidth: 0
Flags: W
HStem: 410 190<430 550> 510 90<40 430>
VStem: 430 120<410 510>
LayerCount: 2
Fore
SplineSet
40 600 m 1x60
 550 600 l 1
 550 410 l 1
 430 410 l 1xa0
 430 510 l 1
 40 510 l 1
 40 600 l 1x60
EndSplineSet
EndChar

StartChar: onequarter
Encoding: 188 188 254
Width: 780
VWidth: 0
Flags: W
HStem: 0 21G<40 155 620 700> 68 60<525 620 700 740> 646 63<40 124.362> 779 21G<170 250 625 740>
VStem: 170 80<399 699 749.869 799> 620 80<0 68 128 290>
LayerCount: 2
Fore
SplineSet
170 699 m 1
 150 668 90 646 40 646 c 1
 40 709 l 1
 98 709 170 752 170 799 c 1
 250 799 l 1
 250 399 l 1
 170 399 l 1
 170 699 l 1
525 128 m 1
 620 128 l 1
 620 290 l 1
 525 128 l 1
450 128 m 1
 620 400 l 1
 700 400 l 1
 700 128 l 1
 740 128 l 1
 740 68 l 1
 700 68 l 1
 700 0 l 1
 620 0 l 1
 620 68 l 1
 450 68 l 1
 450 128 l 1
640 800 m 1
 740 800 l 1
 140 0 l 1
 40 0 l 1
 640 800 l 1
EndSplineSet
EndChar

StartChar: onehalf
Encoding: 189 189 255
Width: 780
VWidth: 0
Flags: W
HStem: 0 60<540 740> 350 60<553.363 646.637> 646 63<40 124.362> 779 21G<170 250 625 740>
VStem: 170 80<399 699 749.869 799> 460 80<60 98.8295 290 340.162> 655 80<236.002 342.927>
LayerCount: 2
Fore
SplineSet
170 699 m 1
 150 668 90 646 40 646 c 1
 40 709 l 1
 98 709 170 752 170 799 c 1
 250 799 l 1
 250 399 l 1
 170 399 l 1
 170 699 l 1
655 290 m 0
 655 328 635 350 600 350 c 0
 565 350 545 328 545 290 c 1
 465 290 l 1
 465 352 519 410 600 410 c 0
 681 410 735 352 735 290 c 0
 735 234 696 198 650 165 c 0
 602 132 540 85 540 60 c 1
 740 60 l 1
 740 0 l 1
 460 0 l 1
 460 60 l 2
 460 118 538 164 585 200 c 0
 626 232 655 249 655 290 c 0
640 800 m 1
 740 800 l 1
 140 0 l 1
 40 0 l 1
 640 800 l 1
EndSplineSet
EndChar

StartChar: threequarters
Encoding: 190 190 256
Width: 780
VWidth: 0
Flags: W
HStem: 0 21G<40 155 620 700> 68 60<525 620 700 740> 390 60<131.344 238.656> 575 60<130 233.488> 750 60<138.363 231.637> 780 20G<625 740>
VStem: 40 80<461.526 512> 50 80<690 742.748> 240 80<641.391 742.927> 250 80<460.945 564.818> 620 80<0 68 128 290>
LayerCount: 2
Fore
SplineSet
40 512 m 1xfa60
 120 512 l 1
 120 471 148 450 185 450 c 0
 222 450 250 471 250 512.5 c 0xfa60
 250 554 222 575 185 575 c 2
 130 575 l 1
 130 635 l 1
 185 635 l 2
 216 635 240 652 240 690 c 0
 240 728 220 750 185 750 c 0
 150 750 130 728 130 690 c 1
 50 690 l 1
 50 752 104 810 185 810 c 0
 266 810 320 752 320 690 c 0xf9a0
 320 658 306 628 280 606 c 1
 311 584 330 550 330 512 c 0
 330 444 280 390 185 390 c 0
 90 390 40 444 40 512 c 1xfa60
525 128 m 1
 620 128 l 1
 620 290 l 1
 525 128 l 1
450 128 m 1
 620 400 l 1
 700 400 l 1
 700 128 l 1
 740 128 l 1
 740 68 l 1
 700 68 l 1
 700 0 l 1
 620 0 l 1
 620 68 l 1
 450 68 l 1
 450 128 l 1
640 800 m 1xf620
 740 800 l 1
 140 0 l 1
 40 0 l 1
 640 800 l 1xf620
EndSplineSet
EndChar

StartChar: uni20A9
Encoding: 8361 8361 257
Width: 1160
VWidth: 0
Flags: W
HStem: 0 21G<264 415.85 744.15 896> 400 90<0 123 305 398 554 606 762 855 1037 1160> 600 90<0 63 253 456 704 907 1097 1160> 780 20G<30 205.273 509.182 650.818 954.727 1130>
LayerCount: 2
Fore
SplineSet
554 490 m 1
 606 490 l 1
 580 579 l 1
 554 490 l 1
398 400 m 1
 305 400 l 1
 349 234 l 1
 398 400 l 1
456 600 m 1
 253 600 l 1
 282 490 l 1
 424 490 l 1
 456 600 l 1
855 400 m 1
 762 400 l 1
 811 234 l 1
 855 400 l 1
907 600 m 1
 704 600 l 1
 736 490 l 1
 878 490 l 1
 907 600 l 1
931 690 m 1
 960 800 l 1
 1130 800 l 1
 1097 690 l 1
 1160 690 l 1
 1160 600 l 1
 1070 600 l 1
 1037 490 l 1
 1160 490 l 1
 1160 400 l 1
 1010 400 l 1
 890 0 l 1
 880 0 l 1
 750 0 l 1
 633 400 l 1
 527 400 l 1
 410 0 l 1
 280 0 l 1
 270 0 l 1
 150 400 l 1
 0 400 l 1
 0 490 l 1
 123 490 l 1
 90 600 l 1
 0 600 l 1
 0 690 l 1
 63 690 l 1
 30 800 l 1
 200 800 l 1
 229 690 l 1
 483 690 l 1
 515 800 l 1
 645 800 l 1
 677 690 l 1
 931 690 l 1
EndSplineSet
EndChar

StartChar: uni20B9
Encoding: 8377 8377 258
Width: 720
VWidth: 0
Flags: W
HStem: 0 21G<391.538 590> 515 90<50 362 523.229 670> 710 90<50 304.862 475 670>
VStem: 367 161<450.739 515 605 648.968>
LayerCount: 2
Fore
SplineSet
50 515 m 1
 50 605 l 1
 362 605 l 1
 346 660 302 710 210 710 c 2
 50 710 l 1
 50 800 l 1
 260 800 l 1
 670 800 l 1
 670 710 l 1
 475 710 l 1
 501 678 516 641 524 605 c 1
 670 605 l 1
 670 515 l 1
 528 515 l 1
 515 423 453 321 307 303 c 1
 590 0 l 1
 410 0 l 1
 50 390 l 1
 210 390 l 2
 313 390 356 453 367 515 c 1
 50 515 l 1
EndSplineSet
EndChar

StartChar: odieresis
Encoding: 246 246 259
Width: 660
VWidth: 0
Flags: W
HStem: -20 120<243.552 416.448> 500 120<245.502 414.498> 680 180<126.25 253.75 426.25 553.75>
VStem: 40 160<144.041 452.567> 100 180<706.25 833.75> 400 180<706.25 833.75> 460 160<144.041 452.567>
AnchorPoint: "diac_top" 340 830 basechar 0
AnchorPoint: "diac_bottom" 318.744 -50 basechar 0
LayerCount: 2
Fore
SplineSet
330 620 m 0xf2
 504 620 620 508 620 350 c 2
 620 230 l 2
 620 77 504 -20 330 -20 c 0
 156 -20 40 77 40 230 c 2
 40 350 l 2
 40 508 156 620 330 620 c 0xf2
330 500 m 0
 265 500 200 469 200 350 c 2
 200 230 l 2
 200 131 261 100 330 100 c 0
 399 100 460 131 460 230 c 2
 460 350 l 2
 460 469 395 500 330 500 c 0
280 770 m 0xe8
 280 720 240 680 190 680 c 0
 140 680 100 720 100 770 c 0
 100 820 140 860 190 860 c 0
 240 860 280 820 280 770 c 0xe8
580 770 m 0xe4
 580 720 540 680 490 680 c 0
 440 680 400 720 400 770 c 0
 400 820 440 860 490 860 c 0
 540 860 580 820 580 770 c 0xe4
EndSplineSet
EndChar

StartChar: uni0337
Encoding: 823 823 260
Width: 0
VWidth: 0
Flags: W
HStem: 0 21G<-630 -518.833> 580 20G<-161.167 -50>
LayerCount: 2
Fore
SplineSet
-145 600 m 1
 -50 600 l 1
 -535 0 l 1
 -630 0 l 1
 -145 600 l 1
EndSplineSet
EndChar

StartChar: uni0338
Encoding: 824 824 261
Width: 0
VWidth: 0
Flags: W
HStem: 0 21G<-760 -645> 780 20G<-175 -60>
LayerCount: 2
Fore
SplineSet
-160 800 m 1
 -60 800 l 1
 -660 0 l 1
 -760 0 l 1
 -160 800 l 1
EndSplineSet
EndChar

StartChar: dieresis
Encoding: 168 168 262
Width: 680
VWidth: 0
Flags: W
HStem: 630 180<126.25 253.75 426.25 553.75>
VStem: 100 180<656.25 783.75> 400 180<656.25 783.75>
LayerCount: 2
Fore
SplineSet
280 720 m 0
 280 670 240 630 190 630 c 0
 140 630 100 670 100 720 c 0
 100 770 140 810 190 810 c 0
 240 810 280 770 280 720 c 0
580 720 m 0
 580 670 540 630 490 630 c 0
 440 630 400 670 400 720 c 0
 400 770 440 810 490 810 c 0
 540 810 580 770 580 720 c 0
EndSplineSet
EndChar

StartChar: idieresis
Encoding: 239 239 263
Width: 320
VWidth: 0
HStem: 0 21G<80 240> 580 20G<80 240> 680 180<-53.75 73.75 246.25 373.75>
VStem: -80 180<706.25 833.75> 80 160<0 600> 220 180<706.25 833.75>
AnchorPoint: "diac_top" 160 830 basechar 0
LayerCount: 2
Fore
SplineSet
80 600 m 1xe8
 240 600 l 1
 240 0 l 1
 80 0 l 1
 80 600 l 1xe8
100 770 m 0xf0
 100 720 60 680 10 680 c 0
 -40 680 -80 720 -80 770 c 0
 -80 820 -40 860 10 860 c 0
 60 860 100 820 100 770 c 0xf0
400 770 m 0xe4
 400 720 360 680 310 680 c 0
 260 680 220 720 220 770 c 0
 220 820 260 860 310 860 c 0
 360 860 400 820 400 770 c 0xe4
EndSplineSet
EndChar

StartChar: Adieresis
Encoding: 196 196 264
Width: 800
VWidth: 0
HStem: 0 21G<0 182.467 617.533 800> 150 120<276 524> 780 20G<312 488> 880 180<186.25 313.75 486.25 613.75>
VStem: 160 180<906.25 1033.75> 460 180<906.25 1033.75>
AnchorPoint: "diac_top" 400 1030 basechar 0
LayerCount: 2
Fore
SplineSet
800 0 m 1
 625 0 l 1
 569 150 l 1
 231 150 l 1
 175 0 l 1
 0 0 l 1
 320 800 l 1
 325 800 l 1
 475 800 l 1
 480 800 l 1
 800 0 l 1
524 270 m 1
 400 600 l 1
 276 270 l 1
 524 270 l 1
340 970 m 0
 340 920 300 880 250 880 c 0
 200 880 160 920 160 970 c 0
 160 1020 200 1060 250 1060 c 0
 300 1060 340 1020 340 970 c 0
640 970 m 0
 640 920 600 880 550 880 c 0
 500 880 460 920 460 970 c 0
 460 1020 500 1060 550 1060 c 0
 600 1060 640 1020 640 970 c 0
EndSplineSet
EndChar

StartChar: Edieresis
Encoding: 203 203 265
Width: 670
VWidth: 0
HStem: 0 120<230 630> 340 120<230 590> 680 120<230 620> 880 180<136.25 263.75 436.25 563.75>
VStem: 70 160<120 340 460 680> 110 180<906.25 1033.75> 410 180<906.25 1033.75>
AnchorPoint: "diac_bottom" 328.744 -50 basechar 0
LayerCount: 2
Fore
SplineSet
230 120 m 1xfa
 630 120 l 1
 630 0 l 1
 230 0 l 1
 70 0 l 1
 70 120 l 1
 70 340 l 1
 70 460 l 1
 70 680 l 1
 70 800 l 1
 230 800 l 1
 620 800 l 1
 620 680 l 1
 230 680 l 1
 230 460 l 1
 590 460 l 1
 590 340 l 1
 230 340 l 1
 230 120 l 1xfa
290 970 m 0xf6
 290 920 250 880 200 880 c 0
 150 880 110 920 110 970 c 0
 110 1020 150 1060 200 1060 c 0
 250 1060 290 1020 290 970 c 0xf6
590 970 m 0
 590 920 550 880 500 880 c 0
 450 880 410 920 410 970 c 0
 410 1020 450 1060 500 1060 c 0
 550 1060 590 1020 590 970 c 0
EndSplineSet
EndChar

StartChar: Odieresis
Encoding: 214 214 266
Width: 800
VWidth: 0
Flags: W
HStem: -20 120<295.796 504.204> 700 120<297.729 502.271> 880 180<196.25 323.75 496.25 623.75>
VStem: 50 160<184.731 611.28> 170 180<906.25 1033.75> 470 180<906.25 1033.75> 590 160<184.731 611.667>
AnchorPoint: "diac_top" 400 1030 basechar 0
LayerCount: 2
Fore
SplineSet
750 510 m 2xf2
 750 280 l 2
 750 98 607 -20 400 -20 c 0
 193 -20 50 98 50 280 c 2
 50 510 l 2
 50 686 193 820 400 820 c 0
 607 820 750 687 750 510 c 2xf2
590 510 m 2
 590 629 517 700 400 700 c 0
 283 700 210 629 210 510 c 2
 210 280 l 2
 210 170 283 100 400 100 c 0
 517 100 590 170 590 280 c 2
 590 510 l 2
350 970 m 0xe8
 350 920 310 880 260 880 c 0
 210 880 170 920 170 970 c 0
 170 1020 210 1060 260 1060 c 0
 310 1060 350 1020 350 970 c 0xe8
650 970 m 0xe4
 650 920 610 880 560 880 c 0
 510 880 470 920 470 970 c 0
 470 1020 510 1060 560 1060 c 0
 610 1060 650 1020 650 970 c 0xe4
EndSplineSet
EndChar

StartChar: Udieresis
Encoding: 220 220 267
Width: 800
VWidth: 0
HStem: -20 120<296.384 503.616> 780 20G<60 220 580 740> 880 180<186.25 313.75 486.25 613.75>
VStem: 60 160<179.904 800> 160 180<906.25 1033.75> 460 180<906.25 1033.75> 580 160<179.904 800>
AnchorPoint: "diac_top" 400 1030 basechar 0
LayerCount: 2
Fore
SplineSet
60 800 m 1xf2
 220 800 l 1
 220 280 l 2
 220 141 317 100 400 100 c 0
 483 100 580 141 580 280 c 2
 580 800 l 1
 740 800 l 1
 740 280 l 2
 740 85 593 -20 400 -20 c 0
 207 -20 60 85 60 280 c 2
 60 800 l 1xf2
340 970 m 0xe8
 340 920 300 880 250 880 c 0
 200 880 160 920 160 970 c 0
 160 1020 200 1060 250 1060 c 0
 300 1060 340 1020 340 970 c 0xe8
640 970 m 0xe4
 640 920 600 880 550 880 c 0
 500 880 460 920 460 970 c 0
 460 1020 500 1060 550 1060 c 0
 600 1060 640 1020 640 970 c 0xe4
EndSplineSet
EndChar

StartChar: adieresis
Encoding: 228 228 268
Width: 700
VWidth: 0
HStem: -20 120<236.839 411.583> 270 90<234.413 450> 500 120<256.565 423.435> 680 180<126.25 253.75 426.25 553.75>
VStem: 50 160<128.758 246.027> 100 180<706.25 833.75> 400 180<706.25 833.75> 450 160<135.628 270 360 471.387>
AnchorPoint: "diac_top" 340 830 basechar 0
AnchorPoint: "diac_bottom" 328.744 -50 basechar 0
LayerCount: 2
Fore
SplineSet
230 410 m 1xf9
 70 410 l 1
 70 537 181 620 340 620 c 0
 499 620 610 537 610 410 c 2
 610 180 l 2
 610 126 623 110 660 110 c 1
 660 -10 l 1
 564 -10 503 6 473 46 c 1
 429 6 368 -20 290 -20 c 0
 140 -20 50 75 50 185 c 0
 50 316 170 360 300 360 c 2
 450 360 l 1
 450 410 l 2
 450 482 389 500 340 500 c 0
 291 500 230 482 230 410 c 1xf9
450 270 m 1
 310 270 l 2
 244 270 210 237 210 185 c 0
 210 145 241 100 320 100 c 0
 376 100 424 123 450 165 c 1
 450 270 l 1
280 770 m 0xf4
 280 720 240 680 190 680 c 0
 140 680 100 720 100 770 c 0
 100 820 140 860 190 860 c 0
 240 860 280 820 280 770 c 0xf4
580 770 m 0xf2
 580 720 540 680 490 680 c 0
 440 680 400 720 400 770 c 0
 400 820 440 860 490 860 c 0
 540 860 580 820 580 770 c 0xf2
EndSplineSet
EndChar

StartChar: edieresis
Encoding: 235 235 269
Width: 680
VWidth: 0
HStem: -20 120<253.175 426.825> 270 90<210 470> 500 120<256.198 423.802> 680 180<126.25 253.75 426.25 553.75>
VStem: 50 160<143.486 270 360 452.094> 100 180<706.25 833.75> 400 180<706.25 833.75> 470 160<143.486 200 360 452.094>
AnchorPoint: "diac_top" 340 830 basechar 0
LayerCount: 2
Fore
SplineSet
470 360 m 1xf9
 470 443 429 500 340 500 c 0
 251 500 210 443 210 360 c 1
 470 360 l 1xf9
630 360 m 2
 630 270 l 1
 210 270 l 1
 210 200 l 2
 210 149 262 100 340 100 c 0
 418 100 470 149 470 200 c 1
 630 200 l 1
 630 89 519 -20 340 -20 c 0
 161 -20 50 89 50 200 c 2
 50 360 l 2
 50 482 150 620 340 620 c 0
 530 620 630 482 630 360 c 2
280 770 m 0xf4
 280 720 240 680 190 680 c 0
 140 680 100 720 100 770 c 0
 100 820 140 860 190 860 c 0
 240 860 280 820 280 770 c 0xf4
580 770 m 0xf2
 580 720 540 680 490 680 c 0
 440 680 400 720 400 770 c 0
 400 820 440 860 490 860 c 0
 540 860 580 820 580 770 c 0xf2
EndSplineSet
EndChar

StartChar: udieresis
Encoding: 252 252 270
Width: 660
VWidth: 0
HStem: -20 120<256.279 403.721> 580 20G<60 220 440 600> 680 180<116.25 243.75 416.25 543.75>
VStem: 60 160<134.394 600> 90 180<706.25 833.75> 390 180<706.25 833.75> 440 160<134.394 600>
AnchorPoint: "diac_top" 330 830 basechar 0
LayerCount: 2
Fore
SplineSet
220 200 m 2xf2
 220 133 274 100 330 100 c 0
 386 100 440 133 440 200 c 2
 440 600 l 1
 600 600 l 1
 600 200 l 2
 600 78 491 -20 330 -20 c 0
 169 -20 60 78 60 200 c 2
 60 600 l 1
 220 600 l 1
 220 200 l 2xf2
270 770 m 0xe8
 270 720 230 680 180 680 c 0
 130 680 90 720 90 770 c 0
 90 820 130 860 180 860 c 0
 230 860 270 820 270 770 c 0xe8
570 770 m 0xe4
 570 720 530 680 480 680 c 0
 430 680 390 720 390 770 c 0
 390 820 430 860 480 860 c 0
 530 860 570 820 570 770 c 0xe4
EndSplineSet
EndChar

StartChar: ydieresis
Encoding: 255 255 271
Width: 660
VWidth: 0
HStem: -290 120<70 180.04> 580 20G<10 186.993 473.007 650> 680 180<116.25 243.75 416.25 543.75>
VStem: 90 180<706.25 833.75> 390 180<706.25 833.75>
LayerCount: 2
Fore
SplineSet
480 600 m 1
 650 600 l 1
 410 0 l 1
 340 -180 l 1
 307 -252 256 -290 70 -290 c 1
 70 -170 l 1
 152 -170 172 -164 200 -120 c 1
 250 0 l 1
 10 600 l 1
 180 600 l 1
 330 171 l 1
 480 600 l 1
270 770 m 0
 270 720 230 680 180 680 c 0
 130 680 90 720 90 770 c 0
 90 820 130 860 180 860 c 0
 230 860 270 820 270 770 c 0
570 770 m 0
 570 720 530 680 480 680 c 0
 430 680 390 720 390 770 c 0
 390 820 430 860 480 860 c 0
 530 860 570 820 570 770 c 0
EndSplineSet
EndChar

StartChar: iacute
Encoding: 237 237 272
Width: 320
VWidth: 0
HStem: 0 21G<80 240> 580 20G<80 240>
VStem: 80 160<0 600>
AnchorPoint: "diac_top" 160 830 basechar 0
LayerCount: 2
Fore
SplineSet
80 600 m 1
 240 600 l 1
 240 0 l 1
 80 0 l 1
 80 600 l 1
370 860 m 1
 120 680 l 1
 10 680 l 1
 180 860 l 1
 370 860 l 1
EndSplineSet
EndChar

StartChar: igrave
Encoding: 236 236 273
Width: 320
VWidth: 0
HStem: 0 21G<80 240> 580 20G<80 240>
VStem: 80 160<0 600>
AnchorPoint: "diac_top" 160 830 basechar 0
LayerCount: 2
Fore
SplineSet
80 600 m 1
 240 600 l 1
 240 0 l 1
 80 0 l 1
 80 600 l 1
-70 860 m 1
 120 860 l 1
 290 680 l 1
 180 680 l 1
 -70 860 l 1
EndSplineSet
EndChar

StartChar: Agrave
Encoding: 192 192 274
Width: 800
VWidth: 0
HStem: 0 21G<0 182.467 617.533 800> 150 120<276 524> 780 20G<312 488>
AnchorPoint: "diac_top" 400 1030 basechar 0
LayerCount: 2
Fore
SplineSet
800 0 m 1
 625 0 l 1
 569 150 l 1
 231 150 l 1
 175 0 l 1
 0 0 l 1
 320 800 l 1
 325 800 l 1
 475 800 l 1
 480 800 l 1
 800 0 l 1
524 270 m 1
 400 600 l 1
 276 270 l 1
 524 270 l 1
170 1060 m 1
 360 1060 l 1
 530 880 l 1
 420 880 l 1
 170 1060 l 1
EndSplineSet
EndChar

StartChar: Aacute
Encoding: 193 193 275
Width: 800
VWidth: 0
HStem: 0 21G<0 182.467 617.533 800> 150 120<276 524> 780 20G<312 488>
AnchorPoint: "diac_top" 400 1030 basechar 0
LayerCount: 2
Fore
SplineSet
800 0 m 1
 625 0 l 1
 569 150 l 1
 231 150 l 1
 175 0 l 1
 0 0 l 1
 320 800 l 1
 325 800 l 1
 475 800 l 1
 480 800 l 1
 800 0 l 1
524 270 m 1
 400 600 l 1
 276 270 l 1
 524 270 l 1
610 1060 m 1
 360 880 l 1
 250 880 l 1
 420 1060 l 1
 610 1060 l 1
EndSplineSet
EndChar

StartChar: Acircumflex
Encoding: 194 194 276
Width: 800
VWidth: 0
HStem: 0 21G<0 182.467 617.533 800> 150 120<276 524> 780 20G<312 488>
AnchorPoint: "diac_top" 400 1030 basechar 0
AnchorPoint: "hook_above" 400 1030 basechar 0
LayerCount: 2
Fore
SplineSet
800 0 m 1
 625 0 l 1
 569 150 l 1
 231 150 l 1
 175 0 l 1
 0 0 l 1
 320 800 l 1
 325 800 l 1
 475 800 l 1
 480 800 l 1
 800 0 l 1
524 270 m 1
 400 600 l 1
 276 270 l 1
 524 270 l 1
310 880 m 1
 160 880 l 1
 340 1060 l 1
 360 1060 l 1
 440 1060 l 1
 460 1060 l 1
 640 880 l 1
 490 880 l 1
 400 1005 l 1
 310 880 l 1
EndSplineSet
EndChar

StartChar: Atilde
Encoding: 195 195 277
Width: 800
VWidth: 0
HStem: 0 21G<0 182.467 617.533 800> 150 120<276 524> 780 20G<312 488> 870 90<443.957 546.328> 960 90<253.672 356.043>
VStem: 170 65<898.708 942.436> 565 65<977.564 1021.29>
AnchorPoint: "diac_top" 400 1030 basechar 0
LayerCount: 2
Fore
SplineSet
800 0 m 1xe6
 625 0 l 1
 569 150 l 1
 231 150 l 1
 175 0 l 1
 0 0 l 1
 320 800 l 1
 325 800 l 1
 475 800 l 1
 480 800 l 1
 800 0 l 1xe6
524 270 m 1
 400 600 l 1
 276 270 l 1
 524 270 l 1
315 1050 m 0xee
 356 1050 392 1039 425 1005 c 0
 455 974 466 960 500 960 c 0
 540 960 561 1003 565 1030 c 1
 630 1020 l 1
 620 943 571 870 485 870 c 0xf6
 444 870 408 881 375 915 c 0
 345 946 334 960 300 960 c 0
 260 960 239 917 235 890 c 1
 170 900 l 1
 180 977 229 1050 315 1050 c 0xee
EndSplineSet
EndChar

StartChar: Igrave
Encoding: 204 204 278
Width: 320
VWidth: 0
HStem: 0 21G<80 240> 780 20G<80 240>
VStem: 80 160<0 800>
AnchorPoint: "diac_top" 160 1030 basechar 0
AnchorPoint: "diac_bottom" 160 -50 basechar 0
LayerCount: 2
Fore
SplineSet
80 800 m 1
 240 800 l 1
 240 0 l 1
 80 0 l 1
 80 800 l 1
-70 1060 m 1
 120 1060 l 1
 290 880 l 1
 180 880 l 1
 -70 1060 l 1
EndSplineSet
EndChar

StartChar: Iacute
Encoding: 205 205 279
Width: 320
VWidth: 0
HStem: 0 21G<80 240> 780 20G<80 240>
VStem: 80 160<0 800>
AnchorPoint: "diac_bottom" 160 -50 basechar 0
AnchorPoint: "diac_top" 160 1030 basechar 0
LayerCount: 2
Fore
SplineSet
80 800 m 1
 240 800 l 1
 240 0 l 1
 80 0 l 1
 80 800 l 1
370 1060 m 1
 120 880 l 1
 10 880 l 1
 180 1060 l 1
 370 1060 l 1
EndSplineSet
EndChar

StartChar: Icircumflex
Encoding: 206 206 280
Width: 320
VWidth: 0
HStem: 0 21G<80 240> 780 20G<80 240>
VStem: 80 160<0 800>
AnchorPoint: "diac_bottom" 160 -50 basechar 0
AnchorPoint: "diac_top" 160 1030 basechar 0
LayerCount: 2
Fore
SplineSet
80 800 m 1
 240 800 l 1
 240 0 l 1
 80 0 l 1
 80 800 l 1
70 880 m 1
 -80 880 l 1
 100 1060 l 1
 120 1060 l 1
 200 1060 l 1
 220 1060 l 1
 400 880 l 1
 250 880 l 1
 160 1005 l 1
 70 880 l 1
EndSplineSet
EndChar

StartChar: Idieresis
Encoding: 207 207 281
Width: 320
VWidth: 0
HStem: 0 21G<80 240> 780 20G<80 240> 880 180<-53.75 73.75 246.25 373.75>
VStem: -80 180<906.25 1033.75> 80 160<0 800> 220 180<906.25 1033.75>
AnchorPoint: "diac_top" 160 1030 basechar 0
AnchorPoint: "diac_bottom" 160 -50 basechar 0
LayerCount: 2
Fore
SplineSet
80 800 m 1xe8
 240 800 l 1
 240 0 l 1
 80 0 l 1
 80 800 l 1xe8
100 970 m 0xf0
 100 920 60 880 10 880 c 0
 -40 880 -80 920 -80 970 c 0
 -80 1020 -40 1060 10 1060 c 0
 60 1060 100 1020 100 970 c 0xf0
400 970 m 0xe4
 400 920 360 880 310 880 c 0
 260 880 220 920 220 970 c 0
 220 1020 260 1060 310 1060 c 0
 360 1060 400 1020 400 970 c 0xe4
EndSplineSet
EndChar

StartChar: Ntilde
Encoding: 209 209 282
Width: 800
VWidth: 0
HStem: 0 21G<70 230 557.857 730> 780 20G<70 242.143 570 730> 870 90<453.957 556.328> 960 90<263.672 366.043>
VStem: 70 160<0 560> 180 65<898.708 942.436> 570 160<240 800> 575 65<977.564 1021.29>
LayerCount: 2
Fore
SplineSet
230 0 m 1xca
 70 0 l 1
 70 800 l 1
 230 800 l 1
 570 240 l 1
 570 800 l 1
 730 800 l 1
 730 0 l 1
 570 0 l 1
 230 560 l 1
 230 0 l 1xca
325 1050 m 0xd5
 366 1050 402 1039 435 1005 c 0
 465 974 476 960 510 960 c 0
 550 960 571 1003 575 1030 c 1
 640 1020 l 1
 630 943 581 870 495 870 c 0xe5
 454 870 418 881 385 915 c 0
 355 946 344 960 310 960 c 0
 270 960 249 917 245 890 c 1
 180 900 l 1
 190 977 239 1050 325 1050 c 0xd5
EndSplineSet
EndChar

StartChar: Ograve
Encoding: 210 210 283
Width: 800
VWidth: 0
Flags: W
HStem: -20 120<295.796 504.204> 700 120<297.729 502.271>
VStem: 50 160<184.731 611.28> 590 160<184.731 611.667>
AnchorPoint: "diac_top" 400 1030 basechar 0
LayerCount: 2
Fore
SplineSet
750 510 m 2
 750 280 l 2
 750 98 607 -20 400 -20 c 0
 193 -20 50 98 50 280 c 2
 50 510 l 2
 50 686 193 820 400 820 c 0
 607 820 750 687 750 510 c 2
590 510 m 2
 590 629 517 700 400 700 c 0
 283 700 210 629 210 510 c 2
 210 280 l 2
 210 170 283 100 400 100 c 0
 517 100 590 170 590 280 c 2
 590 510 l 2
180 1060 m 1
 370 1060 l 1
 540 880 l 1
 430 880 l 1
 180 1060 l 1
EndSplineSet
EndChar

StartChar: Oacute
Encoding: 211 211 284
Width: 800
VWidth: 0
Flags: W
HStem: -20 120<295.796 504.204> 700 120<297.729 502.271>
VStem: 50 160<184.731 611.28> 590 160<184.731 611.667>
AnchorPoint: "diac_top" 400 1030 basechar 0
LayerCount: 2
Fore
SplineSet
750 510 m 2
 750 280 l 2
 750 98 607 -20 400 -20 c 0
 193 -20 50 98 50 280 c 2
 50 510 l 2
 50 686 193 820 400 820 c 0
 607 820 750 687 750 510 c 2
590 510 m 2
 590 629 517 700 400 700 c 0
 283 700 210 629 210 510 c 2
 210 280 l 2
 210 170 283 100 400 100 c 0
 517 100 590 170 590 280 c 2
 590 510 l 2
620 1060 m 1
 370 880 l 1
 260 880 l 1
 430 1060 l 1
 620 1060 l 1
EndSplineSet
EndChar

StartChar: Ocircumflex
Encoding: 212 212 285
Width: 800
VWidth: 0
Flags: W
HStem: -20 120<295.796 504.204> 700 120<297.729 502.271>
VStem: 50 160<184.731 611.28> 590 160<184.731 611.667>
AnchorPoint: "diac_top" 400 1030 basechar 0
AnchorPoint: "hook_above" 400 1030 basechar 0
LayerCount: 2
Fore
SplineSet
750 510 m 2
 750 280 l 2
 750 98 607 -20 400 -20 c 0
 193 -20 50 98 50 280 c 2
 50 510 l 2
 50 686 193 820 400 820 c 0
 607 820 750 687 750 510 c 2
590 510 m 2
 590 629 517 700 400 700 c 0
 283 700 210 629 210 510 c 2
 210 280 l 2
 210 170 283 100 400 100 c 0
 517 100 590 170 590 280 c 2
 590 510 l 2
320 880 m 1
 170 880 l 1
 350 1060 l 1
 370 1060 l 1
 450 1060 l 1
 470 1060 l 1
 650 880 l 1
 500 880 l 1
 410 1005 l 1
 320 880 l 1
EndSplineSet
EndChar

StartChar: Otilde
Encoding: 213 213 286
Width: 800
VWidth: 0
Flags: W
HStem: -20 120<295.796 504.204> 700 120<297.729 502.271> 870 90<453.957 556.328> 960 90<263.672 366.043>
VStem: 50 160<184.731 611.28> 180 65<898.708 942.436> 575 65<977.564 1021.29> 590 160<184.731 611.667>
AnchorPoint: "diac_top" 400 1030 basechar 0
LayerCount: 2
Fore
SplineSet
750 510 m 2xc9
 750 280 l 2
 750 98 607 -20 400 -20 c 0
 193 -20 50 98 50 280 c 2
 50 510 l 2
 50 686 193 820 400 820 c 0
 607 820 750 687 750 510 c 2xc9
590 510 m 2
 590 629 517 700 400 700 c 0
 283 700 210 629 210 510 c 2
 210 280 l 2
 210 170 283 100 400 100 c 0
 517 100 590 170 590 280 c 2
 590 510 l 2
325 1050 m 0xd6
 366 1050 402 1039 435 1005 c 0
 465 974 476 960 510 960 c 0
 550 960 571 1003 575 1030 c 1
 640 1020 l 1
 630 943 581 870 495 870 c 0xe6
 454 870 418 881 385 915 c 0
 355 946 344 960 310 960 c 0
 270 960 249 917 245 890 c 1
 180 900 l 1
 190 977 239 1050 325 1050 c 0xd6
EndSplineSet
EndChar

StartChar: Ugrave
Encoding: 217 217 287
Width: 800
VWidth: 0
HStem: -20 120<296.384 503.616> 780 20G<60 220 580 740>
VStem: 60 160<179.904 800> 580 160<179.904 800>
LayerCount: 2
Fore
SplineSet
60 800 m 1
 220 800 l 1
 220 280 l 2
 220 141 317 100 400 100 c 0
 483 100 580 141 580 280 c 2
 580 800 l 1
 740 800 l 1
 740 280 l 2
 740 85 593 -20 400 -20 c 0
 207 -20 60 85 60 280 c 2
 60 800 l 1
170 1060 m 1
 360 1060 l 1
 530 880 l 1
 420 880 l 1
 170 1060 l 1
EndSplineSet
EndChar

StartChar: Uacute
Encoding: 218 218 288
Width: 800
VWidth: 0
HStem: -20 120<296.384 503.616> 780 20G<60 220 580 740>
VStem: 60 160<179.904 800> 580 160<179.904 800>
LayerCount: 2
Fore
SplineSet
60 800 m 1
 220 800 l 1
 220 280 l 2
 220 141 317 100 400 100 c 0
 483 100 580 141 580 280 c 2
 580 800 l 1
 740 800 l 1
 740 280 l 2
 740 85 593 -20 400 -20 c 0
 207 -20 60 85 60 280 c 2
 60 800 l 1
610 1060 m 1
 360 880 l 1
 250 880 l 1
 420 1060 l 1
 610 1060 l 1
EndSplineSet
EndChar

StartChar: Ucircumflex
Encoding: 219 219 289
Width: 800
VWidth: 0
HStem: -20 120<296.384 503.616> 780 20G<60 220 580 740>
VStem: 60 160<179.904 800> 580 160<179.904 800>
AnchorPoint: "hook_above" 823.615 1020 basechar 0
LayerCount: 2
Fore
SplineSet
60 800 m 1
 220 800 l 1
 220 280 l 2
 220 141 317 100 400 100 c 0
 483 100 580 141 580 280 c 2
 580 800 l 1
 740 800 l 1
 740 280 l 2
 740 85 593 -20 400 -20 c 0
 207 -20 60 85 60 280 c 2
 60 800 l 1
310 880 m 1
 160 880 l 1
 340 1060 l 1
 360 1060 l 1
 440 1060 l 1
 460 1060 l 1
 640 880 l 1
 490 880 l 1
 400 1005 l 1
 310 880 l 1
EndSplineSet
EndChar

StartChar: Yacute
Encoding: 221 221 290
Width: 700
VWidth: 0
HStem: 0 21G<270 430> 780 20G<0 189.444 510.556 700>
VStem: 270 160<0 290>
AnchorPoint: "diac_top" 350 850 basechar 0
LayerCount: 2
Fore
SplineSet
0 800 m 1
 180 800 l 1
 350 440 l 1
 520 800 l 1
 700 800 l 1
 430 290 l 1
 430 0 l 1
 270 0 l 1
 270 290 l 1
 0 800 l 1
655 1060 m 1
 405 880 l 1
 295 880 l 1
 465 1060 l 1
 655 1060 l 1
EndSplineSet
EndChar

StartChar: agrave
Encoding: 224 224 291
Width: 700
VWidth: 0
HStem: -20 120<236.839 411.583> 270 90<234.413 450> 500 120<256.565 423.435>
VStem: 50 160<128.758 246.027> 450 160<135.628 270 360 471.387>
AnchorPoint: "diac_top" 340 830 basechar 0
AnchorPoint: "diac_bottom" 328.744 -50 basechar 0
LayerCount: 2
Fore
SplineSet
230 410 m 1
 70 410 l 1
 70 537 181 620 340 620 c 0
 499 620 610 537 610 410 c 2
 610 180 l 2
 610 126 623 110 660 110 c 1
 660 -10 l 1
 564 -10 503 6 473 46 c 1
 429 6 368 -20 290 -20 c 0
 140 -20 50 75 50 185 c 0
 50 316 170 360 300 360 c 2
 450 360 l 1
 450 410 l 2
 450 482 389 500 340 500 c 0
 291 500 230 482 230 410 c 1
450 270 m 1
 310 270 l 2
 244 270 210 237 210 185 c 0
 210 145 241 100 320 100 c 0
 376 100 424 123 450 165 c 1
 450 270 l 1
110 860 m 1
 300 860 l 1
 470 680 l 1
 360 680 l 1
 110 860 l 1
EndSplineSet
EndChar

StartChar: aacute
Encoding: 225 225 292
Width: 700
VWidth: 0
HStem: -20 120<236.839 411.583> 270 90<234.413 450> 500 120<256.565 423.435>
VStem: 50 160<128.758 246.027> 450 160<135.628 270 360 471.387>
AnchorPoint: "diac_top" 340 830 basechar 0
AnchorPoint: "diac_bottom" 328.744 -50 basechar 0
LayerCount: 2
Fore
SplineSet
230 410 m 1
 70 410 l 1
 70 537 181 620 340 620 c 0
 499 620 610 537 610 410 c 2
 610 180 l 2
 610 126 623 110 660 110 c 1
 660 -10 l 1
 564 -10 503 6 473 46 c 1
 429 6 368 -20 290 -20 c 0
 140 -20 50 75 50 185 c 0
 50 316 170 360 300 360 c 2
 450 360 l 1
 450 410 l 2
 450 482 389 500 340 500 c 0
 291 500 230 482 230 410 c 1
450 270 m 1
 310 270 l 2
 244 270 210 237 210 185 c 0
 210 145 241 100 320 100 c 0
 376 100 424 123 450 165 c 1
 450 270 l 1
550 860 m 1
 300 680 l 1
 190 680 l 1
 360 860 l 1
 550 860 l 1
EndSplineSet
EndChar

